<mxfile host="app.diagrams.net" agent="Mozilla/5.0 (Windows NT 10.0; Win64; x64) AppleWebKit/537.36 (KHTML, like Gecko) Chrome/137.0.0.0 Safari/537.36" version="27.1.6">
  <diagram name="Page-1" id="esuCxXbD0xIaPvCNn7Op">
    <mxGraphModel dx="958" dy="499" grid="1" gridSize="10" guides="1" tooltips="1" connect="1" arrows="1" fold="1" page="1" pageScale="1" pageWidth="2336" pageHeight="1654" math="1" shadow="0">
      <root>
        <mxCell id="0" />
        <mxCell id="1" parent="0" />
        <mxCell id="Kjv4vyTBPtws4vWYZQJM-2" value="" style="shape=image;verticalLabelPosition=bottom;labelBackgroundColor=default;verticalAlign=top;aspect=fixed;imageAspect=0;image=data:image/png,iVBORw0KGgoAAAANSUhEUgAAAgAAAAIACAYAAAD0eNT6AAAABHNCSVQICAgIfAhkiAAAAAlwSFlzAAAOxAAADsQBlSsOGwAAABl0RVh0U29mdHdhcmUAd3d3Lmlua3NjYXBlLm9yZ5vuPBoAACAASURBVHic7d13nFxl3f7x657ZvtkUkuym7aZtCgQiGKQJPIAUSUGQpj4UsSAqIB1EkCYCimJ5FH9IkS7SJBUkNJFOKIFAyqZvNtlN32TL7O7M/fsjRMKSsnOm3Oec+bxfL/6QzDnniiR7rrm/p0gAAAAAAAAAAAAAAAAAAAAAAAAAAAAAAAAAAAAAAAAAAAAAAAAAAAAAAAAAAAAAAAAAAAAAAAAAAAAAAAAAAAAAAAAAAAAAAAAAAAAAAAAAAAAAAAAAAAAAAAAAAAAAAAAAAAAAAAAAAAAAAAAAAAAAAAAAAAAAAAAAAAAAAAAAAAAAAAAAAAAAAAAAAAAAAAAAAAAAAAAAAAAAAAAAAAAAAAAAAAAAAAAAAAAAAAAAAAAAAAAAAAAAAAAAAAAAAAAAAAAAAAAAAAAA8CnjOgCALay1+aub1Duer955CfVJRNRbVn2sUR9j1d1IRVYq3vJhlckoT1v+Dvf8ZBcdkjZJkoxaZNX6yb/faK06jNFaY7U2YbTWJLQmEtHaWJvWDupu1mb5twrABygAQJZssLZXW7uGWLvlH0lDI9IQKw2VVCmph6NoCUkNMlpqElpijZZIWixpSURasqFQS0YYE3OUDUCGUACANFttbVmiRXspor0kfUHSXpLGSOrlNplnVtJyK30gqw8U0ftW+qBfgeYZYzpchwPgDQUASMFqa8sSMR0go4NktY+2nOyHKjf+brVJmiOjD43VWyaiV/vk631KARAMufBDCkib1U12gM3TlxNWBxtpnKT9JOW7zuUjTZLek/QfK73SXqhXKo1Z5zoUgM+jAAA7Udtoe+cV6igjHSurr0ga6DpTwCQkfSDpmYTV0+uK9MoYY9pchwJAAQA+w1obWdOufazVkdbqSEn/I77hp1OzpFetNDVh9c8BxWap60BArqIAIOfNsbagPKajEkanyOpYSX1dZ8ohH1mrp0xUj1QUmPddhwFyCQUAOclaG13dqgMTRicb6ZvipO8HS6w0OWL1aHmx+Y/rMEDYUQCQM6y1kfpWHWaMviGjr8uqt+tM2KE5MvqHsXq4vMgscB0GCCMKAEJvdZPtb/N0hrU6W9Iw13mQtFmS7ogX6oEBxjS7DgOEBQUAoWStjTTEdISksyUdLy7kC4ONkh4xEd1eXmDecx0GCDoKAEJldZPtn4joHBl9R9Ig13mQIUavmYTu2Fikh3lMMeANBQCh0NBqRySkc430fW19YQ5yQYOsbm9v1x95qRGQHAoAAq2hxR4so8utNEH8ec5lTZIejEi/7Vtk5rkOAwQBPzARONbavIZWfUNGF0va23Ue+Epc0pOJiH7Vv8C85ToM4GcUAASGtTayuk0nWqsbJI1ynQe+NzMS0U/7Fpi3XQcB/IgCAN+z1pr6mCYa6XrxjR/JsUaapoh+Xl5g3nUdBvATCgB8rb7VHinpZm158x7gVULS4xHpaq4RALagAMCXVjXbA0xUt8nqANdZECpxI91jO3RVRTdT7zoM4BIFAL6yptkOjEf0c0nfkxRxnQeh1SSrW5uLdPNQY1pdh8mU40ZVDrDxSD8lbIki8Y54wjTFi7XimTm161xng3sUAPjCcmuLC9t0vrX6maQy13mQM2qM0ZXlheZR10HSwEwYPvhARRLjjbWHS2aspG47+OxqGfOWTdjnE0b/nFGzfGE2g8IfKABwblWrnWSkP0ga4joLctbzMrqwotDMdh0kWUePrSgtaC74gaQfSqr2sAtrpVcjxt42bkHtk9duuV4COYACAGdWtdihxuj/STrKdRZAUoeV/qxCXdnPmCbXYXblWinyVnXlDz65O6ZPmnb7obWJ86ctXPFCmvYHH6MAIOustXn1Mf3YSL/QjpcoAVcWSfpBRZGZ6TrIjhw/esiQjo74w1JmLpK10l2R5vj5U+rqePtiiFEAkFX1MTvWJHSnNfqS6yzATlgZPdAe04V+e8fApOrKo630iKSeGT7UnLy86MR/zl2yJMPHgSMUAGTFYmuLSlp1hYx+KqnAdR6gi1bJ6vKKYnOf6yCSNHF45akyuk/Z+ztUZ62OmbZw+YdZOh6yiAKAjFvdZr8YT+hBI412nQXwwlg9kl+kc3oZs8FVhkkjqiZaa5+UlJfdI9uGRMIeMn3RivnZPS4yjQKAjPnkEb7nG+lX4ls/As5Ky63VGf2LzYvZPvbEkQO/oETkNTl71bWdW1wY+9Kjc1ZvdnN8ZAIPWkFGNGy2/Rpimm6k34mTP0LASJURo+dXtdrfz7E2a3+mTx7Tt5vi0Ufk7OQvSWZ0a6z4dnfHRyZQAJB29TF7oo1qjqSvus4CpJkx0vm9W/XK6lablTdSNrcVXSOTnWPtjJU9bdKIqomucyB9GAEgbZZbW5zfpj8Zq7NcZwGyoMlYnVtebP6WqQMcN2rAKBuPfmCl/EwdIxlGWljXo3z3WbNmtbvOgtSxAoC0qGuxVYWteomTP3JIqTW6pz5m71tubUaW5xPx6JV+OflLkpWG929sOM11DqQHBQApa2i1X41K73JvP3KS1ekFMb1c12IHp3O344cM6Wekb6Zzn2lhdbHrCEgPRgDwzFprVrfpMmt1o6So6zzomnUrV2j2yy9o1ZJFkqT+Q4drr0MO1279BjhOFnhrJH0zXU8QnDC88mJjdGsq++jZu7eqqkeorGdPJeIdWr96jZYuWKCW5tSedGyt2XfawmWzUtoJnMvy/aQIi9XWljXE9DdJX3edBV3T2rRZD99yvV596lEl4vHP/FokGtXBJ5yqb1x2tQpLSh0lDLw+kp5uiNmf9S3Qr4wxNpWdGWNOlLztorhbqQ49dryGjtpdxnz2e15HR4dmv/G63n7xBcUT3t77Y0ziJEkUgIBjBQBJq2+1wyRNl+T8ymR0TdPGjfrVWSerdv7cnX6uctQeuuyef6ike/csJQspo/vXFOh7Y4xp87L5caP6lCXixevk4Utatx49dMKZZ6lbjx47/Vzt4kWa9vBDnyuDXfTm1Jrl+3vZEP7BNQBIyqpmu7+k18TJP1Du+tmFuzz5S9LyeR/p7qsZ8abM6vQ+bXqhrtF6ekufjRd9UR5O/iYS0VdPPnWXJ39JGjR0mA480tuLOI20z7hx43xzcSK8oQCgy+pj9gQT0fOSyl1nQdfNf+dNvf9i18fS7z73jGrefTuDiXKE1UHRAr3W0GpHJL2tiXh6bHb1HmPUt3//Ln9+zL5fUlnP5N8pZKX8gZtXDkt6Q/gKBQBdsqrV/kRWj0kqcZ0FyXlrxpTkt3k6+W2wXdXW6LX6ZvvlZDZKyFZ6OtiYPZP6fDQS0bDd9/ByKMVtnqeM8A8KAHbKWhtd1Wr/+MkjffnzEkC18z5OepvlHrbBDlj1VkQzV8XsqV3dxCRsmZdD9S6v8LCNtwU9E094ygj/4Ac6dmiOtQUNMf3DSOe6zgLv2tpak94mFmvJQJKcVmSsHlzVYr/XlQ+biIq8HKSgOPnNiko8LuoZVgODjgKA7VpgbWGfmP4hbvMLPC/39/eu4JkAGRA1RnfUt9qLMnWAbN7WZbmLLPAoAPicVdaWdo9pqqSvuc6C1O1x4CFJbzPmy4dmIAm05aT5m/pWe7PrIAAFAJ+x3tqepk3PSjrSdRakx0GTvq4effp2+fNlu/XW/uPpfhl2OSUArlEA8F/Lrd2tvVX/ktWBrrMgfQpLSnXm9b+Wiez6r3skGtV3b/ytikq7ZSFZzru8vtXebq3l5zCc4A8eJEkrN9m+BTH9mxf6hNMXDj1C59z6550+5reotJvO+c2ftdchh2cxWc47pyGm2621zNORdbwLAFpnbY/2mGZIGuM6CzJn36PHq3qfcXrmb3fovRee1ZoVyyVJfQdVae/Dj9LR3z5bPfvwjCcHzq6PqVXST1wHQW6hAOS4OmtL2mOaImmc6yzIvJ59K3TqpVfr1Euv/u8z4CNRXuTompHOr2+xGyqKzTWusyB3MALIYcutLc7bcrV/8peJI/Ai0Sgnfz8x+nlDzF7hOgZyBwUgR1lr8wtj+oeVGPgCPmGtbsrkcwKAbVEAcpC1NtoQ08NWmug6C4DPuXXwHnuNdB0C4UcByEH1Mf1W0omucwDYLlO1+148iQkZRwHIMata7YVGOt91DgA7ZozhZzMyjrsAcsiqVjvRSL92nQMImlhzkxrXrc3a8VqbNmftWF5ZmfIJI6uGZeVY7dG4jUZXzaipiWXjeLmCApAjVrfZfRMJ/V0Sl30DXbBuVZ2e+dsdeuvpKdq4ZrXrOL4TkX6jhP1NNo5loh2SOuzE6sq5VubeSHPHH6fU1TVn49hhxjJTDljZYockEpoqacePgQPwX7NmztA1JxylmQ/czcnfP4yk3Y3szbY4751J1VU8uCxFFICQW2tt96jRdEkVrrMAQTD3zVf1/y49V82bNrmOgh0xdpSVnXHcqEreW50CCkCIWWtNR0x3WWl311mAIGjauF53XHae4u3trqNg1yoTcXu/tqwMwAMKQIjVt+mnkk5ynQMIigd/eQ1L/oFijpg0oups1ymCigIQUqta7FeM1fWucwBB8f6LM/XGtH+6joEkWWt/k627EcKGAhBCdS22yhiu+Ae6qmnjet177eWuY8CbUpNI/FWMApJGAQiZxdYWRaTHJfVxnQUICpb+g45RgBcUgJApiekPxmhf1zmAoGDpPxwYBSSPAhAi9TF7vKTvu84BBAVL/6HCKCBJFICQWN1kB8jqr65zAEHC0n/YMApIBgUgBKy1JhHVnWLuD3QZS//hxCig6ygAIdAQ04WSjnWdAwgKlv5DjVFAF/EyoIBbGbNjZHWj6xxAkDz0y2tTWvqv2n2M9jzo0DQm+qwPX3lJy+Z+lLH9p4edaqQ5Gdu7zHfleVXTHDFheNX3py1cdkdaQ4UMBSDAFlhbGInp75KKXGcBguL9F2fq9WlPet6+oLhY59z6Z1UMHprGVJ/V1LjR9wXASo9Mral9IFP7nzi88l1teZ6JJ8bY304YWTVz2vxli9KZK0wYAQRY91ZdKWlP1zmAoEjH0v+JP7k8oyd/bDF14fJHJPtYCrtgFLALFICAWhOzo2XEEBNIQqpX/VfvPU5HfPPMNCbCzphI4oeSbUhhD0dMGF7FrdE7QAEIIGttJC7dJanQdRYgKFK96r+guFjfufG3ikR5wna2TJlft0bWnJ/KPj4ZBXBXwHZQAAKoPqbzZHWQ6xxAUDQ3Nur+669MaR8s/bvBKCBzKAABU9diq4z0C9c5gCB54MartL5hleftWfp3i1FAZnAXQBZMHDlooEmYr8mY0QlrKyIpNNHfff+bh5T26NktnfmAMGtva9N7Lzyb0j6sle647Nw0Jdq1pR99kLVjeWWk8yZVVx6XlYMlJEkbJZV73YUxunX80KHPTF+8eGm6YgUdBSCDTh4zpqAl1niTEjrXSgWyVkaSTWGfH73+SrriAeiihe/P0sL3XafwG7OflfZznaLrbFkk0nGnpKOV2o/h0GAEkCHHVlcXtsQ2zpB0kaQC13kAIOcZHcko4FMUgAyJ2tZbJHOE6xwAgE8Zo1tPGF7heZQQJhSADJg0bECVMeZHrnMAADqzZR0m/yLXKfyAApAJ0bzjrZTvOgYA4POszLdcZ/ADCkBGJMa4TgAA2KHKY8YM2s11CNcoABlgrYpdZwAA7Fgk1pHzj3SkAGSANWaZ6wwAgB2K7V+zaq3rEK5RADLB6BnXEQAAO2KmXrv18UI5jAKQAdPmL/+PZF5znQMA8DkJo8QfXYfwAwpAZlgTiXxH0gbXQQAA27Dm1ik1tS+5juEHFIAMmTJ/ydyIIkdIludOA4B7VrLXTl247ArXQfyCApBBk2uWvmuaE3sY6SLJviqp0XUmAMghbbJmnmT+GonbvafW1F4n3gPwX7wMKMOm1NU1S7rtk392qT5mT5RVKu++BhBw9113hV569CHXMXbKyp4+rab2Adc54B0rAP5zsesAAIDwowD4SH2z/bKsDnSdAwAQfhQAP4nw7R8AkB0UAJ+ob7XDJB3nOgcAIDdQAPzjYkk5/2xqAEB2cBeADyy3djfFdKbrHEDYxVqa1bh2jesYu9TStNnTdps2bFB+YUFS2zRv9nYsK1M+YWTVME8bZ4ltj8ZLS0pWPjpnTpvrLH5kXAeA1BCzl1urm13nAMKoPRbTcw/do5cff0Srlix0HQfZl5DVK8aY/5tSs+wfrsP4CQXAMWutaYhpnqQRrrMAYbO6dpn+7/zvqXb+XNdR4APG6omimD3t0draFtdZ/IBrAByrb9Xh4uQPpF3Txo363TlncvLHf1mjr7cWmXvFl19JFADnItL3XWcAwuj+X1zJkj8+x0onT6qu/KHrHH5AAXCottH2tkbHu84BhM17z/9Lb82Y4joGfMpKvzq2unK46xyuUQAcyivQGZKKXOcAwmTzhnW69zpe+IadKs2T+atyfBRAAXDISN91nQEImwduvDoQt/rBLSt7eK6PAigAjqxqtgdIGuM6BxAmLP0jGbk+CqAAOBKJ6BuuMwBh0rRxPUv/SFZOjwIoAA5YayNWOsl1DiBM7v/FVSz9I2m5PAqgADiwulVfljTQdQ4gLFj6RypydRRAAXAgYXSK6wxAWLD0jzTIyVEABSDLrLURI33ddQ4gLFj6Rzrk4iggp9qOH6xssYdHjJ53nQMIg1kzZ+jPF/zA8/aFxSWacPZ5MhF/fRd657kZWjz7vaS32/d/DlNeXnIveV2/do3mvZf8sRLSI0bm3aQ3zChbYaQLU9jBZhONjJ0yb+nitEXyMV4HnGURw8V/QDo0bVyvB274WUr7OOmin+qIb/rvTdxrapd6KgBf2P8AFRQWJrXN0poFngqAkZ06rWb5A0lvmGETqysHSDrV4+bdFLd3SfqKJJu+VP7kr9qbGya4DgCEQapL/6O+dKAO/8YZaUwEPzCR+LmS6r1ub2UPn1BdeU4aI/kWBSCLVsbsHpIGu84BBN17Lzyb0lX/BcXF+vZ1t8gYpqBhM2V+3RojeZ8LSTLSr3PhrgAKQBZFrL7qOgMQdE0b1+veay9PaR8nX3SlyquGpCcQfGdKzfKnrPSPFHaRE3cFUACy61jXAYCgY+kfXRGJxH8sRgE7RQHIklXWlko6xHUOIMhY+kdXMQrYNf4WdDJu3Lj8AY2rj7HWHm6t+kdMeu6U6D2oasDQMXt9OR37AnLVx2+8ps0b1nnefrf+AzV87N5pTJQZS+Z8oNW1y5Lebuio0YpEk/te17x5s1YuS/5Ykn3TyCz1sGFW2S0XXpeksIfnp9bUHqkQ3hVAAdjG+BGVh0as/ipppOssAAB/sNKPptUsv911jnSjAHxiQnXlcUZ6VFKB6ywAAF8J5QOCuAZA0qRhA6qM9KA4+QMAPq+bTdj/cx0i3SgAkhImeqWkbq5zAAB8ytrx44dV7us6RjpRACRjDC/nAQDsnIl6fsSwL+V8ATi2ul8fSX1d5wAA+JuxGus6QzrlfAGQosm9OQMAkJNsyC6cz/kC0NCjX72kVtc5AAA+Z7XCdYR0yvkCMGvWrHZj7XOucwAA/C1i9E/XGdIp5wuAJCWi5hbXGQAAvja/qLD7DNch0inqOoAfLFjbuGxkr56lMuJRvQCAzlojihz75LwFoRoBUAA+MX/9xpmjevWIyOhgsTICANhiRcLY8VNrlr/tOki6UQC2MX994wu779bzscSWKz1LzZYXSPB0QADILXWS3pF0ayTacvbU+asWuQ6UCaG6pcFv6lvs/8roAdc5AATLfdddoZcefSjp7b572RUqKEzuzualNQs0/eHkj2VlT59WU8vPtwBjqTuTjPZyHQEAgO2hAGRWqJ4aBQAIDwpAZu3hOgAAANtDAcgQa22+pEGucwAAsD0UgAxpiKlK3GUBAPCpPNcBwspaDTHcYwEEXkdHhzY2rNKm9euzdsxN69dl7VieWTN0wvCqcdk4VMQY25avlc98vHRlNo6XKygAmTPEdQAA3q1cuEDT/vonvT1zutpbeV9YZ8boeslen41jWVnlt0sTqyvrZc197UWJm5+ZUxuAluRvjAAyJEIBAALr5Scf0XWnjNdrU5/g5O8vFTL20vyYmT1x5KD9XIcJOgpAhlhpqOsMAJL33gvP6t5rLld7LOY6CnZsoBJm6oSRVcNcBwkyCkCmGFYAgKDZsKZBd191sWwi4ToKdq2vSdgHT+Zia88oAJnDLYBAwDz4i6vUtHGD6xjougOah1de4DpEUFEAMqev6wAAuu7VyY/rnZlPu46BJBmjG79WXcVD1zygAGTAcmuLteVNggACYMOaBv39lutcx4A3hXHZuxgFJI8CkAGRFvVxnQFA17H0H3iMAjygAGRAfp56u84AoGtem/IES/8hwCggeRSADLAJVgCAINiwpkEP33yt6xhID0YBSaIAZIA1FAAgCFj6Dx1GAUmgAGRAxDICAPyOpf9wYhTQdRSATDDq7joCgB1j6T/UGAV0ES8DygCbUKEcvgnwg5ef15xXX9bauhUqKC5SWc/dlF9Y6C4QPqe4rIcqhgzV2IMPV35Rkes4Oef+636a0tL/iC9+SWP/58g0Jvqsd5+boUWz38vY/tOhrHefZxrXrn0hU/s3sudJGuhx8y2jgIXLf5POTGFDAcgAKxW4OP+/OvlxPfjLn6t18yYHR4cXJd27a+LZ5+voM74nE2FBLhtem/KE3nvhWc/bl5SV6exf/VG79RuQxlSftaZ2qe8LwKCRo1/99f0P35Kp/R83ouqdhLXPSN6+Tn0yCpjxVM2yj9IcLTT4iZMBxqgg28d88MarddeVF3LyD5jmxkb949Zf6C+X/Ijnz2dBOpb+T738moye/IMiPz8/o18gJy9Y9qykv6WwC0YBu0AByAArZXW9/fUpT+j5h+/N5iGRZm//a7qe+MOvXMcIvVSv+t/jwEP05a+dnMZEwRXJcAGQpNZE/oWSlqewC+4K2AkKQAYYZW8FoD0W0303XJmtwyGDZtz9F9W8N8t1jNBK9ar/krIynXXDr2WMwwt8fCQvWpCf6WPMXLRoY8SY70qyXvfBXQE7RgHIhCyOAB6+5VrFmpuzdThkkE0kdM9VF6u9tdV1lNBh6T/98grysnIN2eQFy561VqkscTIK2AEKQCYksjMCWPj+LP37sYezcShkyaoli/TEH3/tOkbopLz0f8DBLP13EsnLTgGQpJjNv0ApjgJah1demK48YRHqtazxIwbtH7Hma0aqtla9snXcwbvvuVdpz54VmTxGIpHQog/eU1sL3/5DxxgN2WOsSsrKXCcJhfa2mBa881ZK+6gaPUbdembtR4hWLq7R+vpVSW/33cuuUEGSt/wurVmg6Q8/lPSxSsp61DY3bpyb9IYeWanaGA1JYRctkWh8n8nz6ualK1PQhfI2wOOGDq1IRDvukdWx0ifDoyxWnaVzP8zewRA+1mrJnPddp8A2ls2d4zqC7zRv2jhIRoOydbw0/AgvTsTz7jlZOuRRKZ767oIvdCOAY3Yf3D8RbX9D2nLyBwBgC3sgdwV8KnQFoKDdPiiZwa5zAAD8xxjdcGz1wKytXPhZqArAxGFVX7Gyh7vOAQDwreI8E73MdQg/CFUBMBF7ousMAACfS9iTXEfwg1AVACs7ynUGAIC/WaP+k0YO6OM6h2vhugvAmvxw39iYeUPLSvW9Papdxwidl+rq9a/lyd/WBSAz8iLG89MFwyJcBcDYJZI5xHWMIFu8qUnLNjVpXN/dXEcJlROGVuqjdY2qbeK5DYAPND05d8U61yFcC9cIwJrprjOEwd1zFynGm+nSKmqMzho9THk8Rx7wAfNPpfB+gbAIVQFY1bP8cUnzXecIuvZEQn/+cIHrGKFT2a1ER1f2dx0DyHUdiYT9nesQfhCqAjBr1qx2a823JLHOmqKP12/UrNU5v0KWdpOGDNSg0hLXMYCcZWSunr5o+duuc/hBqAqAJE1buGxWwtgjlNqLI0KhV2FqLyW8Zx6jgHRjFAC4YaR2SedOqVl2s+ssfhGuiwA/MX1B7RsnDxo0qqXIfMdKXzPSKElZe7OKMcaUdO/eM5V9tLW2qj0W87x9/5IiXbbPHrrpnTlqaPG2n7b4llHAhWO5uzKdto4Cpi+r87yPSDSq4tJSiSIRSm0tLWpva3MdY6essU3GGn+HlGKSXSSZlyI2fvtTC+ty/ovhtkJZACTp0draFkl/+uSfrLLWRhpiapPH908vfH+Wbj7D+3MqosborFHDVZqXp9NGDNNtsz/2fLXL1lEAdwWk16QhAzV77QbPdwUk4nF9+YRTdeqlV6c5Gfzgvuuu0EuPJv+GvqyyOmdqzfIHXMeAd6EbAfiBMSYhab2XbdtjMd3z88uUiHt/WdUxVf01pHupJGl0rzId2r/c874k7grIhHSMAp69/y7Nf+fNNKYCkEsoAJnT4GWjJ/7wK61c6P0K/P4lRZpQNeAz/+6k6kqVFyf3jvBtcVdAZqR6V4BNJHTvzy9Te2trGlMByBUUgMxZmuwGC9+fpZkP3O35gFuX/vMjn/3PWhiJ6rQRw1J6SCJ3BWRGqncFrFqySE/88ddpTAQgV1AAMmdxMh9O99J/Z4wC/IlRAABXKACZsySZD2di6b8zRgH+xCgAgAsUgAwxpusFIFNL/50xCvAvRgEAso0CkCHGdG0EkOml/84YBfgTowAA2UYByJD21q6tAGRj6b8zRgH+xCgAQDZRADJkQHezRtKmnX0mW0v/nTEK8K90jAKe/L9b05gIQFhRADKrZke/kO2l/84YBfhTOkYB/7rvTkYBAHaJApBJRrN39Esulv47YxTgT4wCAGQDBSCTrD7Y3r92tfTfGaMA/2IUACDTKACZ9bkVANdL/50xCvAnRgEAMo0CkEkdny8Aflj674xRgD8xCgCQSRSADKroZuq1zUuB/LL03xmjAP9iFAAgUygAmTdb8t/Sf2eMAvyJUQCATKEAZN5sQWfR+QAAG8FJREFUyZ9L/50xCvAnRgHeNW3coPdfnKmXH39Yb/9rutbWrfC8r46ODs17+3W98tRjem3qE1r84WxZCi8CLM91gLCzRm8tes+fS/+dbR0F3Db7Y1mP+9g6ChjXd7e0Zst1k4YM1Oy1G1Tb1Oxp+62jgFMuuSrNyfxpw5oGPf7bm/TGtKcUj3d85tdG73+QTrn4Kg3eY88u7Sse79Az99yhp+/5i5o2bvjMr/UeMFDHn3uJDjruxLRlB7KFFYAMW/Dm22/6eem/M0YB/sQooOtq58/VDSdP0KuTH//cyV+S5r7xqm46/QS9OX3yLvfV2rRZv/vBGXr8dzd/7uQvSWvrVuiuKy/UvddeIWu91mbADQpAht1y1td/7Pel/84YBfgTo4Bda9q4QX849yxtWF2/08+1x2L6609/otemPLHDz7Q2bdZt55yhj17/zy6P++/HHtL0O/+cdF7AJQpABk2sHnigpJ943T5bS/+dcVeAf3FXwM7NuOv2Ls/5E/G47r7q4u2WgK0n/5p33+7ysafe8QdtWNOw6w8CPkEByJDDhgwpsorcKSnqdR/ZXPrvjFGAPzEK2DGbSOjVyY8ltU0iHtddP7tIrzz16Xaxlmb94cffSerkL0ltLS16++mpSW0DuEQByJBuefEbjbSH1+1dLP13xijAnxgFbN/alSu0cc3qpLeziYT+9vNL9dqUJ9TatFm/Pfs0zXv7dU8ZFs5+19N2gAsUgAwI6tJ/Z4wC/ItRwOc1NzZ63nbLOOAiXX/qhKS/+W+rpXGj522BbKMApFnQl/47YxTgT4wCPq+sd++Utk/EE6pfsjilfXTv3Sel7YFsogCkWRiW/jtjFOBPjAI+q1d5P1UMHuo0w6j9DnR6fCAZPAgojVwu/a9ujWnhxs2qa27W2tY2NXd0KJGwikYiKsmLqk9xoQaWFKu6R5l6FRYktW8eEORfPCDosw475TQ98usbnBy7W8/dNO7IY50cG/CCApAmW5b+43eaLC791ze36rX6NXqzYa3WtMa6vF2/kiLtV95bB1b0Ve+irpWBraOAl1Z6v83p7rmLtGfvnip0fG1DmGwdBdz0zhx1eHwQzb/uu1N7H3G0Rn5xvzSny74jvnmm3np6qhZ9kN2L8Ywx+t8rr1dRabesHhdIBT+J0ySbS/+1Tc36y5wa/fztDzR9WV1SJ39JWtXcqslLVuiqN9/X3XMXanVL15aAGQX4E6OAT+UVFOjcP96pfkOGZ/W4J5x3qfYbf1xWjwmkigKQBtla+o8l4vpHzVLdOGuO3lmzLuVHj8at1ev1a3XN2x9o8pIViu9if9wV4F/cFfCpHn366vJ7H1X/4SOycrzjz71YE84+NyvHAtKJApCibF31X9fUol/OmqOZK+p3eaJOVkfCaurSFbrlvY92uZrAXQH+xF0Bn9W9dx9ddvcjGS8Bx597sSad47n7A05RAFKUjaX/eRsadcu7H2llc2aXaJc0NunGWXO0qHHTTj/HKMCfGAV8VqZLACd/BB0FIAXZWPr/eH2jfv/BPLWk8DbBZDR1dOh3s+dr0abNO/wMowD/YhTwWVtLQL9h6b0mgJM/woAC4FE2lv6XbGrSn+csUEciu68ZbY3H9cfZ81Xf0rLDz6RjFHDP3MWMAtKMUcDnFZaUqFv3Xmnbn4kY9R4wKG37A1yhAHiU6aX/lo647vioRrEsffPvrKmjQ7fPqVFbfMcn6FRHAW2JOKOADGAU8KlYS7N+/6OzVPOe98f7dmYTVvdcfYlenfx42vYJuEAB8CAbS/8PLFiS9O196VbX1KInFi/f4a8zCvAvRgGfnvznvfVa2vediMcpAQg8CkCSsrH0//H6Rr3VsNbr7tPqxboGLdu846fMMQrwp1wfBWTy5L8VJQBBRwFIUjau+t/Zt+5sS1irJxbtPA+jAH/K1VFArLlpyyt9M3jy32prCXht6hMZPxaQbhSAJGRj6f/DdRu1dFOT10NkxEfrN2pJ444zMQrwr1wbBdhEQn+59NyUXumbrEQ8rnt+donmvvFq1o4JpAMFoIuy9cCfl1N41v62jIwi0XwphSXgbf171eqd/jqjAH/KtVHAK5Mf0+yXnsv6cePxDt199cXqaGvL+rEBrygAXZSNpf/m9g7NXrvB6yFkZFS2Wz/1G7aPqsYcosrRB2rw7ger35C9VdqzPKUy8M7qtbu8HZFRgD/l0ijg2fvvcnbstXUr9O5zzzg7PpAsCkAXZOtZ/3M3Nnp+zG80r0AVw/bWbv1HqrC47NNfMEaFpd3VZ+BoVQzeS9GotxdANnfEtWjTzp8QWBiJ6rSRQxkF+FAujAI2rVuj2nkfO80w5/X/OD0+kAwKwC5ka+lfkuZv2PkJdkdMJKqKwXt99sS/HUWlPdW3ak8ZjysBXck3umd3RgE+lAujgPUN9Snvo1uv1B4YtKFhVcoZgGyhAOxCNl/zW9e849vtdqZH3yrlF+26YEhSYUl3lfUe6Ok4dU07fjLgthgF+FPYRwFFJV37O7Ajx//4It3wz+dSendAUbduKWUAsokCsBPZWvrfqr45+Qf/GGNU1iu5H+rdd/NWAOpbupaPUYB/hXkU0GdgpUp7ePsGf/yPL9KkH16Q8guEqkbv6Wk7wAUKwA5kc+l/q+aO5B/7W1BcpkiSc/1ofqHyCpI/CTR1dHT5s4wC/CnMo4BINKp9jx6f9HYnnHeJJv3wgv/+7+69++iSOx9SvyHDktpPNJrn6fiAKxSAHcjm0r8kWUltHp77H80rSHobScorSH67WJIFhVGAP4V5FDDphz9RaY+eXf788ederIk/OP9z/75n3wpdes8jSZWAI751psorB3f584BrFIDtyPbSvyQZSREP38qsx2/ICQ9lIz+SXD5GAf4V1lFAr/J++tFtf1HhLq4HMMboxAt/utNX+m4tAQNHjNrlcfc6+DCddPHPks4LuEQB6MTF0v9WxXnJ36LX1rpZSvLWQWsTao8lf8FhYV7y/5cwCvCnMI8CRu93kH724D81atz+2/31isFDdd6f7tH47/5wl/vq2bdCVz7wpA475TTlbefvZ2FJqY7/8UU67093b/fXAT/jT2wn3fLiNyqLS//b2q0wX5vb25PaJt7RptamjSrq1vVlz+ZN62QTya8A7FbobdxwUnWlPt6wUQ1dvIiws62jgAvH7vqbGLpu6yhg+rI6T9tvHQVc+9jTyi8qSnO61AwcMUqX3fuoaud9rLlvv67GNQ0q7d5TQ8burRF776tItOtltqi0m07/+S/1tR9fpA/+86LWrFiuiDHqP3yk9jjwEJWU7fz2W8CvKADbcLH0v62KkuKdvnlvR9Y3LFK/0n26dH9/wsa1sWGJh3RSv5JiT9ttHQXc9v5ceXvM0aejgHF9d/O4B2zPpCEDNXvtBtU2ebsFdeso4JRLrkpzsvQYNGp3DRq1e1r21b13H335ayelZV+AHzAC+ITLpf+thnf3dg9xW8tmra2bL7uL06u1Ca2tnedp+V+ShqXwe2MU4E9hHgUA2DkKwCeyfdX/9ozq2d3ztk0b6tWw5AO1t27/rX1tLZu0avH7am5c42n/RtKonj0855O4K8CvwnxXAIAdYwQg90v/Ww0sLVb/kiKtbPb2g7S1aYPqFr2jgqIyFZWUKZJXoHh7TLHmxi0XC6agukeZehbkp7QPRgH+FfZRAHLLcUMHjU1EIntbJXpEIqqTSbw0ZX6dt28/IZbzKwB+WPrf1oH9+qa2A2vV1tKoxrUrtKF+sTatq0v55C9JB1b0TnkfEqMAv2IUgDCYMLLqyEnVlbMTUfO+jL3XGPMHa81jNhFdNbF60H3jhwzp5zqjn+R8AfDD0v+2Du1frhIPt9tlUo+CfO1f0Sdt+2MU4E+MAhBkE4YPOs8k7DNW2ms7vxyVzOmRvPhbE0YMTs9VoSGQ0wXAL0v/2yrJi+rwARVp2186HFs1IK2/Rx4Q5F9hfUAQwm388EFfNcb8Trs+pw2K2MSUo8dWpGfJNuBytgD4bel/W+MHD1CfIu/fkNNpYGmxDh2Q2pL99jAK8CdGAQiaa6VIxOg2dfF8ZqXhBS0FF2Y2VTDkbAHw29L/tvIjEZ0+amiX7uvPpKgxOnNUaieDnWEU4E+MAhAkb1cP3F8yo5PayOrMDMUJlJwsAH5c+u9s957dM1YwuuqU4VUaUpa5lTJGAf7FKACBYc04D1tVH1td7f2+65DIuQLg56X/ziYNGaiDUr0rwKPDBpTr8IGZvxaBUYA/MQpAUBgZTw8oMfF4r3RnCZqcKwB+XvrvzEg6beQQfak8PbfgddVhA8r1zersvdaUUYA/MQpAIBi7ysNWiWZr69OeJWByqgAEYem/szxj9L3Rw3TMoP4pLZV3RcQYnTC0Ut8aMSSr1x8wCvAvRgHwuw6ZF5PdxkqvvbhkSc4305wpAGlZ+q/MztJ/Z8YYnTi8Uj8aM0Jl+ak9jW9HehUW6IKxo3RslfdvfKlgFOBPjALgdzNqli+U9Ewy20SM/pShOIGSMwUgLUv/g91elPeFPr10/X576bAB5Wm7Mj8/EtExg/rr+i/tpdEpvIsgHRgF+BOjAPhewp4naUOXPmvM9CkLlv89s4GCIScKQBCX/nekNC9P3xoxRDfs9wUdMbBCpXneXufQvSBPxwzqrxv3/4JOHF6pwiTej54pjAL8i1EA/GzqotoF1kYmSLZhZ58z0tNxW/BNyfPrSELF/Rktw4K89L8zvYsK9I3qwfr1gfvo3D1H6isDKzS4rFSFke3/NoujUQ0r66ajK/vrgrGjdMsB++jE4ZUpv+An3RgF+BOjAPjdtIVLX8237XsZ6XfbKQLvWGu+Pa5m+YQZNTWNTgL6UOjfBtgtL36jAr70vzN5EaOxvXtqbO+e//13G9vaFYvH1dIRV3FenoqjEZX57ES/MydVV+rjDRvV0BLztP2WUcB8XTg2uWeDYOe2jgKmL6vztP3WUcC1jz2t/KKiNKcDpCcX1jdIuvBa6eI3qgcOMAnTy3REaqctW7Zekqa5jec7oV4BCNPSfzJ6FOSrvLhIg8tKVV5cGKiTv5SuUUAjo4AMYBSAILhWSsyoWVE7fVHtB1tP/vi8YJ3ZkhDWpf9cwSjAnxgFAOER2gIQhqv+c1167gqYn8ZEkLgrAAiLUBaAXF36DxtGAf7FKAAIvtCd4Vj6DxdGAf7EKAAIvtAVAJb+w4dRgD8xCgCCLVQFgKX/cGIU4F+MAoDgCs2ZjqX/cGMU4E+MAoDgCk0BYOk//BgF+BOjACCYQlEAWPrPDYwC/ItRABA8gT/jsfSfWxgF+BOjACB4Al8AWPrPPYwC/IlRABAsgX4Z0IThgw+SEp6X/iXp8IH9tGhTU7oiIUsO6tdX/1xc63n7j9c3asaylRrWo1saU2Fkz+56tX61NsTaPW2/dRRwyiVXpTkZgM4CWwAOGzKkSCb+V6Ww9C9JDy1Ykp5ACJwnFy93HQHb8a/77tTeRxytkV/cz3UUINQCOwJIdekfgD8xCgCyI5AFYMvSv/er/gH4G3cFAJkXyAIgk/iVUlz6B+Bvzz1wt9bWeb/OA8DOBa4ATBpWdbCRvuw6B4Bk2KS36Ojo0LP335WBLACkABYARXSw6wgAkuXt+QAL3ns7zTkAbBW4AmCtHew6A4DsWLOcOzWATAlcATBGPMcVyBHdevZyHQEIrcAVAMm87zoBgOyoHL276whAaAWuAGzqiEyWtMF1DgCZd9CkE11HcKK1efMa1xkQfoErAC8uWdJqZC9xnQNAZo099AjtdegRrmO4sOCDl1542nUIhF/gCoAkTampvUvW/t51DgCZUbX7GH3nxt/IpPB2wSCy0vK41VEtTY3NrrMg/AJZACRp6sLaC4zMGZIWu84CID0Ki0t05P+epZ/e94TKevV2HSfb6qPSUQOKzVLXQZAbAvsyIEmaUrPs/pOlh5qHDzxUJjLaSJVGdrulxkqXSCappwcOHDpMBx51THrCImkvTZ2s1XUrktqmsLhYk07/dmYCQZK0fGGN3nju2aS32/fIr6p88NDt/lppz14qrxyiUV86UKU9eqQaMYjWJIy+UlFo5rkOgtwR6AIgSY9KcS1c8YKkF3b2uYnVlRcoyccHDx4xSmde+tNU4iEF895/L+kCUFxayn+zDPv31Kc8FYADjztJex9xdAYSBV5jJKJjKwrMHNdBkFsCOwIAgBDYoIS+2rfA8MhDZB0FAABcsFqXiOiYihLzmusoyE2BHwEAQACtshEd3b/AfOA6CHIXBQAAsmupkY6sKDQ1roMgtzECAIDsmdeR0CHlRZz84R4FAACy4x116H8GlhhecQhfoAAAQOb9K69Qh1d0M/WugwBbUQAAIIOMdGd5oSb0NqbRdRZgWxQAAMgMK6vryovM940xHa7DAJ1xFwAApF/MGn27X5H5u+sgwI5QAAAgvepsQif2KzGvuw4C7AwjAABIn/9E4tqXkz+CgBUAAEiPO8oLda4xpt11EKArKAAAkJpWY/XD8mLzN9dBgGRQAADAuxoZnVheZGa7DgIki2sAAMALq4fzC7VvRSEnfwQTKwAAkJxGSZdWFJs7XAcBUkEBAICuMnrDWJ3Gy3wQBowAAGDXOiTdUl7Am/wQHqwAOLRx7RpNvvduvfn8TNUtXaK21lbXkXapsLhYg4YN1wFHHaNJp5+l0u7dXUdKO5tI6OXpU/TcE4+p5sMP1Lh+netIKcnLz1ffAQM17tDDdNy3v6v+VYNdRwqaeUrorIoS85rrIEA6UQAceWPmv/TbSy9Q8+bNrqMkJdbSooVzPtTCOR9q6n1/02W//5PGHnCQ61hps2HNGt103g/00dtvuY6SNh3t7Vq5dImm3v83Pf33B/WdK67SpDPOch0rCDok/aa5UNcONcb/7RxIEiMAB979z79107nnBO7k39nGdWt1zXdO14dvveE6Slq0Njfp6rP+N1Qn/8462tt1xw3XaOr9f3Mdxe/ejUS0f0WRuYKTP8KKApBlrc1Nuu2yCxWPh+PlYB3t7fr95Reroz34Dz974LZbtWTux65jZMVdN92glcuWuo7hR83G6IryQn2pb4F5x3UYIJMoAFn2/D+f0PrVq13HSKtVy5fp9WefcR0jJa3NTZrx8AOuY2RNR3u7pt53j+sYfjM5brVHeaG5xRgTdx0GyDQKQJa98/JLriNkRNB/Xx+++YbaYjHXMbIq6P/N0miekSZUFJmvDSg2LIsgZ1AAsmx13QrXETKioa7WdYSUrF5Z5zpC1jWE9M9iEtYboyvWFGpseZGZ7joMkG3cBZBl7SH9lhmEWxh3Juj5vcjF3/MnOiTdnWjXVf3LTLjmcUASKAAAcoWV9FTC6Kr+hWaO6zCAaxQAALlgZiKiK/sXmPDe4wkkiQIAIMxeiVj9rG+x4YpHoBMKAIDQMdKLsrqmvNj823UWwK8oAADCImGk6Tahm8pLzKuuwwB+RwEIgMKCfA3p1ydrx1tY16CODp6D0hWD9/miirqVuY6hlfPmqrGh3nUMV1pl9GjE6sa+RWae6zBAUFAAAqBHaYkmHvzFrB3vr089r8aOlqwdL8gOPvN7GjBqd9cxNOXmX+RiAVhljf6vvUC3VxoT7Fc2Ag5QAAAESULS87K6v61Ij1YaQ1MFPKIAAAiClZLuk3RHRZFZ5DoMEAYUAAB+FZM0w0p3VRRqBi/oAdKLAgDAT+KSXrfSo7ZdD/GoXiBzKAAAXPvvSV/terhfmWlwHQjIBRQAANlntc5KMyPS0/EOTeWbPpB9FAAAWdHW2rJc0kOSZpYX6SVjTLvrTEAui7gOACA33HHZeedVFJkrKorMTE7+gHsUAAAAchAFAACAHEQBAAAgB1EAAADIQRQAAAByEAUAAIAcRAEAACAHUQAAAMhBFAAAAHIQBQAAgBxEAQAAIAfxMiAgBU/d8HPl5ee7jqGmDRtcRwAQMBQAIAWb165xHQEAPGEEAABADqIAAACQgygAAADkIAoAAAA5iAIASJIxrhMAQFZRAABJJaWlriNkXWlZmesIAByiAACSBgwd5jpC1g0cOtx1BAAOUQAASaP3+aJ69e3rOkZWHXDUMa4jAHCIAgBIikbz9I1zL3AdI2t69umjCaed6ToGAIcoAMAnjv3maTpkwiTXMTKuoLBQl//hdpV06+Y6CgCHKADAJ4wxuuQ3f9DJ5/zYF8/3z4SBQ4fplw/+Q3t+aX/XUQA4xrsAgG1EolGdcfHlOubUb+nlaVM0f/Z7WtfQoHhHu+tonpWUlaliYKW+eOhhOuCoY5SXx197ABQAYLsqBlXqpB/8yHUMAMgYRgAAAOQgCgAAADmIAgAAQA6iAAAAkIMoAAAA5CAKAAAAOYgCAABADqIAAACQgygAAADkIAoAAAA5iAIAAEAOogAAAJCDKAAAAOQgCgAAADmIAgAAQA6iAAAAkIMoAAAA5CAKAAAAOYgCAABADqIAAACQgygAAADkIAoAAAA5iAIAAEAOogAAAJCDKAAAAOQgCgAAADnIuA6QimulyFvDK08xEZ2ihNlDxpbv5OO9kj6AkUya/y+yspJNfjuTxf9S1kM+3/x/lYEc+Dzr4Q+JMdpsrdozECd8jEpkVZjsZgVFRUn/rEjEE2pva0v2ULLGNhlrkt8w6KxpUMR+pIQe2Xfh8kevlRKuI3kV2J+U44cOHRyJdjwuaZzrLACAHGT0lonHT5qyqG6Z6yheBLIAjB8ypF8kL/6mpErXWQAAOW1ZJJ633+TFi+tdB0lWIK8BMHnxv4iTPwDAvapEXsftrkN4EbgVgEnVVWOs7IeucwAAsJU1kT2mLVj6sescyQjeCoC1x7qOAADAZyQS411HSFbgCkDCaKjrDAAAbMsE8NwUuAJgrOU2IgCAr1gpcLdEBq4AWGPmuc4AAMC2IgE8NwWuACSUmGLEw0QAAP5gpHYTsVNc50hW4ArAjJoVtTLmL65zAAAgSdbaP0+et7zOdY5kBa4ASFJRS+JyybzmOgcAINfZVzfH865wncKLqOsAXnzU2Ngxqqj0YZsf6WekvRXA5xkAAAItIZk7i1vtt6YvW9bqOowXgT9xTho5ZLS18ZNktaesendtK2uM0W7Wqo+MiiTjrghZ5UkqMEYRBeO/h5VV3ErtMupwHQb+Yra8vilmpY2S6mX5M5IetsTIVFijbpLys3lgY9RmrdlglGiw1nD9ldFaGX1oTPSxKfOXzHUdBwAAAAAAAAAAAAAAAAAAAAAAAAAAAAAAAAAAAAAAAAAAAAAAAAAAAAAAAAAAAAAAAAAAAAAAAAAAAAAAAAAAAAAAAAAAAAAAAAAAAAAAAAAAAAAAAAAAAAAAAAAAAAAAAAAAAAAAAAAAAAAAAAAAAAAAAAAAAAAAAAAAAAAAAAAAAAAAAAAAAAAAAAAAAAAAAAAAAAAAAAAAAAAAAAAAAAAAAAAAAAAAAAAAAAAAAAAAAAAAAAAAAAAAAAAAAAAAAAAAAAAAAAAAAADS5f8DxfH6GzVr8+QAAAAASUVORK5CYII=;" vertex="1" parent="1">
          <mxGeometry x="910" y="230" width="150" height="150" as="geometry" />
        </mxCell>
        <mxCell id="Kjv4vyTBPtws4vWYZQJM-3" value="" style="shape=image;verticalLabelPosition=bottom;labelBackgroundColor=default;verticalAlign=top;aspect=fixed;imageAspect=0;image=data:image/png,iVBORw0KGgoAAAANSUhEUgAAAgAAAAIACAYAAAD0eNT6AAAABHNCSVQICAgIfAhkiAAAAAlwSFlzAAAOxAAADsQBlSsOGwAAABl0RVh0U29mdHdhcmUAd3d3Lmlua3NjYXBlLm9yZ5vuPBoAACAASURBVHic7d13mGRVnf/x962qrs65q8NM9+Q8BAEBBSQaQFTEiKuga151V91dRV13dVd3TWtgXdn96UYFA2JYMSIIKEGRJCgCMjNMZKZ7Qs90TlW/Py48Ksx0OOdU3XPv/byepx59Huac+k5PdZ3vPeF7QETSZDnwCeA+YPix173Ax4Fl0YUlIiIi5RAA7wEmgNIRXuPAu6MKUERERNz7JEce+J/4+kREMYqIiIhDFzL/wf/x1wWRRCoiIiJOBMADLDwBuP+xtiIiIhJDT2Xhg//jr+MiiFdEKiQTdQAiUlYnWLR9qrMoRMQ7SgBEkq1g0bbLWRQi4h0lACLJlouorYh4TgmAiIhICikBEBERSSElACIiIimkBEBERCSFlACIiIikkBIAERGRFFICICIikkJKAERERFJICYCIiEgKKQEQERFJISUAIiIiKaQEQEREJIWUAIiIiKSQEgAREZEUUgIgIiKSQkoAREREUkgJgIiISAopARAREUkhJQAiIiIppARAREQkhZQAiIiIpJASABERkRRSAiAiIpJCSgBERERSSAmAiIhICikBEEm2KYu2k86iEBHvKAEQSbbdFm0fdRaFiIjIPPQA/wjcCQwBo8Bvgc8C6yOMK47WASXD15oI4o2zDcC/Ag8CY4Sf3TuBDwPdEcYlIhILrwdGOPKgNA18BMhGFWAM/YKFD/63RRJpPGWBjxF+No/08xwGXhdVgCIivvtr5j9AXQ1URRNm7JzO7IPT4ZKsUyOJNH6qCD+L8/3Z/lU0YYqI+OsZwAwLe0r9BkoC5usvgCJz/0yLwNsiijFuqgg/gwv5zE4Dp0QRrIiIr36K2Tq1koD5exmwhyP/LHcDL4ksungxGfwff90UQbwiIl7qY35Pp0d6fReornjU8dQIvBn4NnDvY69vAW8CGiKMK06ywFcw/7wWgd6KRy0i4qELMf8y1UyAVNJC1/yP9Lqg0oGLPJHqAIgP2hz08SLgqygJkPKpInzyf7GDvlx85kVEYs/FDIBmAqScqoCv4+5z+oLKhi8i4qdF2O0BUBIg5ZQFvoy7z2eR8DMvIiKEO6NdfcEqCRBXcsBVuP1s/qSifwMREc+dysKK1SgJkHIrx+A/DTy9kn8JEZE4eBduv2yVBIipcgz+JcJqlyIichh/j5IAiVYWuBL3n8OPVfIvISISR0oCJCrlGvw/Xsm/hIhInCkJkErT4C8i4gklAVIpWeAKNPiLiHhDSYCUmwZ/ERFPKQmQctHgLyLiOSUB4lq5Bv9PVPIvISKSBkoCxBUN/iIiMfMh3H9pf6mifwPxwX/i/nP0TxX9G4iIpFA5koA3V/RvIFF6Pe4/Px+p6N9AxIEg6gBEDH0IeL/D/vYAy4Exh336oB3oeux/24EOIAPUAjWP/ZkxYByYAfY99tpL+DPZX+F4y60a2AL0OOzzo8B7HfYnIiJzcL0n4HmVDd+ZKuAo4BWET6LfBn4FHML+Z3Lwsb6+RTjFfRGwkbBWfhydi9vPjNb8RUQi4nI54B8qHLupeuB84B+BG4ER3E9pz/UaBm4g/Pmf91hMcfC3uPsZfLTCsYuIyBO4SgI+V+nAF2Al8JfAjwmn6ys94M/1GgOuBd4JrCjTz8CFT6PBX0QkUVwkAR+qeNSzWwK8G7iD6Af4hb5uJ7z6ts/5T8XO32H/d9OtfiIinrHdE/D8yof8JFngmYR30U8R/UBu+5ohnLV4KX7UWzgPu7/PP1c+ZBERmQ/TmYABoC6CeB/XRriTfBd2A5TPr53ApUCLo5+ZiRpgN2bx68lfRMRzJknAn0cSKSwG/oVwU13UA3SlXkOEa/Euj+ItxJvnEeMTX6rtLyISE//A/L/cr6LyNTE6CDeSjS4gzqS9JoD/B3Rb/iwXKmBhZYD15C8iEjOvY/YjcjPAp6jsmfZawqNoaXrin+s1BLyP3xcmqoQs4VP9zCxxjQBvqmBMIiLiUA/hefl7CL/QJ4CHgX8Hjq5wLC8HthL9gOvrazPwYuOfrpmNwOXA7wg/G6OEhY8+AiyqcCwiIpIwiwgr6UU9wMbl9T3CI5AiIiKxFABvxU1J3rS9DhJu1tN9JSIiEiudwDVEP5DG/fUjojstICIisiDnA/1EP3gm5bUbeM6C/gVEZE6aXhNxJwN8gHCXvze/W60NeZZ01dPSUEVDTY76mhxN9VU01oWF+YZGpzg0MsXI+DTD49MMDk+xbc8IB4YnI478jxSBDwIfJkwKRMSSN19SIjHXAlwJPDeqAOprcjx9QwfHrGxhbW8ja/qaWNvXRKG52qi//sFxHtw+xO92HOLBHUPcu2mQW38zwOjEjOPIF+Qa4FWE+ypExIISABF7ywh3rm+o5JvmsgHHrGjlnOO7OOe4bk47ukB1Vaas7zk9U+LezQe4/q49XH/3bm759V7GJyueEPyGcJlla6XfWCRJlACI2DkR+A4VqmaXCQLOOq6TV56znAtP66WhtpI1jJ5seGyab968nSuve4Qb7+mnWKrY7PyjwPOAuyr1hiJJowRAxNxZhIN/Q7nfaN2SJi5+5nL+5JlL6e2I8s6iI9s+MMpXrt/Kl67bwgPbKjJDP0R4g+NNlXgzkaRRAiBi5jzgG4Slfcvm6Rs6ePdF6zn/5MUEMfptvf6uPXzwi/fx8/v3lvutRgmrB/6w3G8kkjQx+koR8cbzgauBfLne4Jzju3jvKzZyxrGd5XqLirjhnj185Mv3c8M9e8r5NhOEScD3yvkmIkmjBEBkYZ5FOO1flotrTljTxmfecjxP29BRju4jc+tv9vKOz93J3Q8fKNdbjBNuDPxJud5AJGmUAIjM32mElemcL8K3NOT50J8ewxvOX0k2k8xfy5liiX//zu/4wP/ex8GRqXK8xTDwbOC2cnQukjTJ/KYRcW8dcCvQ6rrjl567hs++/2y62mopTU5SGpugND5Baaosg2Tkdu8f573/cQ9XXv8IZTg0sA84BXjIec8iCaMEQGRunYRPlStcdtrRWssXP3ou552+/PB/YGaG4vjEYwnBOOUYLaP0vV/s4nWf+AX7Dk247vph4OlA2XcgisSZEgCR2VUDNxAOKM4844TFfOWT57O4a54nCItFiqNjlEZGKU0mZ2Zg+8Aor/zHW7nN/WmBm4GzgeT8sEQcy0YdgIjnPge80FVnQQB/cfFxXPmJ59LStIASvUFAkM+TaagnqKslCAJK09OxnxVorq/i4mctJ5MJuPm+AZdF/pcQLtf8wF2XIsmiGQCRI3st8J+uOquvreJrnz6f889wtJJQKlEcGqE4NAzFops+I/SdW3dy8UdudX3XwMXAFS47FEkKJQAih7cBuANHhX5am2q45t9eyKnHL3LR3R8rlSgOj1A8FP9E4JcP7uMF7/8pew862xcwCpwAPOCqQ5GkUAIg8mTVwC+AY110tqizgR9+4UUcvabMZ/tLJYqHhsMZgRgvDfx26yHOf9+NbB8YddXlXYR7OLy631gkatoDIPJkHwMudNHR+pVt3PSll7F6qfPTg08WBAQ11WTq6yhNTcN0pNf2Giu0VHPhM/r40S8fdXVCoIcwqbvORWciSaEZAJE/djJwCw6S4xV9zdx85UX0FOrtozJQGptg5sAgzMQzEegfHOeMd17PwzuHXHRXJCzkpCJBIo9RAiDye3nC6eKNth0V2mr52RUXsXZ5BZ78Z1MqUTx4iOLwCC632FfK5l3DnP7O69hzYNxFd/cR7gfQ0UARtAQg8of+FnipbSdNDXmu+6+Xln/Nfz6CgKCmhqCqitL4ROz2BrQ25jnj2E6+dsNWJqetNzh2Ed4Z8DP7yETiTzMAIqFlwG+xvOSnOp/lB59/EWed3OckKKdmZpjZe4DSZPz2wl1/1x5e8P6bXCQBo8BaYId9VCLxphkAkdAXgGNsO7nsfWfxsvPWOginDDIZMvW1MFOM3T0DK3oaaKzNce0du227qgK6gW/aRyUSb0oAROAZwCdsO3nJc9bwiXed7iCcMgoCgtoayGbDJYEYOWldB/duHuTB7YdsuzqK8FZHzQJIqmkJQARuBM6w6WDlkhbuvPqVNDcuoLxvxEpj48zsOxCrfQGDw5Oc+JYf8cjuEduufgKc4yAkkdjKRB2ASMSeg+XgX5XLcMXHz4vV4A8Q1NaQLbRDJj7PAS0Neb7yN6eSz1l/dZ0NnOUgJJHY0hKApN2VQK9NBx9++6m84vx1jsKprCCXJaipoTQWn+uGF3WE1Zlv/FW/bVcrgf+27UQkruKT+ou4dxbhVLCxNctauff/LqE6H+9cujQ1zUz/PijGo2jQ5HSR4974Ax7aYV0k6BmEVweLpI6WACTN/sq2g3/7wDmxH/wBgqoc2c52yMTjKyGfy3DZ205w0ZX1Z0AkruLx2y7i3nrguTYd/Mnz1nH205Y4Cid6QVWObHsrBPGYGHzm8d285HTregsvANY4CEckdpQASFq9GYslsKaGPJ+81GrvoJeCmmqyrc1RhzFvn3jzcTTU5my6yBB+FkRSRwmApFEt8CqbDv78VcfR3RHNJT/lFtTXkWlujDqMeentqONNz1tl280lhLcFiqSKEgBJo5cCbaaN62pyvP3i4x2G459MUyNBXW3UYczLO1+yjtpqq30Y7Ti6/lkkTpQASBpdbNP4TS8/lkJbPAZHG9nWZoKc1fR6RXS11vCn566w7ebVLmIRiZN47PYRcacA7AKMRrbqfJZN176OxV0NbqPyVGlyMjwe6HmNgO0Do6x79XdtLguaBhYBA+6iEvGbZgAkbV6C4eAPcMkFG1Iz+AME+TyZZv//vn2FOv7knGU2XeSAF7qJRiQelABI2rzYpvEbXnq0qzhiI9PQSFDj/x651z93pW0XVp8NkbhRAiBp0gCcZtp4zbJWTjy622E4MRFAtq3F+/oAJ69vZ02v1emFM4A6R+GIeE8JgKTJM7E47vWaCzc6DCVmslkyTf4vBbzi7GU2zWuAM50EIhIDSgAkTc41bZjJBLzqBetdxhI7mcYG708FvOpZy2wnKow/IyJxowRA0uR004ZnntRHX3c8iuOUTRCQ8bxK4LKuek47qmDTRfLKO4ocgRIASYt2wPjO3ueevtxhKPEV1FQT1Pq9IfC8kxbZND8KaHUUiojXlABIWpyCRd2Ls59mfelMYmSam72uIHLWU7psmmeApzkKRcRrSgAkLU40bdjeUsOxa62mlRMlqMoR1NREHcYRHbe6lZaGvE0XJ7mKRcRnSgAkLY4xbXjmSX1kMh4/8kYg0+TvfohsJuD0Y6wStvQVe5BUUgIgaWGcAJx1sqb/nyjIV3ldHOjMY62WAYw/KyJxogRA0qABWGba+GnH9riLJEEyjf7WBXjahnab5itRQSBJASUAkgYrMdy2FgSwdrnxzcGJFtRUE1RXRR3GYa3pbbJpnsEiYRSJCyUAkgbLTBsu7mqkoc7PQc4HQX191CEcVnN9Fd1tVhsVlzkKRcRbfpf1kijUAJW87H4cGCvzexgf4l+7TEfCZ5Opq6U4eAiKxtfwls2a3iZ27x83bV6Jwg+1hL9vlVKJ3zWJESUAAmGBnL8Ezie8E73S9gDfBz4N3FeG/hebNly7XAnArIKATG0NxZHRqCN5krV9Tfz03n7T5uXa+Xks8A7gPMBqp6KhR4HvEf6u3R/B+4tHtASQbgHwfsJB9w1EM/hD+EX4p8A9wD/h/nPZYdpwjWYA5hTUVXLCaP4sbwY0/swcQQb4KHAX8BqiGfwBeoDXA/cCH8Trkk5SbkoA0u2jwIfwZyYoA7wX+FfH/Rp/mbe3+Dm4+SSoqYaMf18lbY1WxYCsjhEcxuXApfjznZsFPgB8MupAJDq+fBil8s4F3h11EEfwZ8BLHPZnvI2/oV4bAOfDx8qAjXabN13OALwMeJPD/lx6J/C8qIOQaCgBSK8PRR3AHD7ssC/jrepN9VZPkamR8fCCoMY6q4ktV3UAAtL1uyYxogQgnVYAT406iDmsJdww5YLxKN5QpwRgPoKaau9WkxtrrWYAXP3DPwVY46ivcjmW8PdNUkYJQDo9JeoA5slVnMZf5o2aAZifTIYg59dyieUMgKspjbT9rkmMKAFIp+aoA5gnV1vws6YNa6qNm6ZOUO1XslSbt/q3c7UxNm2/axIjSgDSaSDqAObJ+BD3E0yZNpyc8q/Aja98SwDGJ63+7SYchZG23zWJESUA6XQ7MBN1EPNwm6N+jMvBjY4b5w7pk/crARidmLZpbvyZeYJbHPVTTiXgF1EHIZWnBCCd+oFrow5iDjcDWxz1Zfw0NzZuNYikSpDLelUPYHTCKsd1lQA8AtzqqK9yuR7YGXUQUnn+/LZKpb0XmIw6iCOYxm2NAuP65yNjmgFYiCDnS00pGLVL3lwlABB+ln2dcZsC3hN1EBINJQDp9SvgzYBvi9wlwuIkrqb/AfaaNtyz178a9z4L8v4kAHsOWI3hLtfubwH+ivCz7ZMS8FbgzqgDkWgoAUi3/wYuBHZHHchj9gIX4b4UsPHfb9ujh1zGkXwZfxKA7QNWydseV3E85jLgT4B9jvs11Q+8GPhC1IFIdPz5bZWofAf4CXAJYUnQ5VT2opIBwrX+7wP/Cxwsw3sYf5lv3z3kMo7EC3L+HJv0LAEA+CrwA8LLgJ4LLAMKZXifI+kn/F37HuHvmj7cKacEQACGCS8ruTzqQMrEPAF4dNhlHMnnUQKw0y4BKNexuIOEswGXlal/kXnTEoCkwWbThg89csBlHMnn0SmAh3ZaPeAaf2ZE4sKf31aR8vmdacOHtx3g4JCrmjDJF3iSAAwOT7LFbvbmQVexiPjKj99WkfLaiuGxrlIJ7n3I+BBB+niSANyzaZCS+Z77EWCHu2hE/OTHb6tIeRWBh00b332/qqTOWwAE0V8L+KtNVks3v8O/I3sizikBkLT4lWnDX9z7qMs4ks+DBOD231qdtjP+rIjEiRIASYtfmja89patFIt6IIyLYqnEDfdYneK73VUsIj5TAiBpYfylvvfAGPc8EJdL3eSuhw4wcNBq46YSAEkFJQCSFndjcffBtbc84i6SpLPYfefCj++0Kmw5AdznKBQRrykBkLQYx2IZ4Hs3ubqYMAUiXi354S932TT/BRa3R4rEiRIASZPrTBvectdOtuwoR5XihCmViDID2LpnhNvutzq26fs12SLOKAGQNDH+ci+V4Cvfe8BlLMlUjPZyySuue8R2BUIJgKSGEgBJk18AxgfEr7jmtw5DSaZSxAnAl69/xKb5AeAuN5GI+E8JgKTJDPBD08a/3bRfNQHmEmECcOtv9vLQDqv6/9cQfkZEUkEJgKTNVTaNP/U/d7qKI5FK09GNn5++2nqJxuqzIRI3SgAkbX5AeCWrkW9c+zs2bRt0GE7CRJQAPLJ7hGtu22nTxSDwY0fhiMSCEgBJmwnCqV4jMzMlPnvlPQ7DSZbS9HQk7/upqx9gxq5a47ewqBMhEkdKACSNvmjT+D+vvo89+0ZdxZIsU5VPAHbvH+eL11rXafiSi1hE4kQJgKTRdYQ3vhkZHp3iHz53m8NwEqJUimQG4O+/eB8j41bv+yBwo5toROJDCYCkUQn4T5sOPn/Vffx2035H4SRDaXq64mWAH9x+iP/50Wbbbj5P5PULRSpPCYCk1X9jUfJ1eqbI+y+7xWE48VeanKr4e773P37F9IzV2D0O/K+jcERiRQmApFU/cIVNB9/88e/44c8ecRNNApTGK7uH7ge377Ld+Q/h4L/PQTgisRNEHYBIhFYSrv9mTTtY0tPIr695NY31eXdRxdT0o3sqdgzw0OgUT3nDD9g+YLUZcwZYj8V+EJE40wyApNkm4Bs2HWx7dIj3fPJnjsKJr9L0dEVrALznC7+yHfwBvo4Gf0mxXNQBVFgLsApYDDQBtRV4zxKwB9gM/LoC73c43cBxQBegR9U/ZnV5PMC/f+1e+noaaWuucRFPLJUmJimNjlXkvfYdmuA/vv+wi676gTe66EhibQw4BOwkTAhTc+1n0pcAWoDnA88GTgOWRRpN+MT5EcINaJUomn4q8GHgdDTbIyIyH1uAW4AfERYNS01CkBSnA18j3OVd8vB1DdBQtr996FLCNc6o/6566aWXXnF9TQBfJXyAFM+dCvyU6D8083n9H+V7Kn+LB38/vfTSS68kvW4Ank6CGO9+9kw7cDlwGbA04ljmay3hksC9jvvtA75L+vZ3iIiU0zLgtUAvcDNhDYlYS8K68CnAPcBriN+ehveUoc+3A+ndjSYiUj4B8HrCMedpEcdiLe4JwGsIa3j3RhuGsQ2EZ9Fdep7j/kRE5I8tAW4CLok6EBtxTgAuBf4LqIo6EEurHPaVAVY47E9ERA4vD/wP8JcRx2EsblPmj3s78Jmog3DhbZ+8avdJz3mpk7tlZ6angtceV7O8VKrECUMRESHcIPg2wn1osRLHjWIXAJ+KOghXupat6S456iuTq6K50M1g/y5HPYqIyBwC4LPAI8D3ow1lYeK2BLAa+CLxi/uwmtu76Ft9tNM+j3r6s5z2JyIic8oAVxKzJdg4DaRZwpu7mqIOxJWzX/5nBBm3/wRnv/zPCIK4ruyIiMRWC+GegNiMq3GqA/A2ElS3u2f5Ol7/j/9Nrsptaf62rl4O9O/kkfvvctqviIjMaSnhHRO/jDqQ+YhLAtAGfJPKXN5Tdh2Ll/HX//Z9Wgo9Zen/6FOfw7YH7mH31ofK0r+IiBzRycAXiEGhoLgkAO8DnhN1ELaCTIbTXnAJb/vU1bR195XtfTLZLCef93Kqa+vZ8us7mJr0/nMoIpIUdYSD/01RBzKXOCwW1wNbCcv9OrF41UY6+1bS3NHtqstZVdfU0bN8Hcee/tyyDvyHMz4yxL03/5CtD9zN8OC+ir43wE1Xf4FSyeycw0nPeRl1TS2OI0qXR35zJ4/cf6dR22UbTmDZxhMcR2RvqlRiuBiPo67jQwd58MdXmzUOAo698LVuA5InGdm3hwPbN7Fv829ddjtAuBxQmTuyDcUhAXg14cYKK1XVNTzzFW/lnFe8lcLi5fZRyZwO7e/nz0/vMm7/7z8fpLah2WFE6fOtyz/Ity//e6O2L3zLB7jwLR90G5Ajj0xNMRyDehcTwwf5F4vfgbdev4O61g6HEcmRDO7cwt1f+3fuuer/Me1m1vRi4AoXHZVLHHYrXmzbQe/qo/nwN37FRX/9zxr8K6h/+ybjto2tHRr85Yh6crlYPL1UNzRT22I+eTlo8TskC9OyeDln/eXHePVXb6dj1UYXXVqPXeXmewLQApxh08GSdU/hb774U7qXrXEUkszXnm0PG7ftXOKyQrIkTXUQ0J6Nxxamll7zo+GDOzY7jETmo23ZGl753zfQvcF6+etswOunGN8TgDOxqFbY3NHNu79wLXWNWkeOwsB28y+vzj7XdyRJ0nRmclTFoOZFi8VnWTMA0cjXN/Hif/k29e2dNt3ksHyALTffE4BTbRq/+m8vp7G14CoWWSCbGYAuJQAyh0wAnTGYBWi1SQA0AxCZurYC57z707bdnOYilnLxPQE4xrThsg3Hc/zZL3QZiyyQzR4AzQDIfLRkstR6PgtgswRwQDMAkVr7zBfRucZ4GAKLMawSfE8AjjVteNoFr1FJ3IhpD4CUWwB0Z/2+08wmATi4c4vDSGTBgoCjXmC1l08JgKFOwPj8zFGn6FKcKI0NH2LowIBxe80AyHzVZzLUO75Tw6WWPvMEYGRfP5MjQw6jkYVaZnfBWg/g7Tq0v781Fk//+epaupaudhmLLJDN9H9NXQPN7eZnpyV9urP+Hgusb+8iX9do3F77AKLVtnQ1uWqrKvTezgL4nAAY/9AWrz6KTMb/zUFJpvV/qaTaIKDR41mA5sXLjNsqAYhWkMnSvmK9TRdKAAwcbdpwid2mDXFA6/9SaZ0e7wXQSYB461x9lE1z47Gs3HxOAIxH8d413v68U0MzAFJpNUFAi6ezADb7AAYt6mmIGwW7McXbJ1I/f1vCAgrGcy59mgGInE0CoBoAYqrT070AOgoYb4XVVgnAUVgUtCsnXxOAtUCNaeNeu38sccBqBkBLAGIoHwQ0eTgLoHLA8WaZAFQDXu5K9+83JWT8CN/auZhG3Z4VqenJCfbv2WHcXksAYqPg4SyATTngoT07mJmccBiNLFRtSzsNhR6bLryclvY1ATBOt/rWevlzTpWBnVsoGd7XnstX09bd6zgiSZOaIKA+8Ourram7l2xV3qhtqVjk4K6tjiOShbKcBfByWtqv35LfMx7Ftf4fPZsTAIVFy3SEU6x15Pz6DAWZLE2Llhq31zJA9CwTAC8HpuQlAFr/j5zd+r+m/8VeQ5ChNuPXQoDVPgBtBIxcwe4ooBKAeWoBjOeAtQQQPbsjgNoAKG50ZPzaeG1TC+CAZgAiZ5kALCEc27ziYwJwLJjt4clV5elettZxOLJQVkcANQMgjjRlMuQ92g6okwDx1r58nfE+DsIxzbvpaR8TAONH+EUr1pMz/wcSR6yqAOoEgDgSAG1Zf/YC2BUD0hJA1DK5KtrsHjC9m572MQEwPwGgDYCRKxWL7LXYsawaAOJSSybjzRyA1bXAu7ZSKs44jEZMWC4DaAZgHlQCOMb2PbqNacMzy0EmQ2HRMrcBSarlPCoM1LJ4OYFhLDOTEwzt2ek4IlmopG0E9OM34/cywEbTxpoBiJ7N+n97dx+5fLXDaESgzZNjpdl8NY2di43bax9A9BwcBfRqzPUqGGAl0GDaWAlA9LT+L76py2TIB34sBOhSoHizTADqgeWOQnHCtwTAeARvbO2gxa5UozigWwDFNwHQ6sksgE4CxFtDoYc6u1LzXj2l+pYAWJQAPtZlHGJICYD4qNWTzYC6FTD+OlYlZx+AbwmASgDHnF0NAJ0AkPLIBQGNHmwGtLkUSDMAfkjSnQDR/0b8MZUAjrl+iy8pzQBIObV4sAzQqnLAsZekhXolqQAAIABJREFUkwA+JQANWGyQUAng6B3ct4fxkSHj9gWLL0eRuTQGGbIRrwPYbAKcHB1mdP+Aw2jEhGUCYLXR3TWfEoCjMYwnk8myaOUGx+HIQvVbnABoauuktqHJYTQifywIwkuCopSvb7LaRKZlgOh1rNxAYD6bZHXU3TWfEgDjR/juZWvIV9e6jEUMaP1ffNfswTKAzT4AbQSMXq66lla77ytvpqt9SgBUAjjmdAJAfNeYyRB1CqCjgPGXlI2APiUAKgEcc3uUAIjnAqKfBbA6CaAZAC8UVlvN4nvzxOpLAmB1VaJmAPxgswegU9cAS4U0ZaP92rOaAVAC4AXLGQDjK+9d8yUBWAK0mDZWAuAHqz0AfdoDIJVRH2Qi/eJrVS2A2LNMAFqAXkehWPElATAewWsbmmnvWeIyFjEwNnyIoQN7jdtrBkAqJQAaIiwKZDMDMHpgLxPDBx1GIyaae5ZQ3Wj8zAqeLAPEPgFYsvYYAk8u+kgzm0uAahuaaGwtOIxGZHZRJgB1bQXy9eZHXg/u2OIwGjESBBTsjp4rAfgDWv+POZ0AkDhpjPhugJZe80vhDmgZwAsFu83nXuxc9yUBML7Jp1clgL1gswFQNQCk0qoIqI5w5tBqH4A2AnohCZcC+ZAA1AKrTRurBLAfNAMgcRPXfQDaCOgHy42Aa4EaR6EY8yEB2AhmtTmCIGDxSm+qKqaaagBI3ER5O6ASgPgrrNoY1pc2kwPWOwzHOIioGc+jtHX3USzOMHLogMt4xIDNEkBja0H/hmUyNTFu1TbJ/y4lYGpqgplS5d+7rs180+uBbQ8znuB/lzhp6url0O7tps2PAe52GM6C+bB9/tPAO6IOQkREpII+Cfx1lAH4sASgRXwREUmbyMc+H2YA+gEdAhcRkTQZADqjDCDqGYBFaPAXEZH0KQBdUQYQdQIQ+RSIiIhIRCIdA6NOAKwqKYiIiMRYqhMAzQCIiEhapToBMC4BLCIiEnOR1rKP8hRAFTAM5COMQUREJCoTQCMwFcWbRzkDsB4N/iIikl7VwJqo3jzKBEDr/yIiknaRjYVRJgC6x1dERNIusrFQMwAiIiLRiWwzvBIAERGR6EQ2FkZ1CqAd2GvauK6xhcD8HmZxyOa62NqGZjIR3smeBpMTY8ZXAldV15CvrnUckb9mInjPUrHIxPBB4/Y1Ta0OoxFTpVKJiaFBmy7agf2Owpm3XKXf8DHGUx65fDX/+rN+srkql/GIgcGBR3n7WYuM23/mJzuoqWtwGJE80bcu/yDfvvzvjdqe/7pLufAtH3QbkMcemZ5iuFis6HtOjg5z2Wkdxu1f+417qG+PtJy8AMWZaT5zajszkxOmXRwD3OguovmJ6vHLeMqjd9VGDf6e2LPtYeO2LYUeDf7ilXwEs4r5ugbq280vhDuwfZPDaMRUJpujffk6my4iWQaIKgEw3vXYt0ZbB3zRb/Hl09m30mEkIvaqIloRbeldYdx2cPtmh5GIjcJqq6ttIjkJEL8ZgNU6PegLJQCSJFHMAIBlArBDCYAvCqusEoDUzABkgQ2mjTUD4A8lAJIkUS0sKgFIhoLdw+lRRDAeR5EArAbqTBv3rVUC4AubPQBdS1Y5jETEXj4T0QyARTI8qD0A3iissUoA6oCKfylGkQAYj+DNHd00tZlvmBG3NAMgSZIjiOQLUQlAMtS3d1HXVrDpouJPt1F83rUBMAFGhwYZOWh+bFUzAOKjKPYBtFokAGMH9zNuUYtD3LJcBqj4BrdYzQAoAfCHzfR/XWML9c1tDqMRcSMbwUmA2pZ2qhuajdsf3LnFYTRiwzIBSMUMgEUCoBMAvtD6vyRRNqICozYbAVULwB9KAGbXBCw1bawZAH9o/V+SKBfVUcA+1QJIgk67WgDLCcfIiql0AnAMhvcPZLM5Fq1Y7zgcMaUEQJIoqtroOgqYDO0r1pMxr1QbEB4HrJgoEgAjPSvWkctXu4xFLFglAEuUAIifotgDAEoAkiKbr6Zt6WqbLio6zV3pBEAnABLCag9An/YAiJ+i2gNgcxJAewD8EqeTALGZAVAJYH9MToxxcOBR4/aaARBfRTYDYLEHYHjgUaYnxhxGIzY6Vm20aZ7YGQCr9Q3NAPijf9smSqWSUdt8dS0tBfMrhEXKKao9AI2di8lV15o1LpUY3KGjgL7otD8JULEstJIJgNUOR5UA9ofN+n+hbwVBRDutReYS2WczCGheZHxASvsAPGJZEtjqpNxCVTIBMB7B65vbaOvqdRmLWFANAEmqKFNTlQROhsauXmrtCp1V7Gk3FgmApv/9oiOAklSRJgA6CZAYcdkHUMkEQCcAEkIJgCRVlKtTKgaUHHE5CRCTGQCdAPCJEgBJqihnAFo1A5AYhVVW9XwSNwNQCxh/82sGwB8zM9Pse3SbcXvtARCfZSJMAWz2ABzctZXi9JTDaMSG5UbA1UCdo1BmVakE4Ggga9IwyGRYbLeeIg7t27WVGcMvmmw2R3vPEscRiSRD86KlBBmjr0mKM9Mc2rPDcURiqmPlBoKM8fCaBTY4DOeIKpUAGD/Cdy1ZRXVtvctYxILNCYD2RUvJmtfJFim7KJcAMrkqmnr6jNsPbtNJAF9U1dZbbeqkQssAlZwBMKLpf79o/V8Szay+lTM6CZAccdgI6P0MgEoA+8UmAdD6v/iuGPH729wJoATAL4UYHAXUDIAsiM0SgGYAxHeliKcAbGYAdCmQXyw3Ah7rKo7ZVCIB6AXaTRsvUQlgr2gJQKR8rGoBaAbAK5ZLAO1A2S9NqUQCYDyC19Q30rF4uctYxEKpVGLA4tIRJQDiu6iXAGxmAA7u2AKGl3SJey2Ll5OvN77+BiqwDOB1AtC3+mhdHOORwYFdTI6PGrUNgoBOi6cbkTRo6VtpXI5wanyU4b27HUckxoKAjpXrbXpIRAKg9f+E6Lc4ZtRc6CFfU5HaFiLGop4BqKqpo76t07i9lgH84vtJAK9nAHpVAtgre7brFkBJthkPptBtTgJoI6BfCqv9Lglc7gSgGlhr2lgzAH6xmQHQ+r/EQdQzAKBLgZLEcgZgPZB3FMphlTsBWA8YlX4LgoBeu+xJHNMJAEm6magrAaFiQElSWH2UzRWTVcA6h+E8SbkTAONH+PZFS6lrbHEZi1iyqQGgJQCJg+nox3+rS4EGtQTgleqGZpq6zcs7U+ZlgHInANoAmCADFk8XmgGQOCjGfAZAewD84/NGQG9nAJQA+GV4cB8jhw4Yt1cCIHEwE3UA2M0ATAwNMn5wv8NoxJZlAhDrGQCrGgDiD5v1//rmNuqbWh1GI1IePpwCqG1uo8bi90X7APxSWO3vnQDlTAAKQLdp4z6VAPaKNgBKGkxFHcBjmi0qoCoB8IvlDMAiwrG0LMqZABhfZpCvrqVr6WqXsYglbQCUNJgqRj8DAKoFkCRtS1eTq6616aJs0+HlTACMH+EXr9pIJpN1GYtY0gyAJF0JmPJgEyDoUqAkCTJZ2lf4WRK4nAmATgAkiBIASbqZyC8D/j2rWgAqBuSdTruaNumaAVAJYP9oCUCSbsqX0R8tASRNh6clgct11V4OGAJqTBoXeldo17hntv72LkqGO6QXr9pIVd7ooyCWBgd2MTjwqFHblkIPLYWyX0nujRlg0oNTAAAzk+Ps3XS/WeMgoGvdcW4DEisThw4wuNP4KvUxoJEynFItVwKwAfhNmfoWERFJk/XAA647LdcSgBbxRURE3CjLmFquBECL+CIiIm6UZUzVDICIiIjfYjUDoARARETEjbKMqeXYBNgC7C9T3yIiImlTAtqAQZedlmMG4Bg0+IuIiLgSAFbFBA6nXAmAiIiIuON8bFUCICIi4j/nJwGUAIiIiPjP+djqeq0+AxwEGhz3KyIikmZDQDO4u7PK9QzASjT4i4iIuNYILHfZoesEQNP/IiIi5eF0jHWdAKgEsIiISHk4TQByLjvDIgE49fkX8+yL3+4yFrE0OPAon37r843aBkHA315xK9mqKsdRyULc8PXPc+PXP2/U9syXvpGzXvpGxxH5pQRsnp50uKrq1sz0NFe+5gwwvKb4RZd9k4aObsdRiY07rvws93//K6bNvU4AjjVtuP6ks1i24QSXsYilB355o3Hb1s7FrDz2ae6CESMthR6rtkn/nRwpFhmZnoo6jFk1FHoY7t9l1DZf10jX+uMdRyQ2ljz1DG8SAJdLAPVYbFDoW6vtA77Zs32TcdvOvpUOIxEpj5FSMeoQ5tTSu8K47eCOzQ4jERcKq60K+jndaO8yATjGtL9MJsuilRschiIu9CsBkIQbMZxar6RWJQCJ0rFqI0Ema9o8A2x0FYvrBMBI97I15KtrHYYiLvRvs0gAligBEL+VgNFiDGYA+iwSgO1KAHyTq66l1e770dl0ucsEwHgDYN8aTf/7qH/7w8Ztu/pWOYxExL2RYtHXvX9/pMViNu2AxSyelE9htdWBOWen7byYAehdo9ODPuq3eHrQDID4bjgG6/+gPQBJVFhlNYvv3QxAgGYAEmXowF5Gh8yvntYeAPHdSAym/wFaLX6XJoYGGTu432E04oLlDIB3CcASoMW0sRIA/9hsAGxoaaeu0fjjIFJ206US4zHYAAhQ3dhCTXObcftBLQN4xzIBaAX6XMThKgEwHsFrG5pp71niKAxxpX+bxfr/Eq3/i9+GSvFY/3+czSyAEgD/NC9aSrXdQ5KTp+bIE4Ala48hCFxfSii2VANAkmwoJtP/j9M+gIQJAjpWrrfpwasEQOv/CaMaAJJURWBYCYBEzIeTAJHPAPTa/RCkTGyWAJQAiM+Gi0XiNfzbJQA6CuinwiqrioDezABUA6tNG6sEsJ9sZgC0B0B8dihmT/8ALRbHalUMyE8Fu9nvtUCNbQwuEoCjMLxUKAgCFq90VtVQHBkfHebQ/n7j9poBEF+VgKHiTNRhLJhNOeCRfXuYHBlyGI24UFi1Ecz3v+UAq00E4CYBME5jCr0rqG1ochCCuNS/fRMlwyNSNXUNNLV3OY5IxI2RYpH4Df9Q39FNvs78DpiDux5xF4w4ka9vpGXRMpsurKfPXSQA2gCYMDbr/4XeFTrVId4ajEn1v8NpthgstA/ATwW7KrjWG+ginQHQ+r+fbI4Aav1ffFUCDs3E8fk/ZHMngPYB+CnqioDRzgDoBICXdARQkuhgcSZ2u///kNWtgDoK6KUOuzsBnmL7/rYJQA/QadpYSwB+UgIgSTQ4E+fhX7UAkqjT7iG4AFhtuLJNAIxH8Oraeg0WnlINAEmaKUqMxHj9HywTAO0B8FJL30qqautturB6io4sAehdfRRBxuVtxOLC9NQk+3fvMG6vPQDio8GZeNX+Pxyb+wAO7d7BzNSkw2jEhSCToWPlBpsuIk0AdAIgYQZ2bqFoeE46V5WnrcfJJVUiTh2M4dn/J2rq6SNblTdqWyrOcGjXVscRiQuF1VYVAa3WECKcAdAGQB/1bzOfKuxYvIxMJuswGhF7o6VibK7+nU2QydJkcXOq9gH4KcqSwDYJQA5YZ9pYRwD91L9d6/+SLPtifPTviXQnQPJYHgXcAFSZNrZJANYT3gNgpNcu65Ey2WMxA6D1f/HNdKkUy9r/R2KzD0AzAH6yXAKoBtaYNrZJAIwf4du6+2hoabd4aykXHQGUJNlfnIn95r8/ZFULQMWAvFTT3EZj12KbLozHYpsEQBsAE0gJgCRFCdgf87P/T6RaAMlkuQxg3DiSGQCt//upVCwysHOLcXslAOKTgzMzTCfq+d8yAdi5hVKClkOSJKqSwNEkADoB4KV9u7czPTlh1DbIZCgsXu44IhFz+xJw9O+JmnuXG9dPmZmcYKh/p+OIxIWCXUngiicAbYDxooWWAPxkM/3f1tVLVXWNw2hEzI2Uiowl4OjfE+XyNTQUFhm31z4AP1nOAPQBRpvqTBOAYw3bkctX073MeNOilJHW/yUpBqaT9/T/OF0KlDxty9eSzRsfqgMwOkpgmgAYP8IvXrmBbM742KKUkRIASYLRYpHhmNf9n402AiZPJpujfblxWR0wHJNNEwCdAEigPboESBJgIEGFfw5HlwIlUxQlgSs+A6ASwP6ymQFQESDxwXiplOinf7ArBnRAMwDeiqIksEkCkAWMtyzqCKC/Biy+HDQDID7on0nawb8ns9oDYFHpU8rLciPgURiM5yYJwCqgzqAdoCUAXx3a38/Y8CHj9p0WX0oiLownrOzvkdjMAEyODjF6YK/DaMSVwhqrBKAeWPAHwyQBMB7BG1sLNLd3mTaXMrJZ/29sLVDb0OwwGpGFG5iZjjqEisjXN1FrUUpd+wD8VN/eRV1bwaaLBY/NJgmAcZqydN1TTJtKmWn9X+JsLCVP/4/TpUDJVOmSwBWdAdD6v790BFDibHcK1v7/kM0+AF0L7K9KlwSuaAKgEwD+sjoCuEQJgETnULHISIqe/gFaei1mAJQAeKvSJwEWmgA0AssW+iaP0wZAf2kGQOKoRLjzP21UDCiZCmusEoAVQNNCGiw0ATgaCBbYBoBsNseiFetNmkoFDFjUCFcCIFE5UJxhPIE1/+fSoj0AidS+Yj2ZbM60ecACj+gv9J2MH+HztXV86/IPmjaXMiqVSgwdGDBuf+t3vsTdN3zHYUTiykN33Wzc9je3XcfUxLjDaNwqAfuLM6Rw/Gdi+KBx29EDe7npsr8hCIye5aTMcjV1TI4YH8k+Brhtvn94oZ+Ay4E/W2AbERERKb/PAW+b7x9e6BKAFvFFRET8tKAxeiEzAAEwyAI3GYiIiEhFHARaYX6nYhcyA7AMDf4iIiK+agaWzPcPLyQB0PS/iIiI3+Y9Vi8kAbA6oCgiIiJlV5YEYINBICIiIlI58y64s5AEQFV8RERE/DbvsXq+pwAywCHCO4dFRETET6OEZfvnvCBjvjMAS9DgLyIi4rs6oHc+f3C+CcA681hERESkgua1DDDfBEDr/yIiIvHgNAHQDICIiEg8zGvM1gyAiIhIsswrAZjvdcBrTaN44xvewNKlS02bi4hIAhWLJcbGp6IOw1vbt2/jS1/6H9Pm83pon88xwHZgr2kUmx/exOLFi02bi4hIApVKJfbtH4k6DG/t2rWTE0861qaLDmDfbH9gPksAxtP/DQ0NLFq0yLS5iIgkVBAEZDILuZA2XXp6FlFfb3X6fs6Z+/kkAMYbANeuWUsQ6B9YRESeLJtbSDHadAmCgJUrV9l0MefDe1kTgHXrjLcOiIhIwuUySgBms3rVGpvmc47dZV0CWLtWCYCIiBxeNqsEYDarVq22ae5kBsA4AVi3TuUDRETk8LQEMLuVdgmA9QxADeE9AEbWrtEMgIiIHJ5mAGZnuQSwHKid7Q/M9dNfC2RN3rmqqooVK1aYNBURkRTIBAE6CHBkK1asIJerMm2eAWadQpgrATCe/l+xYgX5fN60uYiIpIBmAY4sl6tiyRLjSXiYYxlgrp+81RFAERGR2WgfwOxWr7ZaBpj1IX6un7zxDgSdABARkbloBmB2lvsAZm0810/euIi/TgCIiMhcsqoFMCvLo4C9s/3HuX7yxkX816yxylpERCQFMkoAZmWZAPTN9h/n+sl3mr5rd1eXaVMREUmJjJYAZtXRUbBpPmvjuX7y870u+Ek6OjpMm4qISEoElKIOwWutrW02zWc9xj9XAmCUmgVBQC5nnDuIiIgIYU0dC1YJwITJO5ZKJXbu3GnSVEREUkTP/7N79NFdNs1nHcPnSgD2mL7rli1bTJuKiEhKFIvFqEPw2rZtW22a757tP5YtAbjme981bSoiIikxM6M5gNlc++Mf2jS3SgAeNH3Xq6++mokJoxUEERFJiekpzQAcyeTkJNdc822bLh6a7T/OlQDcafqu/f39fPRjHzNtLiIiKTA1NRN1CN769Gf+mb1799p0ccds/3Gue5hOAn5h+s5VVVVcf931nHzSSaZdiIhIQs3MFDkwOBp1GF666647uPBFz2d6esqmm5OAXx7pP85nBsB4H8DU1BQXXHABN99yi2kXIiKSUGMTVoNbYt3281t55atebjv472aOWfxZzwgSntBYA5xgGsH4+Dhf+cpXmJiY5KQTT9QVwSIiQqlUYnhY+8T+0OjoKJ/61Me59D1/xdjYmG13VwLXzPYH5loCADgL+IltJADtbW1ccsmrec6zn80pp5xCdXW1i25FRCRmhobHmZiYjjqMyE1OTnL77T/nJzdcx1VXfZUDB/a76voM4Kez/YH5JAAAdwNPsQ7nD9TV1bFh/QY6Ch0UOjqUDIhIItXW1rFoUQ+nnHIqJ514YsUvv9myZQvX/vjHbN++3eXgYmWmWGJqMr2D/8TkJPv27WX/vn08+NADLp72n+gu5jFzP98E4GLgi1bhiIik3Nq1a/nYRz7KeeedV/b32rRpE3/97nfx/e9/v+zvJd55JfDluf7QXHsAHvcb4HlAj01EIiJptm/fPr521VVUVVVx2qmnle19fnbzzZx73nncd999ZXsP8dYdwDuYR5Xl+SYAJeDXwGuZ/6yBiIgcxg033siKFSs45uijnfe9efNmzj33XA4MHnDet3ivBLwE2D6fP7yQxahbgX8xiUhERP7Yu9/9Lg4ePOi830vf8x4N/un1GeDn8/3DC92N8i7CREBERCzsfWw5wKVdu3ZxzXdnPfklyXU78J6FNFhoAjAFXARsW2A7ERF5guuuu85pf9f++MeUSrpcJ4W2EU79Ty6kUc7gjbYDzwRuQpsCRUSMbXlkywwBh5z1t2VzLVDjqj+JhV3AOcxz3f8P2WzoWw98H1hm0YeISJrdDpzssL/3Ax9y2J/4bTNwPvCASWObihS/Jbxo4CaLPkRE0myT4/42O+5P/HUjYfJoNPiDXQIAMAA8izDj1K0OIiIL8z3H/f0ISG+JvXSYBP4BeDZgdVfwfOsAzKYI3AB8m7BccJ+DPkVEkm4L8FZgxmGfY0AvFhe4idduAV4AXEU49lpxWZT6PuAU4Lks4ByiiEgKTQOvB8pxHd7fECYXkhy3AecBpxEW5XOinFX9nkZ4h8BFQFsZ30dEJE7GgD8FvlbG91gLfBdYVcb3kPLaB3wVuIIyPVRXoqxvnjAZOPOx1zFAewXeV0TEJzOEa/7vBe6vwPu1EM4GvAlorMD7iZ29wL2EG+tvIBz0y7q3Lqq6/q3AaqALqAOaI4pDJCqLgb8zaZiva2TxMac7C2RqfIRi0W4Zuv/BO5ieML7S9O+APVYB+K0E7CacxrXatGWomnB5dslj/1/8cBAYJfzs/w6oeP1mXewjEo2jCbP9Batr7eTo57/JWSBjh/YxM2O3cfzhG65iYnjQtPk64EGrAERkwVxuAhQREZGYUAIgIiKSQkoAREREUkgJgEg0jK9s02VvIuKCEgAREZEUUgIgIiKSQkoAREREUkgJgIiISAopARAREUkhJQAi0bDYy69jACJiTwmAiIhICikBEBERSSElACIiIimkBEBERCSFlACIRMN8J5/2AIqIA0oAREREUkgJgIiISAopARAREUkhJQAiIiIppARAJBqqBCgikVICICIikkJKAERERFJICYCIiEgKKQEQERFJISUAIiIiKRREHYBITNQDJwPrHnt1A41AzqK/p5s0zOSqaCz0Gr7tk81MT1GyPFkwtn8PxZlp0+a3AqOGbaeBIeBR4EHgAeAXwIhpMCJpoQRA5MgWAX8CXEA4+FdFG47M0yRhEvB/wJcJkwMREZE5PZ1w8JgmPHSvV3xf08C3CRM4ERGRw9oAXEv0g5Ze5Xn9kHD5RkREBAin9v+RcOo46kFKr/K+JoAPo+UcEZHU6wNuIfqBSa/Kvm4HliMiIqn0VKCf6AcjvaJ57QOehoiIpMrZhMfHoh6E9Ir2dQg4CxERSYUT0eCv1+9fIxjWZBCJM9UBkLRZTrj+2xF1IOKVfuAkYGvUgYhUikoBS5pUAVeiwV+erBO4CshHHYhIpWSjDkCkgj4CXBR1EOKtxYSlna+POhCRStASgKTFRuBudP5bZjcNnADcG3UgIuWmJQBJi8+hwV/mlgM+FXUQIpWgGQBJgzOAG6MOQmLlGcDNUQchUk5KACQNfgg8x0VH+Xye008/nWc/61ksXryYttY2F93KH5ieLjIyOjGvPzs4eIBdu3Zx400/4dZbb2F6espVGD8AnuuqMxEfKQGQpFsKbMZyuauqqorXv/71/M1730ehUHATmRzR0PA4ExPTC2ozMDDAZy77Z6644osuEoEisAzYbtuRiK+UAEjS/S3wDzYddHd38/Wrvs5JJ57oKCSZS7FY4sDgKKVSacFt77rrDl73ukvoH+i3DeN9hCdHRBJJCYAk3R2Eu7qN9PT08LObfkpfX5/DkGQ+hkfGGR9f2CzA43bs2M7zX3Au/f17bEK4HTjZpgMRn+kUgCRZK/AU08bV1dVc/fWva/CPSHW1eU2e3t4+/us/v0hVlVVdnxOAZpsORHymBECS7BQsil29+U1v5qknPNVhOLIQVbkMmYz5JOVxx53Aqy/5U5sQsoSfIZFEUgIgSbbBtGFtbS2XXnqpy1jEQL7Krljp29/+l1RXV9t0YfwZEvGdEgBJsrWmDc855xza23TEL2rZnF0C0NbWzjOecYZNF8afIRHfKQGQJOs2bfjsZz3bZRxiKJe1/4o668xzbJr3WAcg4iklAJJkTaYNly5Z4jIOMRQ4OKfU22u1ibPRPgIRPykBkCSrM21Y6FSxHx9kHGQAHXaFmxqsAxDxlBIASTLjz3c2q5uyveAgAchlczbN9R0piaUPt4iISAopARAREUkhJQAiIiIppARAREQkhZQAiIiIpJASABERkRRSAiAiIpJCSgBERERSSAmAiIhICikBEBERSSEHV22IOLMBOJXwCtZ1hLf5NRHWY68x6K8JMKrp29TURDajcsBRK1GiVLLro1icYWhoyLT5DHDIoN04MPxY2922wJkyAAAE6klEQVTAA8CDwC3A/abBiLikBECilAHOAi4GzgW6og1HpCJ2Az8AvgTcBBSjDUdEpHLqgXcAW4GSXnql+PUI8HYsbq4UEYmDLPAXwADRf/HqpZdPr37gbRguWYmI+OypwN1E/0Wrl14+v+4EjkekApRtSiW8EbgaWBx1ICKe6wFeC0wCt0YciyScNgFKOeWB/wUuijoQkRi6kt8nAyLOKQGQcmkAvgk8K+pARGLsWuDFhEcKRZxSAiDlkAe+iwZ/ERduJDwmOxFxHJIwqgQormWAL6PBX8SVMwlrBuj7WpzSJkBx7f3AW6MOQiRhNhLuBfhZ1IFIcmgJQFw6A7geJZYi5TANnAP8NOpAJBmUAIgrtcCvgRVRByKSYJuAowjvGhCxoic1ceUDwAVRByGScG2EFxTdGHEckgCaARAXFhE+mZjc2CciCzNGONO2O+pAJN5yUQcgifBXOBz88/XNtPatobl7GVV1TeTrGsnkqlx1L2JlcnSIqcmxWf9McWaa6fERpsZHGRnYydCerUyNOTvKX0v4O/cuVx1KOmkGQGw1AzsJb/izUtPUTt9xZ9K2dIN9VCLlUioxemgfxeLMgpod3LWZ/gd+yeTIQRdRDAO9gJPOJJ20B0BsXUJYqcxK19qnsvbsi6hr7XQQkkgZBQFBNsv05ML24dU0ttK2dAMzU+OMDQ7YRpEHHia8YEvEiBIAsXUZsMSmg6UnPofep5xJEGhCSuIhk80xPT1JqVhcULsgCGjsWkK2qprhge22YTQD/2PbiaSXKkuJjTbgFJsOejY+ne71JzkKR6Ry8jV1xm3bVxxF+4pjbEM4DWi17UTSSwmA2DgTi89QQ2Exfcef4y4akQrKVVVbzVp1bTiZ2harJa8sYfEtESNKAMTG6TaNl5zwLE37S4wFZKvMD78EQUD3hpNtg1ACIMaUAIgN4+36Td1LaezscxmLSMXlquyOp9a191DX3mPThY7MiDElAGJjrWnD1iXrXcYhEolM1r4+RVP3Mpvma6wDkNRSAiCmAsJzyEZaFq10GIpINIKMfS21BruZsD5Uz0UMKQEQU/VYfH6qG5odhiISjSCAILD7Gs3XNdk0zwLmxxEk1ZQAiKkG04a56jqCjEpQSEJk7B7Ag0yGbN6qkrZVBiHppQRATBkvfqquvyRKyb6LTNZqKUG/UGJECYCIiEgKKQEQERFJISUAIiIiKaQEQEREJIWUAIiIiKSQEgAREZEUUgIgIiKSQkoAREREUkgJgIiISAopARAREUkhJQAiIiIppARAREQkhXSPtJjqA7ZFHYSIsBT9LooBzQCIiIikkBIAERGRFFICIKYmog5ARAAYjzoAiSftARBTGcIvnqqoAxFJsSmgBihGHYjEj2YAxFQR2BF1ECIptx0N/mJICYDYuDbqAERSTr+DYkwJgNj4dtQBiKTc/0UdgMSX9gCIjQzwS+D4qAMRSaFfEf7uaQlAjGgGQGwUgfdEHYRISr0LDf5iIRt1ABJ7m4E64NSoAxFJkY8Bn486CIk3JQDiwk+AtcBRUQcikgJXAW8BSlEHIvGmBEBcKAHfBMaAs9HeEpFyKAEfJxz8NfUv1pQAiEu3AD8AVgHLI45FJEl+DrwS+C/05C+O6ElNyuUE4ALgLGAJ0A3kI41IJB6mgN2EN/zdQHjU745II5JE+v/PmSCSlUTBOgAAAABJRU5ErkJggg==;" vertex="1" parent="1">
          <mxGeometry x="730" y="65" width="110" height="110" as="geometry" />
        </mxCell>
        <mxCell id="Kjv4vyTBPtws4vWYZQJM-4" value="" style="shape=image;verticalLabelPosition=bottom;labelBackgroundColor=default;verticalAlign=top;aspect=fixed;imageAspect=0;image=data:image/png,iVBORw0KGgoAAAANSUhEUgAAAgAAAAIACAYAAAD0eNT6AAAACXBIWXMAAA7DAAAOwwHHb6hkAAAAGXRFWHRTb2Z0d2FyZQB3d3cuaW5rc2NhcGUub3Jnm+48GgAAIABJREFUeJzt3Xe0JUW5sPHnMDADDDmj5IyCCmJAQUGyImJCxIB6URDUq6LADSa891PMXhQTekEUFBUFyRmMgIKiSAYFSQMSZ4CBmTnfH+/MdYAT9q6u3dW9+/mtVWu5cLr67X327nq7u/otkCRJkiRJkiRJkiRJkiRJkiRJkiRJkiRJkiRJxYwkbLMK8D7gFcCGwPSsEUm9mw3cBpwHHAX8oWw4GiLTgf2B1wKbAsuXDUca0yzgOuA04EhgxiB39nrgQWDUZmtYmwt8BpiCVM0LgL9T/jtts/XTHgReRx/6OVm+HvghMK2fHUg1GQFeTNyhOq1wLGqvLYGLgBVLByL1aRoxTl8F/KWXDXp9BLAKcAOwdFpcUq1eCZxaOgi1zqLAn4GNSwciVfAgsAFw92T/cJEeO3wfDv5qj38vHYBa6bU4+Kv9lgHe28s/7DUB2D09Fql2LwRWLh2EWsfznIZFT9/lXhOA9SsEItVtBFivdBBqnQ1KByBl0tN3udcEYLRCIFIJy5QOQK3jK80aFj2N2b0mADdWCESSJNWnpzG71wTAGdWSJLXDz3v5R70mAEcCD6XHIkmSavAAMWZPqtcEYAbwDpwLIElSU40SY/U9vfzjXhMAgB8DexFFBiRJUnM8QJQCPqnXDfpJACCSgA2ATwKXAzP73F6SJOUxkxiLDyfG5p4Hf6kNziZtYYydSgSrVruStO/a5iWClarq9w6AJEkaAiYAkiR1kAmAJEkdZAIgSVIHmQBIktRBJgCSJHWQCYAkSR1kAiBJUgeZAEiS1EEmAJIkdZAJgCRJHWQCIElSB5kASJLUQSYAkiR1kAmAJEkdZAIgSVIHmQBIktRBJgCSJHWQCYAkSR1kAiBJUgeZAEiS1EEmAJIkdZAJgCRJHWQCIElSB5kASJLUQSYAkiR1kAmAJEkdZAIgSVIHmQBIktRBJgCSJHWQCYAkSR1kAiBJUgeZAEiS1EEmAJIkdZAJgCRJHWQCIElSB5kASJLUQSYAkiR1kAmAJEkdZAIgSVIHmQBIktRBJgCSJHWQCYAkSR1kAiBJUgeZAEiS1EEmAJIkdZAJgCRJHWQCIElSB5kASJLUQSYAkiR1kAmAJEkdZAIgSVIHmQBIktRBJgCSJHWQCYAkSR1kAiBJUgeZAEiS1EEmAJIkdZAJgCRJHWQCIElSB5kASJLUQSYAkiR1kAmAJEkdZAIgSVIHmQBIktRBJgCSJHWQCYAkSR1kAiBJUgeZAEiS1EEmAJIkdZAJgCRJHWQCIElSB5kASJLUQSYAkiR1kAmAJEkdZAIgSVIHmQBIktRBi5YOQI22HLAH8DxgZSZPGGcDfwfOn9/mDjS6eqwO7AlsRnwGaoZHgFuAs4FfAqNlw8liHeBVwKbACmVDUUvMBK4HTgX+VDgWDZF/Be4jTqwp7c/AizPEcXbi/nequN/FgM8Ajybu31ZfuwR41th/xr5cmbj/zSvudzrwDeDxxP3bbKPAycQFi5RsCnAMeb6Qs4mr5ypKJABTgXMS92sr0x4Cth3rj9mHEgnA0sBlifu12Z7cbiXuJPXEOQBa2GLA8cC+mfqbCnwPWD9Tf3X5DLBj6SDUl6WAnwArlQ6kT98CtiodhIbGGsBPiQu5SZkAaIFpwI+BvTL3Ox34eOY+B2ld4MDSQSjJysChpYPow1bk/71JzwHe1Ms/NAEQwBLE86M9BtT/q+fvow1eR9wJUTu9ERgpHUSP2hSr2mWfXv6RCYCmAz8HdhnwPjYcYP85bVE6AFXydNrztobfNQ1KT98tE4BuW5aYZLdDTftqg6VLB6DK/K6p63qaC2MdgO5aATiL+iYg3V7Tfqq6s3QAqmSU9vwN2xKn2qeni3vvAHTTKkShnroG/1uAm2raV1UXlA5AlVxGvBLYBn7XVJQJQPc8DbgQeHaN+/w6cWXWBicDd5QOQsm+XjqAPnyP9iQrGkImAN2yFnARUWq0Ln8EvlTj/qqaBbyX9iQs+qcLgO+WDqIPM4DDSgeh7jIB6I71gYuBDWrc55+AVxJ129vkJ0QSMKd0IOrZr4DX0771J44CPoEJpwowAeiGTYgr/7Vr2t89wOHA1kRpyjb6KrGWwXnAvMKxaHy3Ax8GXgb8o3AsqT5OlK7+NSYCqpFvAQy/zYm69qtm6u9O4BBikZwnW7Aa4B9p35XYWC4lSgKvAjyD9rxf3gWPAn8lFp0ahkHzvPnt6UTC7mqAw+1g4AWlgzABGG5bEO/556qPfgcxIP4lU39tMWN+kwbttvlNw+uTNGDwBxOAYbYV8Z5/riuJvxEFg27M1J8kdckI8EViqfVGcA7AcNqWuJ2Ya/C/bn6fDv6S1L8R4EgaNPiDdwCG0XZEbf+lMvV3DXHl35ZKfpLUJFOAb5NvmfVsvAMwXF4OnEG+wf8PwEtw8JekFIsBP6CBgz+YAAyTVwInAYtn6u/3xIS/uzP1J0ldMhU4kVhivJFMAIbD3sTgPy1Tf7+k3e9VS1JJSxKPYvcsHchETADabz/g++Sbz3ER8SjhwUz9SVKXTAdOAXYuHchkTADa7SDgm+T7O54B7IYLlEhSimWJwms7ZOrv8Uz9jMkEoL0+RLxWMpKpv1OB19C+uv2S1ATLE7VXts7U32PE413pCf6TKH+aq51AzFZtiiWIZ2fHATNJO6Y7gKPn97NkveGrJUaAFwL/BVxB+u/nl8TiUWvUG74aZBWiBHquc/LDxN1YKvShIfT/yDv4H0O8p9oEmwDfIX3QH689QCxJvGF9h6IGW4YYsK8l7/dsHnA+sDveXe2SpwFXk+97NJOYhL2ACYAYAb5A3hPW12nGieo5wI+JBYRyHt+T29z5+1m/nsNSw0wHPkpMcB3k92yUKKC1Vz2HpYLWBq4n3/fmAWCbJ+3DBKDjFgG+Rt4T1BfJN38g1VLElfkcBn9CXrjNBj4HLD34Q1RDvJVYqbLO79ko8VbNs2s4PtVvfWJFylzflXuB542xHxOADpsC/C95T0qfqvUIxrYLscBQ3Sfkhdv1wPMHfaAqakWiRkbJ79ljwKE0426b8tiEWLUx13dkBnEndCwmAB21KDFBL+fJ6CO1HsHYDmPwt/v7OTl/eLCHq0K2ocxV/3jtLGDlgR6x6rA5cCf5vhe3A8+YYH8mAB00FfgJeU9A/1nrETzVNGLSYekT8VjtO7g41jDZk5hJXfp79eR2I7DBAI9bg7UlUR491/fhFiafnGwC0DGLA6eR70s2D3hPrUfwVNOAMyl/Ap6o/ZRIvNRuB1D/vJJ+2m3EVaTaZWvgfvJ9D24E1ulhvyYAHbIkcDZ5B/+Daj2Cp5pCLIpR+sTbSzsBn9W22d405/HSRG0G3glok23J+/bItfReNyJ1H2qZZYCLyfclexx4c61HMLZjKX/C7ad9YTAfgwZsR+INj9Lfn17bNcQkRTXbzsAs8v3d/wSs1sf+U/ejFlkeuIR8X7LHaMYylPtT/kSb0t46iA9DA7M2cB/lvzf9tnPxjlOTvRJ4lHx/78uBlfqMIXVfaonlgUvJ9yWbTTOWodyMZk7E6qXNBDbK/5FoABYBLqD8dya1+RZKM72euJDK9Xf+HWl3fFL3pxZYDfgz+b5ks2jGMpSLkfe4SrRLaE6ZZI0v99oYdbfZwBbZPxVV8WbiEWquv/HFpBceS92nGm514Cryfclmkm8ZyqreT/kTa462X+4PRlmtQd7ns6XarylfmVNhP/JOJL2QqHqaKnW/arB1gZvI9yW7n3zLUFa1AvAPyp5Qc2Xvd2DJ4CY7jjx/57nkfdab0powZ6fr3kO8OZXrb3oa8Vp3Fan7npQZZxkbEZN/1szU3z+I0rq/z9RfVZ8HPlixjznAl4nlWl+csP3ewHbAu6g+yeq3wK0V+1B+U4BXU/089hvixH8Mae/nf5KoPVC1yt8dxNLCTTeLeI3tZGIVvGHxYeAzGfs7CXgjMY+gip4G8zE4vjfQM4kfeq4M807gWbUewcSmU71Yxgz+uSJWak2EneZvv3uGeGzD2eYRJ/wFFSCvTOxnc2I9+F824JjqbifS/6z2JvoIeT+X48lXWTQ1BjXMc4jBLdeX7DZiUYom2Y9qx3QLsN5C/VVNACDeRshZvtPW/jYPeDdPVCUBgKh2+dMGHFvd7XpiPlNb/T/yfh7fIe/k4dQ41CDPJ5Z7zPUl+yvNXNf+d6Qf0z08NaHJkQBA1PCeWSE223C1Q3iqqgkAxPPeCxtwfHW3C2nfLecRYln0nJ/DUeT/HFJjUUNsAzxAvi/Z9UThkyYZIZ7ZVzmusWoX5EoAAN5RMT7bcLSTGfsknSMBAFiVvHf62tL2GOMzbapFgK+T9/i/wGCSoNR41AA7kPfK82rgabUeweQWAb5BteP6/jh950wAIO8iS7b2tfsZf7JergQAoohM6WOtu/1wnM+1aaaQf1XS/x5gvKkxqbDdyFsJ74/EZKMmmUL1Wv+P8cTn/gvLnQBsTjsWi7ENpv0748uZAIwAlzXgeOts103w2TbFYsSCXzmPe9DLrKfGpYJeTd6FSVLLSA7SYkTWX/XYvjfBPlKv2F86QZ+nZojZ1r42i1hwazy/T+x343H669pdgNsn+GybYCp5J2nOAw6uIe7U+FTI3uQtI/lrYNlaj2By04Cfkef4dplgP99K7HOiCZJ7ZYrb1q423mOmBX6e0Oc8xi8UtTjdegW1KXVIxrIEcDr5jnUecGBNsafGqALeRhSxyfVFu4BqZSQHYQngDPIc38PEnYTx7JPQ59+YeDLOMvgYoIttsqWxP5jQ56WT9PmjBhx3Xe3wST6LUqYD55HvOOcQE4rrkhqnanYAeQeWs4Alaz2CyS0FnE++Y/zVJPubTtxa7KfPf+vhONq+UJGt/zbZa7OrAA/22efbJ+nzww047jraHJr5WvIywC/Id5yPExcldUqNVTV6P3lrSJ9C3GZvkmXJX+3sOz3s97X0/tn+gbhDMZmTMh+HrdltDr29onVgH32ez+QFX/ZowLHX0f5rks+hhOWJFT1zHeNs4lxUt9R4VZN/I++P6UQmvi1ewgrE7c7cJ47P97j/g5h8XsWV9L6+QurcAls729307uNMnnD+kt4m5W7TgGMfdPsu1dfbyG1l4AryHeMjRFnxElJjVg0OJ++P6Tiatwb9KsSV9SBOHv08N3w+sYjSkx+z3A18gnhc0KvcFcBszW43058diMdTT04EbgM+RMwo78VzGnDsg2zfonmDf+5l1mcx/mvFdUiNe1K5FivoohFiIZEPZezzaGB/4qTTFKsTE2g2HVD/PX1R57sU2JFISJ5BPN/7O1EfYe4A97uwY4lXE1XGysBXa9jPefPb04ny1EsS5bcXzB0ZtL8ydrniVCPEgjebZezzK8D7qOfz6NWaxN9tw0z9PURc+V+cqT8NgRHgS+TNpL9G8zLptYjiHoO8gvhEbUfzRF/oI8aF2wdKBKv/sw5pf7ebC8QK6XcArsgYwwgxWOf83X42Y3y5rA3cQL5jvA/YutYjGFtq/JPyDkD/FgG+CfxLxj4/S95sP4d1iEx6vAp9kppvCvBtYN+MfR4BHJaxvxw2Is5Xa2Tq7z5gVyZ/zbPVmnbF2XRTiFnrOQf/I2je4L8x8eqMg7/UXosSNe9zDv4fo3mD/6ZEvZRcg/8MYDuGfPAH7wD0YzHgeOB1Gfv8GM0rnrEpMdGuaQsOSerdVOAHREnyHEaJsrdfzNRfLs8h1gsZb4Gnft1JzDO6KlN/jWYC0JupRM37sZarTdHUH9MWxI9ppdKBSEq2JFHzfudM/Y0C/wocmam/XJ5LFEvLtUbKLcTbHzdk6q/xTAAmN4gf0/uISTlNshXxY1qhdCCSkk0HTiYGshzmAu8E/jdTf7lsQ7yNM9HiTv24mfjMSk0WLcIEYGLTiYp8L8vUX1N/TNsSK+Tl+jFJqt+yxII3L8rU31yi1PFxmfrL5aXE+SrXGinXELf9b8vUX2uYAIxvWWLBm1yvgTT1x7QdsQpa0xYcktS75Ynz1Qsy9fcY8EaiZHaT7Ab8hN7KfffiL8Tgf0em/lrFBGBsywNnEpXncmjqj+nlxI9p8dKBSEq2CjF359mZ+ptNLJl9Sqb+ctkd+DH51ki5nHi0+49M/bWOrwE+1arAReQb/B8hJg82bfB/LTG3Idfg328lPknVPQ24kHyD/yziwqBpg/8bifNVrsH/V8Sj3c4O/mAC8GSrEcUkNs/U38PEamBnZOovl72JV4R6rWc+mV8RlREl1Wct4mIlV5numcAriVUOm+RNxIJDue5YX0w8SnggU3+tZQLwT2sRxW+emam/mcQtq3Mz9ZfLm4l5CLl/TA9m6k/S5NYhit9skKm/+4kFby7I1F8u7yLv4H8mUeHvoUz9tZoJQFiHuI027D+m/YnFbPwxSe21MbEcca5KnfcSz8J/m6m/XA4Cvk6+ceo0ojDSI5n6az0TgH/+mNbN1N/dxMz6pv2YDibvgkP+mKT6PYO4sHh6pv7uIs5Xl2XqL5dDiVopI5n6O5E4Xz2aqb+h0PUEYBA/ph2I5Wmb5FDgc/hjktpsS+KZ/+qZ+ruVqAHyp0z95XIo8OmM/Z1AzCN4PGOfQ6HLCUBXfkwfJ++P6Xj8MUl12wo4h3xluv8GbA9cn6m/HEaIC5Wc56tvEfOe5mTsc2h0NQF4Ht34MX2eWHAol28Bb8Efk1SnbYmZ+bnKdF9HlNK9MVN/OYwQbxIdnLHPrxHznuZl7HOodDEBeAnxql8XfkwfzNinPyapftsR5X2XztTf1cTFyt8z9ZfDIsDRxBopuXwWOJBYe0Xj6FoCsAsxc32Yf0xTyP9j+gz+mKS6vZyoIZKrTPcVRB392zP1l8MU4DvAOzL2eQRwSMb+NAT2ICatjWZql9O8ZXMXJZ7R5zrGUXp/hPDRxP4/kX64lXyhjxgXbh8oEaz+zzqk/d1KrfL2nD5iXLg9QJQQz/U7/i1R4rxJphKlfXOer4Zx4E/9LCbVlbUAXg98H1gsU3+/J+4mNKmM5FRi8H9txj4/AvxXxv4k9Sbnypy/BF5Bs4p1TQV+SJRJz2GUeORpRdI+dCEBeCN5K0k18cc0jfgxvSpTf/6YpOFwEVGRdGbpQBayJFHXf+dM/Y0Sjzy/kqm/zhj2BOCd5K0k1dQf08+IyoM5jALvBb6aqT9JZZxB3BFsUrGu6cRCQy/L1N9cYD/gmEz9dcowJwDvBb5MvuI3pwGvo1nFb5Ym4to2Y59XAWvS/7u4L07c3w7kW+GrH9skbrc7sWKkylg2cbvlyft+ea9WKbBPiNVH30jMI2iK5Yik5IWZ+nuceMf/xEz9aUh8mLwTS06hzCA1keWA35D3OG02W/vbD8g33ymX5YFLyHeMs4lqpF2Q+hl10sfI+2M6nubdKVmWmIhY+kRjs9ma1b5DvFrXJKsCV5LvGB8mFiHritTPqXM+zfD/mABOpvyJxmazNasdRb5Hnrk8HbiGfMf4EFF7pUtSP6vOWFD5bth/TAA7Uv5EY7PZmtW+QPPOV+sQFVJzHeP9pM81arPUz6sTRoAjyftjyrkMZW7HUf5kY7PZmtNKTG6czLrATeQ7xvuAF9R6BM2R+pkNvSnA/zL8P6aFXUv5E47NZmtGa+L5ahOiPHquY7wLeHatR9AsqZ/bUJtC/qvhJv6YnmwG5U86NputbJtH3sW+cnkGsdZAruO8A9is1iNontTPbmhNBX7C8P+YxvIXyp98bDZbuTaPvIt95bIlcA/5jvNvwIa1HkEzpX5+Q2kJophEzh/TgbUeQTXfpPwJyGazlWlzyLtyXi4vIibp5TrOG4lJhEr/DIfOdOB8hv/HNJHnUf4kZLPZ6m+PA/vQPNsTr+flOs5riNcHFVI/x6GyDLEQz7D/mHpxNOVPRjabrb42m7wrfeayC1GYJ9dxXomltp8s9bMcGisAlzL8P6ZeTQNOpfxJyWazDb49ALyc5tmDWBsl13H+Hlix1iNoh9TPcyisDPyBfF+yR4jlfNtuCvAB4hWZ0icom82Wv80jqn5uRPPsRSw0lOtYf0Osb6KnSv1MJ9XUYjcLrA6cS7xaksPDwJ7AOZn6a4KpxOpam+IPSBoGjxKv0v2SeA2uad5C1F/JVSb9YmKVzYcy9TdsehrMx9D08X1CawLXkS/DnEm+NaglqYveCcwl33n5AmCpWo+gfQZ2B6Cp1gFuIN+X7D5g6zoPQJKGzLuJxxK5zsunAYvXegTt1KkEYGPgVvJ9ye4Fnl/rEUjScPkw+c7Jo8ApxGRmTa4zCcCmwG3k+5LdCTyr1iOQpOFyKHkH/xOARWs9gnbrRAKwBXA3+b5kdwDPrPUIJGm4HE7ewf848k0e7IqhTwC2Av5Bvi/Z34ANaj0CSRoeI8AXyTv4fx1YpM6DGBJDnQBsQxS6yPUlu4lYi1qS1L8R4EjyDv6fpeWvpRU0tAnAduStIX011pCWpFRTiHf8cw7+bVhmvcmGMgHYjajKl+tLdhVROEiS1L8pxDP6nIP/x2o9guE0dAnAK8lbQ/p3WENaklJNBU4i3zl5HvDBWo9geA1VArA3eWtI/5JYKVCS1L9pxHv5OQf/99Z6BMNtaBKANxHL8Ob6ol0ELF3rEUjS8JhOrI2S65w8B3hHrUcw/IYiAdifvDWkzwCWqPUIJGl4LAv8iryD/1trPYJuaH0CcBB5a0ifijWkJSnVcsBvyXdOng28ptYj6I5WJwC5y0j+EFis1iOQpOGxCvAH8p2THwVeVesRdEtrE4CPk3fw/z7WkJakVKsBfyLfOXkWsFOtR9A9rUsARoDPjxNUavsmlpGUpFRrAdeR75w8E9i+1iPoplYlACPAl3sMsNd2FJaRlKRU6wA3ku+cfB/wwjoPoMNakwBMAb6dGOx47Yhaj0CShsvGwK3kOyffCzyv1iPotlYkAFOAYysEO1azhrQkpdsUuI185+Q7gc1rPQI1PgGYCvy4QqBjtY/UeQCSNGS2AO4m3zn5duAZtR6BoOEJwDTgZxWCfHKbB7y/ruAlaQhtBfyDfOflvwLr13kA+j+NTQCWBM6uEOBYg/9BdQQuSUNqW+AB8p2XrwXWrPUItLBGJgDTgfMqBPfkNgd426CDlqQhth3wEPnOy1cDT6vzAPQUjUsAlgN+XSGwJ7fHgTcPMmBJGnIvBx4h33n5CmDlWo9AYxlYApDybv1KwFnAlgnbjucy4PyM/UlSlywBHEBMyM7hUmBX4n1/lZV6NT/p+N5vArAqsXSkr4FI0nD6FXE34cHSgQhoSAKwEvBLoqiEJGn4nA/sQdT4VzMMLAHotbb+CHAiDv6SNKzOAHbHwb8zek0AXo2LPkjSsPoZsCcxiVAd0WsC8LZBBiFJKuZEYC/gsdKBqF69JgAu/CBJw+dYYB/iVWx1TK+TAOfSe7IgSWq+bwAHEhVY1VzFJwE6+EvS8DgKeDcO/p3mwC5J3fIZYs2VgdeLV7P1+gjAL4oktd+PiAl/ao/ijwAkSe13V+kA1BwmAJIkdZAJgCRJHbTogPs/bMD9q7r3kbbe9/8At2eORXm9DtgqYbufECt0qrm2Bl5VOgi126ATgCMG3L+qewNpCcAxxHrhaq6NSEsAzgC+nTkW5fUeup0ALA6sRZy7lgMWm//fZwL3ArcAd+IE9gkNOgGQJKmqtYBdgO2ALYnkdrJH2A8BfwAuIZaxvxh4dHAhto8JgCSpiVYE3gy8ibRy9EsD285vHyLuDvwUOA44F+8OOAlQktQo6wBfI27jf4l8a9EsBbwFOBv4M/AOOn4RbAIgSWqClYAjgWuBA4AlB7ivZxDzXK4iJst2kgmAJKmkEeDtwNXE5MapNe57I6I64lnABjXutxFMACRJpSwD/AD4DnEHoJSdibea3lQwhtqZAEiSStgSuJzmrE2wFPA94LsM9vFDY5gASJLqdgDwa2D90oGM4S3Ar4B1SwcyaCYAkqQ6HUrM8p9WOpAJPIdIUDYrHcggmQBIkuryCeDTpYPo0WrAeUQyMJRMACRJgzYCfBH4aOlA+rQKcAGx9sLQMQGQJA3ap4D3lw4i0XLAmQzh4wATAEnSIL2NeO7fZssApwArlw4kp06XQZQkDdRLgW8MqO85wK3EsuQziEmFaxArBA6ipsC6xFLZOwGzB9B/7UwAJEmDsCExYOas7PcocBLwc6J6333j/LtnAa8gyvxumXH/2wLfBPbN2GcxPgKQJOW2KPB9YkW/HGYTA+8GRLW+HzD+4A9wJTHv4LnEoH1hpjgA3kosJNR6JgCSpNw+Rr5V/M4jBv79gdsStv8lsD2wD3B/ppi+xBAUCjIBkCTl9ELgsAz9zAY+RNTp/3uG/k4Ank2euwFLA8fS8jG01cFLkhplSWJgrDq/bCbwSuDzwLyqQS3kFmBH4OgMfW0LfDhDP8WYAEiScjmcWGK3ihnE2wPnVA9nTHOBdwGfy9DXJ4jJjq1kAiBJymEj4L0V+7gX2I5YJXCQRomr9yMq9jONPIlEESYAkqQcPk+1V/4eJ5YGvjpPOD35N2IJ4Cr2IOYptI4JgCSpqp2A3StsP0q8WndennD62u87iTcFqvgsMKV6OPUyAZAkVTGFuPqv4iiqX4mnehR4LXBXhT6eRSQSrWICIEmqYm9g8wrbX0212fTPBj5DVAa8DDiRmIuwQh99zAAOqBADwH8ScwKGzmhiU/NdTtrfdosSwaov3ybtb/svJYJVX95D2t/2yMxxjAB/TIxllHjXP/Vcsixx12C8vu+n/4p936xwLIP67Qxs/PUOgCQp1W7E7e9UnwWuSNhuaeBsoizweJYlkuB+ihIdDNyREM8CH6ZF42prApUkNU6VZX5vI+r1p/gM8Pwe/+1/E0V7evEQ8WZAqo2BV1fYvlYmAJKkFFsDL6mw/SHArITt1iIK+fRqEaJgT6++C/y2r4ie6JAK29bKBECSlOJfK2z7W6I2f4q96X/s2g42D3XVAAAgAElEQVRYucd/Owq8v8/+F/Z84EUVtq+NCYAkqV8rAHtW2P4TpE8U3zVhmxH6e1PhEuCMhP0s8LYK29bGBECS1K83kv7K2++AMxO3nU761XW/VQr/O3E/AG8gFkZqNBMASVK/+n29bmH/VWHb7UhPPP7W57//FelLBy8DvCZx29qYAEiS+vEsYMvEba8GTqmw750St7sfuC5huyqLBb2twra1MAGQJPVj3wrbLii0kyo1ATiPWAa4X2cDNyXuc3tg7cRta2ECIEnqR+p77o8Sr9ilWgN4RuK25yRuNw84OnHbRag2UXLgTAAkSb3aHFg3cdsfAfdW2PcuFbZNTQAAvkMsVZyiygqJA7do6QD6sDjwYmBNqq053Vb3AX8Ari8dyAAsQrw7uyGwROFYSphFPBu9guFcQ+OZxMCxTOlACpgN3Az8hvRBpEleXmHbb1fcd+rt/+tJv40PsUrgqaTd+XgJ8b1/sML+iyu5GNBSRLnIhyrEMUztMuLZUi4lFwNahFjU5PbEGIat3Qy8tdIn+kSlFwN6FXBVYgzD1u4F/oN8Fy+lFgP6ReJ+b6faHedFgLsT9/2VCvtdYO/EfY8Cr6+479T9ZlMqgNWIq97SP96mtbnAByp8rgsrlQBMBX6WuO9hb98hz+O5kgnA/0vc97C3XxCL1FRVIgFYEZiTuN+qg/BWifsdJRLRqpYGHknc/7EV95163JNq8hyARYGfEms964kWAT5PC94zncBXyPPDHEZvBz5eOogK3k21BVWG2TbA90sHkWhXYEritj+puO+dE7d7HLig4r4h7kCfnbjtbjR0rG1kUPO9A3hh6SAabAT4MjE3om2eB+xXOoiGOxRYv3QQCVYgfYW3rngFsEfpIBL0uqLek80ALq6479Tn/5eQ7/n7jxO3WxnYNFMMWTU5AXhn6QBaYA3S6mKXth+RwGh8U6n2vnUpe5HnFvewa+P57cWJ251F2jv4C0wnVh5MkXrVPpaz6PHW+hhS4x+opiYAiwPPLR1ES6Rm5SWlnki6xr/t8NqmdAB9Wpb0d/Cr3oLfnvTyvzkTgBnAlYnbNnJ1wKYmACvhFWKvVikdQII2xlxCGz+nNsZcwnKkD2olvJD08eL8ivtOvf1/L7HwUE6px+IdgD5UKRbRNW38rO4rHUBL+LcdXrOIGgFtkXpn5wb6X4TnyVILAKWW/52szxQbExe2jdLUBOBhojCKJndZ6QAStDHmEtr4ObUx5hLa9jmlXsFeWHG/axGDZ4oq1f/GczFpScUI8ILMsVTW1AQA4LjSAbTA/cDPSweRwL/t5EaB75UOIsGJtOvKtpS2/QZSX8eumuikvv4HeZ//L/AQcE3ito17pb3JCcD/UK18Yxd8FHigdBAJzgLOKB1Ewx1DFGlqm1uJGhUa3++pXhymTisSr7Kl+H3Ffac+/7+W6o8expN6TI17FbDJCcAs4l3ZO0sH0lDfoHpZz5LeRFR51FNdBBxUOogKPkr1wi/D6iaigFfuZ9ODtEnidrOBP1XY7xRgh8RtB3H7f4HUxDz1cxyYJicAEHXEn0+UjFW4G9gfOKB0IBXdR7wK9RWGY5GUHB4hSujuPP9/t9Vcoh7AIbTzDtUgzCNu+z8fuKVwLP1KHbj+DDxWYb/PJe4+pBjE7f8FUu8AbELD3m5rw2qAtxKrMG1AzAZdh+6tKjaXWJHqcuBc2j04LGwW8F7gk0R1tA1o4EzZGtxF3LI8g3bO/B/LPOCzwNeIYlWbAavS/IuO3O4nrvpPJ85lbZSaAFxRcb9Vyv9eWHHfE1mwPk2/g/lSRPG2xnwP2pAALHDD/KbhMwP439JBaCBmEiVUU8uoqrzUZ9dVly5Pff7/a2Ky3qDMJB5Nr56w7SY0KAHoWjYuSerPhonbVblgW5r0Vw8H+fx/gdTkZqOsUVRkAiBJmsjTErerkgBsDyyWuO0gn/8vkHpsKXcNBsYEQJI0nunEs+sUVV7jTr39/w+qv3rYixsTt1s1axQVmQBIksaTOmDdRTwrT5U6AfA8YgLqoHkHQJI01FIHrCr1W9Ym/Vl5Hbf/IRKcFN4BkCS1wmqJ282osM/UxX+gngmAEPVYUqR+ngNhAiBJGk/qgJU6QEL68/+rqa/IUmqC06haGG2qAyBJqtfyidvdk7hdlfK/qwO/m+D/f4xIEH4OnES1gmr3EgXapvS53WLEpMoHK+w7GxMASdJ4Fk/cLvUOwFakJx3LEeWDJ7I18AbiDYV3EOtupJhHvHGwSsK2S9CQBKAxtyIkSY0zLXG71DcAqiz/24/1iFVJq+xvVuJ2qUlVdm27A7AsUUu5MR9gje4B/k67VhHrx+LEOg/TC8dRwoPE0qVVFk5pssWANUm/smuzR4jbzlVeiSsp9Vw7O3G7uhIAiOTmeOKNg5Q1OB5N3G9jxq82JAAjxGJABwMvpNt3Le4BTgT+G7i9cCy5vAD4T2LiT+rVxjB4GDgNOJxYRW0YrAd8hPj9Lls4lpLmELeaj6C+Weq51JkALEOcD+q0IjG2/EfCtqlJTmPOc00fTKcB3yfWFn8RzY930FYCDiQGiB0Lx5LDfwK/AXanQT+KQpYEXk+soPbuwrHk8DpiLfi30e3BH+JCawfiHfUj6X/iWEl1JgAvIr38bxWvS9yu9XcAmj6gfgt4Y+kgGmh54GRgy9KBVPABYhngRq2P3QCLAl8F9ikdSAU7AicQSY2e6D3Ap0sH0YfUxDwlAUhddbCqDUm7G556B8AEoAe7AW8pHUSDLUkkSG0cQNcGPlU6iAYbAb4CrFA6kATTiO9lGx4vlnIwk89Wb4rUMSKlHG+Jq3+I39sSCdullhxuzB2gJicA7y8dQAtsCbykdBAJDsBb/pNZHti3dBAJXkVM5tT4RoB/LR1Ej+p8zv33xH1VdTfwUMJ2qeew1EcH2TU1AVgU2K50EC2RWjWrpGGYv1CHNv5t2xhzCW35nFIHq5TB8RzKvOV0aeJ2JgADsgowtXQQLbFm6QAStDHmEtr4Oa1ROoCWWJV2nOPqvANwN/DdxP1VkfpmRuqzfBOASVQp0dg1D5cOIEEbYy6hjZ9TG2Mu4fH5renqvAMAcBjw18RtU6WuIOgdgAG5j+F5z33QriodQII2xlxCG+sB+LftzVXAaOkgepA6WKVMqoNYZGcHYmGfOtxaYV+px2gC0IMflQ6gBR4HflY6iAT+bXvTxs/pJ7RjYCutLX/b1EcAK1bY503AFsAhDD4RSL36h/RjNAHowRE0ZMGEBjuKcjNnqzgerxQnczFwZukgEvyRqFap8d1BvObZBqnn4JUr7nc28FngGcDSwGbEQkFjtSqvi6c+/1+GtDkAozSoLHST39W9gyiG8lPKvR/aZL8inpe10RzgtcQxVLlSGFa30u5CQPsDzyRO2nqih4nKcymvnZVwV+J2VROAhc1k4guGlyb2Ow84N3Hb1OP7Bw2a+9HkOwAQtdF3Am4uHUiDzAOOJj6XxtxKSnAtUff7t6UDaZhziM/lttKBVPAAsC3tuc1dl6uAbYBflw6kD3cmbpeyTG6q1AWEfk8MyClSE4DUz3MgmnwHYIGLgE2IK8ZdiAVGulZidJT44vwB+AHDc/v8RqL+985EAZkN6eaKcf8AriGen19cOJZc7gf2Im7R7kXcEVi1aERlPATcAJwOnEL7VvNMHbBy3gGYyOJEspmiyvP/1ATHBCDBY0Rt8RNKB6LsRol1uc8qHYgG4nfzm9opdcBag3h0O+jb3duSfkFYZWXGdRK3u6PCPrNr+iMASVI595H2JsCiwFqZYxlLakXFWVR7/Lh+4naNugNgAiBJGs8o8W5+ig1yBjKO1ATgAtJfcYT0Y0v9LAfCBECSNJHUSdipV8m9WhV4duK2VZ7/Q8xXSnFTxf1mZQIgSZpIajGeQd8B2In05dCrJACLkj4H4JoK+83OBECSNJFrE7d7VtYonir19v/fSD8mgE1Jq00zh3gjpDFMACRJE0m9A7Al6VfokxkhPQGoevt/y8TtbiTeaGsMEwBJ0kRSb1svD6ybM5CFbA6snrhtldf/AJ6buF1dCxz1zARAkjSRW0hf5jl1sJxMavW/ucB5FfedegfABECS1CrzgL8kbrtVzkAWknr7//fAvRX2O4X0Nw9SP8OBMQGQJE0mtWhOapneiVQp/1u14uhzgaUSt/1NxX1nZwIgSZpM6uD1PGLp3JxeAiyRuG3V5/87JG43g5gE2ChtSQDWA75I3EKZRVSn6lKbR5SQPAvYl7gNNSxWAD4CXEYsIFP6sy7R7iVWiPsQ6VcXTTQNeDdRdW0G5T/nEm0msYjXp4CnVfs4i0pdwXBRYsDOKfX2/4NUX330ZYnbNe7qvx+pX/4c3k+UbCz9Q25Su4J8s2svT4xhiwz7fjkx+JX+PJvUbgdeXOVDXci3E2P4lwz73gy4PnH/w9pmAW+t8qEu5D2JMRxZYZ+3Je7zCxX2OZY/JsZxcsX9Lk5MhkzZ96EV9pv6fZtU0+8AHEJc+U8tHUjDPIdYNjb1NZgm2JVYHrWLy/9OZHXgXOD5pQOpYENiGe86asG3yZLAscDbCseRKvUuQOoV+1hWI14BTFH1/f9tSH/0kPrZDVSTE4BnEbfNNLY1gK+XDiLRssBxDNejjJwWB46nnYnvCPG3XaF0IA12FLBm6SASpA5imwEbZYqhSvnfqs//X5O43WM0dEnsJicAh9Hs+JpgD9Kz4ZLeCaxUOoiGWx/Yu3QQCV4GvKB0EA23BPDB0kEkOLPCtq/LFEPq+/9/Ba6rsN9FgFcnbnsR8EiFfQ9MUwfYRYBXlA6iJXYvHUCCV5YOoCXa+Dm1MeYS2vg5XU36TPYcCUDJ8r/bEI8fUvy84r4HpqkJwErkf3VkWLXxOet6pQNoCf+2w2sdYoZ825yauN0WVF8e+FnEEsApqiYAr62wbepnNnBNTQDUu55me6qV/NsOtzb+fasMZvtW3PcuidvNJV5FTTWV9MdxfwZurrDvgWpqAnAP8c6mJte44hI9uKl0AC3h33Z43UwMTG1zMenn5ndQ7a5H6u3/y6hW/vc1wCqJ2zb26h+amwDMA04rHURLNPb50gTaGHMJbfyc2hhzCY0eGCbwGOmTAZ9O+pylJYnn8Cmq3v7fv8K2p1Tc90A1NQEA+DTtzJDrdDJxi6ltvgncXTqIhrsB+EHpIBKcT/Vqa8PuEfIXx6nTcRW2fVfidtsSr8emqJIAbAy8NHHb62n4b6HJCcCVwL+XDqLB/g4cUDqIRA8Cb8EEbzyPAPsQV1ttM0pUu6tyy3XYvRu4tXQQFZxJlCZPsQvwjITtUgfhB4BLEreFqESbWnfgWBo+z6PJCQDAZ4g/QBtPhIN0BZERp/4Im+As4lUoB4onug3YkXhu2VbXE/Xfry8dSMMsKAV8bOlAKppD+l2ARUi7sHtm4v4uIOJN8XTg7YnbzgO+m7htbZqeAAB8GdgE+BLxHmojCyrU4C7iVta+xApbfy0aTR5nEK+6fZSolPVQ2XCKuZ9YLOTDxC3HRpYN7dNVRAW4A4ELiYm9XfQwcTfz00SJ5Cq3z5vkmArbvoH+X3FNnTxYpfrfwcSCVinOpd13eZ5gYIsRqLiSiwFpsEouBqTBKrEY0JP9NjGGUeDoPvd1VOJ+UmtprEys5Jh6fG9M3O9YOrsYkCSpmb5WYdt96a+MecpEvj8Sk2lTHA5MT9z2LuCnidvWygRAkpTieNJvcy9KPN7t1c+Ba/rcx+f7/PcLbEGsV5Lqy8CjFbavjQmAJCnF41R7nXF7el8jYC6xjHKvA+vPgO8lxDQC/A/pK5U+SDyuaAUTAElSqqOBf1TY/gvAcj3+20uIQkKTTSj9EfEabco8tLeTXnAI4rHIAxW2r5UJgCQp1UzgqxW2X7PP7c8j6gh8BvjbQv/9MaII1Z7AXqS9LbY+8bZZqtn091ijOBMASVIVR1Ltqnef+a1XdwOHEisqTgfWIlaP3YGojppiUeIVzaUTt4e4G3JHhe1rZwIgSariHuCTFfv4KrBRwnYPExMRZ1fc/+HA1hW2vx/4eMUYamcCIEmq6kjgugrbL0eUGE5dda+KtwP/VrGPw2lhsSsTAElSVY8Bh1TsY11ilcQlq4fTs+2Ar1fs40ZaNPN/YSYAkqQcTiYm4lXxPOAnpBfh6cf2xHK9Uyv2czDVH0EUYQIgScrlIKqv17IrUcN/herhjGtP4HSqTfqDSHpSJx4WZwIgScrlGuCwDP1sDVwMbJqhr4WNECvM/hhYvGJfdwHvqhxRQSYAkqScjiRW+qzqmcRiZYeSZ6xalSgp/EXSK/0t7J3AjAz9FGMCIEnKaZS4Mr4vQ1+LE0spnwdsm9jHdOBDwF+AV2SICeBbRDLRaiYAkqTc/g7sT75l4bcjHgmcB7wGWKqHbTYC/gO4Gfgs+eYUXA18MFNfRS1aOgBJ0lD6EVG29+MZ+3zZ/DYbuAi4EriNeB6/OLDG/LY9sGHG/S5wD/BKogRy65kASJIG5XBgA+DNmfudBuw8v9XlcWKdgRtr3OdA+QhAkjQoo8RkuV+XDiSDg4ALSgeRkwmAJGmQHgVeDfy5dCAV/Dsx8W+omABIkgZtBvAS4JLSgfRplJjw96nSgQyCCYAkqQ73ATvSntvoo8D7iLoBQ8kEQJJUl5nELPqzSgcyiUeJiYtfKR3IIJkASJLqNAvYjSgZPLdwLGP5G1F34PjCcQycCYAkqW6jwBHEI4E7CseysJOBLWjfXIUkJgCSpFIuBJ5L+RX17iNe83s1eUoYt4IJgCSppDuI5XlfBvyx5n3PAb4JbAIcRb7Sxa1gAiBJaoILiLsB+xNrCQzSKHAq8Oz5+2v1qn6pTAAkSU0xl7giXw/Yh6j3Py9j//cSV/rPJN5G+EvGvlvHtQAkSU3zOHDC/LYWsQLgLsSSwNP77Osm4BzgdOL1w9n5wmw3EwBJUpPdAnxpfptCPK9/FrA2sfLfMsRKgAAPEJP4bgGuA64A7q453tYwAZAktcVc4Kr5TRU5B0CSpA4yAZAkqYNMACRJ6iATAEmSmmlkkJ2bAEiS1DwjwP8Mcge+BSBJUrNMAY4G3jbInZgASJLUHIsB3wP2GvSOTAAkSWqGqcAPiFUJq+hpRUMTAEmSylsCOAnYNUNf1/byj0wAJEkqayngFGD7TP39tJd/ZAIgSVI5ywKnAS/O1N8dwNd6+YcmAJIklbECcCbwvEz9PQa8AXiol39sAiBJUv1WAc4Gnp2pv9nE4P+LXjcwAZAkqV6rAucCm2Xq72FgT+CcfjYyAZAkqT5rEYP/hpn6mwXsAZzf74YmAJIk1WMd4DxgvUz93Q+8HPhNysYmAJIkDd7GxJX/Gpn6u4+oGXBpagcmAJIkDdamxOD/tEz93QXsDFxZpRNXA5QkaXC2AC4m3+B/J7ADFQd/MAGQJGlQtiKu/FfK1N8twLbAVTk6a9MjgGcCbwVeRLxCMaVsOLV7jKjwdAFwDHBr0Wjyehqx7OXLgKcTC2J0yTzilt5vge+SIbNvkKWI3+1uxASoJYtGU8bdwJ+IRV7OKxyL6vMS4FRg6Uz9XQ/sSCQBtRpNbDksBvwPMKdCHMPWHgY+VOVDXcjliTFskWn/7yNeYyn9mTalzQW+Dkyr8qHO9+3EGP4lw74hBv07E2MY1nYWsHKVD3W+9yTu/8gM+9bkdiTvee0qYPVaj2AhqUFXtQixOlLpH21T2xHpH+3/KZkAfCxx311op1P9LlfJBOA1mLSP164lSsBWYQLQXK8AHiHf9+UP5Ekan6LpcwDeR/V1kYfZIcAupYNItB2RAGhsuwEfLh1EoqcBx9K9x3S92ogeF2tR67yGuGhdPFN/lxGPRu/O1N8TNDkBWAz4j9JBtMAnSgeQ6GPASOkgGu4wYo3wtvkQ8exf43s9+crAqhn2AX5IvjlMvwJ2Au7N1N9TNDkB2JZ8MyeH2fOJiXNtshIxQUYTW5bI/tvmNaUDaIERvLs5TN5BTODNNbH+AqLIzwOZ+htTkxOATUsH0BIjwCalg+jTRjT7u9ckbfsdLAGsXTqIlmjb71Zj2x/4FvkeeZ1JzCOYmam/cTX5JLxM6QBaZLnSAfTJv23v2va3XbZ0AC2yfOkAVNkHifkcucbSk4lV/R7J1N+EmpwA+Hy4d237rNoWryQ92aHA58l3PjuRmBsyO1N/k2pyAiBJUhN9HPh0xv6OB94EPJ6xz0m1qRKgJEkljQCfI2795/It4ACiImitTAAkSZrcCPAloj5NLl8DDiIK/tTORwCSJE1sCnA0eQf/zwAHUmjwB+8ASJI0kSnAd4hFrXI5gij0VdQwJgBfI57RtNFXiBKwGttFRMGNNjoQOLh0EA12N/DC0kEkeikxQGj4TAVOIG9xq0OJq//ihjEBuA+4qXQQiWaVDqDhHqa9f9v7SgfQcHNp799249IBaCCmEaV9X5Wpv1Fi8uCXMvVX2TAmAJIkVbEk8DOiFn8Oo8B7ga9m6i8LEwBJkv5pOnAK+dbhmAvsBxyTqb9sTAAkSQrLAacDW2fqbw7wduB7mfrLygRAkqRYm+Es4HmZ+nsM2Bv4aab+sjMBkCR13arAOcDmmfp7mHhz4KxM/Q2ECYAkqctWJwb/Z2bqbxbx5sB5mfobGBMASVJXrU0M1Otn6u8B4OXArzP1N1AmAJKkLlqXGPzXzdTffUQht0sy9TdwJgCSpK7ZBDgXeHqm/mYAOwN/zNRfLVwMSJLUJc8BLibf4H8nsAMtG/zBOwCSpO54LjEzf8VM/d1CDP43ZOqvVt4BkCR1wYuB88k3+P8V2J6WDv5gAiBJGn4vAc4AlsnU37XAtrR3ASvABECSNNx2Bc4Els7U39XElf/fM/VXjAmAJGlY7U6U4l0iU39XEHcT7sjUX1EmAJKkYbQXcBKweKb+fgfsCNyTqb/iTAAkScNmH+D7wGKZ+vsFsTzwvZn6awQTAEnSMHkncBz5XnO/kCjv+1Cm/hrDBECSNCzeDXyDfGPb6UR535mZ+msUEwBJ0jA4BDgKGMnU38+JJX0fzdRf45gASJLa7lDgiIz9/YAY/Gdn7LNxTAAkSW32SeDTGfs7GngTMCdjn43kWgCSpDYaAb4AvD9jn18HDgLmZeyzsbwDIElqmxHgSPIO/p8DDqQjgz94B0CS1C5TgG8D+2bs8wjgsIz9tYJ3ACRJbbEocAx5B/+P0cHBH7wDIElqh6nAD4E9M/U3ChwMfDFTf61jAiBJaroliUV9ds7U3yjwr8Q8gs4axgRgeWC90kEkml46gIZbkvb+bZcvHUDDTaG9f9vVSgcw5JYiivJsl6m/ucB+xKOEThvGBODd85uGz0uBG0sHoYFYGf+2eqpliXK8L8rU31zg7cRaAZ03jAmAJKn9lgfOAF6Qqb/HgDcSSwQLEwBJUvOsApwNPDtTf7OBvYBTMvU3FEwAJElNshpwDrBZpv4eJt4cOCdTf0PDBECS1BRrAecBG2TqbyawB3BBpv6GigmAJKkJ1iEG/1xvg9wP7Ab8NlN/Q6fJCcBo6QBapG2fVdvilTRYmwDnAk/P1N/dwC7AFZn6G0pNTgDuLx1Ai9xbOoA++bftXdv+tvcRCd5I6UBaoG1/20HZlLjyXz1Tf3cBOwF/ytTf0GryWgDXlg6gJUaB60oH0acbiPdxNbm2/Q5mA38rHURLXFM6gAZ4LvAL8g3+fwdegoN/T5qcAPyCuI2jiV0C3FY6iD7dA1xcOogWuB84v3QQCXzPenKjRGnbLtuauO2/Yqb+biYG/7ZdEBXT5ATgceCTpYNouFHgo6WDSPRxnAswmU8Bj5QOIsHngIdKB9FwPwSuKh1EQS8FzgKWy9TfdfP7vDlTf53Q5AQA4KvAT0oH0WCfpr3vtl5MLMOpsZ0OfL50EInuAN6Kj3nGcw1wYOkgCtqZ+H4vnam/q4jB/9ZM/XVG0xOAecDexHKNnkz+6WHgg8C/lw6kok8CBxHv6irMIxLfV9Pu7/zPgFcQyYD+6XRgG2KyZBftTlTjWzJTf38AtgfuzNRfpzT5LYAF5hCD3TeBfYlFIVajHbHnNJt41n8BsYrV7UWjyeco4pnxvsAOwBrAtKIR1W8ucQL7DbFIyZ/LhpPNWcCGwJuJ97HXo5srXt4FXAn8ALiwbChFvQ74PjA1U3+XArvS3WSqNqOJTc13OWl/2y1KBKu+fJu0v+2/lAhWfXkPaX/bI0sES9zJfbzHGHtpvwCWqfUIhlDTHwFIktptP+LKP9dd24uAlwMPZuqvs0wAJEmDcgDwDfKNNWcQj5N8yyQDEwBJ0iB8iJjjk2ucORV4De18NbaRTAAkSbkdCnyWfCWhf0gM/o9m6k+YAEiS8voEUaMkl+OJN0kez9in6N6rdJKkwRghild9IGOf3wTeTdTHUGYmAJKkqkaALwPvzdjnUfzzdUcNgI8AJElVTCFqTuQc/I8gqoQ6+A+QdwAkSammAP8LvCVjn0cAh2XsT+MwAZAkpZgKnEDMzs/lI8B/ZexPEzABkCT1axpwIrBHpv5GicmDX87Un3pgAiBJ6seSxGqPO2Xqbx7wLmIegWpkAiBJ6tVSxHK+22fqby6x+NSxmfpTH0wAJEm9WI6oxf/CTP09DuwD/DhTf+qTCYAkaTIrAGcCz8vU32PAG4hHCSrEBECSNJFVgXOAzTP19zDwauDsTP0pkQmAJGk8awLnARtm6m8W8ebA+Zn6UwUmAJKksaxNDP7rZ+rvAWA34DeZ+lNFJgCSpCfbiBj818jU333ArsClmfpTBiYAkqSFbUIM/k/L1N8MombAlZn6UyYuBiRJWuA5wMXkG/zvBF6Gg38jmQBIkgCeC5wLrJypv1uAbYGrMvWnzEwAJEnbEDPzV8zU31+B7YAbMvWnATABkKRueylwOrBMpv6uIRKKmzP1pwExAZCk7tqNKO+7dKb+/kI8878tU38aIBMASeqm3Zd6pCAAAAH+SURBVIGTgCUy9Xc5cTfhjkz9acBMACSpe95ADP6LZ+rvMuJVv3sy9acamABIUrfsA3wPWCxTfxcDOwD3ZupPNTEBkKTueDlwHPmKwJ1FVPh7KFN/qpEJgCR1x3rkO++fBuwJPJKpP9XMBECS1K8fEUv6Plo6EKUzAZAk9eMEYh7B46UDUTUmAJKkXn0LeDMwp3Qgqs4EQJLUi68DBwDzSgeiPEwAJEmT+Szwbhz8h4oJgCRpIkcAh5QOQvmZAEiSxvNR4LDSQWgwchWDkCQNj1Hgg8CXSgeiwRnp8d+NDjQKSVJTjALvA75SOhANlncAJEkLzAX2A44pHIdqYAIgSYIY/N9GLBSkDjABkCQ9BuwN/LR0IKqPCYAkddtsYC/glNKBqF4mAJLUXbOIFf3OLR2I6mcCIEndNBN4JXBh4ThUSK+FgB4aaBSSpDrdD+yIg3+n9ZoA3DjQKCRJdbkb2A64pHAcKqzXBODUgUYhSarDHcTg/8fCcagBeq0EuApwA7D0AGORJA3OrcAOwPWlA1Ez9HoHYAbwDiwJLEltdBPwEhz8tZApffzbvwBXAbsC0wYTjiQps4uA3YDbSgeiZun1EcDCVgbeC7wC2AhYKmtEkqQqRoG7gEuB7wIn4d1bSZIkSZIkSZIkSZIkSZIkSZIkSZIkSZIkSZKkZvn/JNh4kQPimn4AAAAASUVORK5CYII=;" vertex="1" parent="1">
          <mxGeometry x="774.4" y="480" width="130" height="130" as="geometry" />
        </mxCell>
        <mxCell id="Kjv4vyTBPtws4vWYZQJM-5" style="edgeStyle=orthogonalEdgeStyle;rounded=1;orthogonalLoop=1;jettySize=auto;html=1;exitX=0.981;exitY=0.399;exitDx=0;exitDy=0;curved=0;strokeWidth=2;endArrow=none;startFill=0;exitPerimeter=0;" edge="1" parent="1" source="Kjv4vyTBPtws4vWYZQJM-6">
          <mxGeometry relative="1" as="geometry">
            <mxPoint x="290" y="270" as="targetPoint" />
          </mxGeometry>
        </mxCell>
        <mxCell id="Kjv4vyTBPtws4vWYZQJM-6" value="" style="shape=image;verticalLabelPosition=bottom;labelBackgroundColor=default;verticalAlign=top;aspect=fixed;imageAspect=0;image=data:image/png,iVBORw0KGgoAAAANSUhEUgAAAgAAAAIACAYAAAD0eNT6AAAACXBIWXMAAA7DAAAOwwHHb6hkAAAAGXRFWHRTb2Z0d2FyZQB3d3cuaW5rc2NhcGUub3Jnm+48GgAAIABJREFUeJzsnXfYHUXVwH9vOhCSQKih9yYgVUqkN4VQRAQUAVEBBQWxIDawoPiJIiIKKIogRUBBijQV6R3pvXdICAkJSUh53++P815zc3PLnt0zs+We3/OcB8R3Z87ZO7szO3MKOI7jOI7jOI7jOI7jOI7jOI7jOI7jOI7jOI7jOI7jOI7jOI7jOI7jOI7jOI7jOI7jOI7jOI7jOI7jOI7jOI7jOI7jOI7jOI7jOI7jOI7jOI7jOI7jOI7jOI7jOI7jOI7jOI7jOI5DT94KOI7TVQwDtgCWA5YBRuSrjpMjE4A3gKeAe4HefNVxHMdxQjAOuASYAvS5uDTIG8DvgI1xHMdxKsHmwK3kP8G4lEN6gYuAlXEcx3FKy1HAHPKfVFzKJ1OAPXEcx3FKxUDgT+Q/ibiUW+YAX8NxHMcpDaeQ/+ThUh35LI7jOE7hOYT8JwyXasl0YFMcczwM0HEcKxYDngFG5q2IUzkeBDbEQwVNGZC3Ao7jVIbv4pO/E4b1gU/lrUTV8B0Ax3EsWAR4HRiatyJOZXkCWCtvJaqE7wA4jmPBbvjk74RlTXwBYIovABzHsWCPvBVwugLPDWDIoLwVcBynEmyo/PtaxreHEU/v0ByB1B9IyunAy4F0icm2wM6Kv78TuDyQLvUMBrYCdlRet1EAXRzHcZyU9CChWprQrkMi6/iYUr81IusXiiPR2X1BZP1OV+p3R2T9Ko0fATiOk5VFkCp/SXkPyRQYk9HKv387iBbx0dqhvU9Z+bXy78cE0aJL8QWA4zhZmaH8+2eQNK+xGIBuYusFJgbSJTYTlH8fewHwDLrY/umhFOlGfAHgOE5WpgHPKf7+4VCKtGAkUp8gKe9QnYQzRd8BmIUsApLySChFuhFfADiOY8GfFX97fjAtmtOt2/9Q/AUAFHvsOI7jOB1YGHiSzk5cl+ag24cS6FUvt+egYyiGo8+9Hzufw0Ikc9K8KrJejuM4TkKWR8LIWr3A/wwskINeH22jUzO5MgcdQzIDnf15ONotgyy8Wul0EbJQcAzxPACO41jxErAFMA7YHVgVOeN9BLgQuCsnvbr5CADEHs2kPhp4LZAurXgVGIss1nYHVkPGzqPI5J/X2HEcx3FKzDHovoBPzkfNYDyEzv5tctHSiY47ATqOU3W6fQeg6KGATk74AsBxnKqjndC0E2bR0S5oFguihVM4fAHgOE7V6fYdgDKEAjo54AsAx3Gqji8AdPgCoEvwBYDjOFVHu6XtCwCnK/AFgOM4VafbfQDcCdBpii8AHMepOosq/74qhYBquBOg0xRfADiOU2UWQleqeAowM5AueeFHAE5TfAHgOE6V0X7NVm37H3wB4LTAFwCO41SZbo8AAP2iZhS68slOSfEFgOM4VcYXADAZmKP4+wHAIoF0cQqELwAcx6kyvgCAXuAd5TV+DNAF+ALAcZwq4z4AgtYujwToAnwB4DhOlfEdAMEdAZ358AWA4zhVxhcAgi8AnPnwBYDjOFXGFwCCLwCc+fAFgOM4VcYXAIIvAJz58AWA4zhVxhcAgqcDdubDFwCO41QZjwIQvCCQMx++AHAcp8r4DoDgRwDOfPgCwHGcqjIYGK74+/eB9wLpkje+AHDmwxcAjuNUlcWAHsXfV3X7H9wHwGmCLwAcx6kqvv0/F+3iZlF0iyenhPgCwHGcquILgLlMBPoUfz8YGBFIF6cg+ALAcZyq4guAucwCpiivcT+AiuMLAMdxqop2AquyDwB4KKDTgC8AHMepKlpHtsORbfKqysrK++ELgIrjCwDHcaqKT2DZ8EiAiuMLAMdxqoovALLh96/i+ALAcZwqsiywUd5KlJzP4PfQcRzHKQmDgaOAd8n/zL0K0gucCyyh+REcx3EcJyY7AI+R/6RZRXkHWVgNSvxrOI7jOE5gVgOuIv9JshvkcWCnZD+L4ziO44RhIeAEYAb5T4zdJlcCK3T8hRzHcRzHkB5gH+Al8p8Iu1neQxZgw9r+Wo7jOI5jwIbAreQ/+bnMlaeB3dr9aI7jOI6TlkWBU4HZ5D/huTSXG4C1Wv2AjuM4jqNhEHAoksc+7wnOpbPMRBZqCzf7MR3HcRwnCdsCD5H/pNZKzgSGBLO+NSsAd6fQN6a8ChyI+Gs4juM4TiKWRZLP5D2JJZF70RfZycLuwMQAdoSSm4D1gtwJx3EcpzIsAByL1K3Pe+LSyGQkKiEkg4CTkMx8edurlTnIgs6LCzmO4zjzMQ54jvwnq7TSi5x9hzgSWIZqRD68jWQTHGh7exzHcZwysg7wL/KfnKzkTmwT5GwPvGmkWy9yNp/3PboH2MzwHjmO4zglYhTyxTyL/CekPuC/hm1NRM7qszAA+C52YY/vAHsAJyqvC5VlsRc4B1gq431yHMdxSkIP4h1u9VXbbPI9CnhFed2aSLih1YSX5UhgNPAPw3tyP7BKf9vHKK89A/m93jDUp16mItkE84imcBzHcSKxMXAHYSaSmqPZ4v19TVVeX7tuQ+AZQ73uQRclsBG2vhDnAgvWtX+Q8vqL+68bhTghvm+oW708CXxEcZ8cx3GcErA0EjM/hzCTx13ApnX9DVVe38u8ZW5HAH8x1G8S8PEE9+lQ7CbY6cDnmvSxm7KdfzVcvwZwreG9aZQrgZUS3CvHacrawHHIwH0S/ZeAi61MAh4Frga+BCzf+qdzKsYQ4OvAu4QZW68An2T+ZDNjlO2800T3HuQowWpC7gVOBgY36Wth4CLD+/IEsG6TfgA2V7b1QIt29gFeNNS5XqYBxyNhoY6TiA8gq8fYE5yLTnqRbcXamaRTTbYHHiHMGOqUbnY9ZXtPt7FjI2yPBO5m3i/cNY3v02XIdn0rVlO290qbthZAzu+nG+pfLy8j/geO05IBwE8oZ4KMbpYZwOeb/J5OuVkVuIJw4+aK/j7asY2yzTs7tDcKmVitbHgb2Yo/ALsdyveBL3ewA6SokqbdaQnaXBm43PD+NMr1yELJceZhKGEHnkt4OWW+X9UpI8OBHxMubEzjJLa3su2rE7TZAxyN7ZGA1b15ieRx9QPQhxYulLDtXZDjhxC//0zkCGVEQl2cLuAs8pm0XGzl2MYf1ikV44AXCDM2amFiQxX6HK7s40+KtjcCng1kaxr5N7CkQn+A8co+NH47gxHficmB7H0dcZYcoLTZqRjah9yluDIH2A6nbHwQuJkwY6IXmZiXTqHXt5R9aXehFiH/ncfZwPdINxE+ruxrgxR9jAHOI9zR7G1IyKbThYzE64NXTR7EV/VlYRHECc8qS12j3AdsmUG/Xyj7+3aKPqyjBDQyHtg5hc41tHUFdsjQ1yaIj0WI+1DL/bBEBv2cEnI8+U9YLvayL06RGQh8EXFiCzUGTif7QvAcZZ9fyNDXhwh3/NFMbkPKJWfh78o+98vQVw/wZ2V/WnkbOAIvMtQ1hHI0cclXLsMpKlshMeGhx8BkYP2Mul6l7DNJkp52jAQuUfaZRs7EJmXuH5T9HpGhrxOUfWWRx4EdM+jqlIA1yH+icgkj7+HJP4rGctgmqUkiL/f3mxZtumEL/5Me4KuIt7r1/ZiMRDZY8TNl/99L2c+niB+e3QtcgJRQdirIPuQ/UbmEk1YZzJy4DEPOxvPKpPkI4muQhqeUfWXdcahnV2wnvV7sHWS/qdTh1BR9jCVcSGgSmdJvpxcZqhhHk9+gcgkvu+DkzTiKEep2J/MWsknKRGU/Vl+LG2JbyKcmE4CPGukIUiNA0/+fle2vRLhqj1p5Gkm65FSE76IbAMcb9bu1st87jPq1Qrsat6rTfb6yX3cEzI81CVvoJY38FZ1z10D0RYcsjp2OIOwXby9Sja++aFFa9lL2fY2i7UUopo/WlXj68fkoY9jVq8q/f9yo39HKv3/bqF8rtPpo7W1FuzzrzdD+vk52RiBZ1h4iW3hZK97McO3HgF8p/n4RdO+1aUgu+7QMR86cf40uWZGWHiRh1o1kjwLQvgsWS/h3Q5AF2xrK9mu8BhyC7KJYsxtSlOxEkmc2dArI8iQ/Y5vF3DrfWTk0YZ810WQXi8FD6PTf2qjfsYo+JxH2JerMSw9wMJJdLcRX1yTgK0h2uN9lbOtbCW1aU9nuiwnbbcbawGMZ7Uoj40meFrkZ6yj7Szoha6ML6mUqcxP7DEN2et/L0F47eQnfaSw1SeNKf2vY53EJ+6zJLwz7tuBGdPp/zKjfHpJni/uuUZ9OZ0InaDmbeVPUDiJbkaBeZLHSiS2V7d6foM1mfIp8S433IrUX0hwJLKXsa3KCNrXvx8bxskeTNpdHKoeGuoc34k7HpWQUki2s3Y97G7ZbPSd36K9R0mQXC8ml6PS3rNS3HJ2do/5O81rpji1LIpOz9pw8qdyJLC6asSD6EL16mUnnL9/dlW3e0KG9RoYCv8lgg7XcjN6JcTD6SIV23vT7pGivXo7poO92hCstPQs5YmpXQtkpIAsgK+B3mPcHHY/ErVqHf/wR3cA6zLj/rJyJTv9vGve/CHJOOqWhn5eQMqZl9EcpE4OR7fhJhHmRvo58ofd00GMxsjmJTaH1AgPgM8r2Luqgbz0rAvdk0D2UvIU+ekY7DlrVZPgQ4keRVvczEuo7CIkAa3zfW97Dz+HvodIxCFgPyVe9DuHSQV6JbkBlzS5mzYno9P9ZID2GIEVktiG9s5CjYwfEASrEizNNmdaVEIevtH2+Cazaou2vKds6PaHOu2GXAnkO8IN+Xa0SB81BnvGkRwLaMM8PNGljReCNDDpfp9C3xhKE3cG6G1nUOM48aLcut8lFy9Ycg07/P+SjpmPIskixlBAvyj7gX8iiOw3rku1r7lmah6qepGznhA56Duz/G6sJZwLzHmNsgm3ugJtIdiRwt7LdrRuuXxi9Y3G9PEq2bfeNgNsz9N9OepHnRltm2akw2uxizVbMeXIQOv2vyEdNx4AFkEkry9ZsO3kJONBAz23JFjt/LxKGV8/vlW18qY1+iwPXZ9CvUe5Bdj8aGYneR6edJIkSuEbZZr1T8ED0O6KN+lnE5Pcg4zDLLkQ7mYo8R55N0FFv/6WpYx6S3dDpf1s+ajoZGQc8T5gX4nvIC3GYob77ke3r+l/M+4K+THn9J1vo9WEkJ4XVvetUyMe6vHAvksK3lWPtecr26p2CT8+g13Rg8zb3IQ2jkJ2fUKWZn8QzlHY1abKLFS2efXN0+j+Rj5pOSkJn8bsSOfMNgfbcvlHOZ67zYdKQ05o0Jj6qTcRWZ/NT0JXTDXEkMKZJP79UtnNc/3VfzaBLL7C/4l5oWYPyPgNOgVkM3UB5Nx8127IaOhvG56Omo2QU8qU3izAvvceBnSLY8YuMev6kvx1tYp6N63QYgW1Z38dJ5yMxGn1J407PcuMXrDal+slIoaPZGfSoLSJCE3IXbBr2u2BOwdGWIH4hFy3bsyg6G2bjITFFZgCSnXI8YV50byP57S1yzye1J2vZ4SPRnwev3N//htgWQDqXdIWMavQA38BuYTcH+CFzo6S+qLz+LrIlPortVLwg8CPkyCHE8/EcsGc0a5xc2QLd4Lg3HzXbMgD96n3RXDR1OrElnRNhpZXZSGy2VS0IDUOBfyv1bZzktEd1I5HzbauJYjqyMLNiS+BlI936kOx3Y4BPGLbZSf5Nfo50qyBJxkLZdi1y/OZUmHHoBsV1+ajZEe3X4ur5qOm0YAzivGVZb75ebgE2iGZNc0YCDxJnYpqDbZjks8zNZ2/JYsA/DPV8EzkyiXGPn0CSgOXNRxBnvhA2vo/kTVk4mjVOVA5BNyDOz0fNjmgzsFl76zrpGIw4pk0mzAvsVSScqlMWv1iMQY7RYkxQVnIlYSc6a+fEGDIB8T0qCqGfo9eQ3R8/Oq0YX0c3EE7NR82O3IbOjt3yUdOpI3QWv1PRZfGLxWpIeta8J7FOMhtxCov10t+UcA5ulvI+kuehiCyN7PyE2knzbIIVQ7tddnw+anZEW43toHzUdJCUpyHPLq+kdTrdorAl4ZIZWchrwFbBrG/NYugT+cSUXqRaYtEZC/yXMPdgNnAa2RxBnYJwFrof/8h81OyItl53pypdThjWR4rrhHgxPQl8NJ4pmdmTbKFnoeRGmqcijkUPElYXKvwzi5wQzmxzBgJfwK7OQ6M8SvM8DE6J+Cu6Hz1ksoss/AydHSfmo2ZXsxzZCuW0kneRsLIypjU9nPwntZr0IlVIQxUd0/Jh4BXyvy81+TPF8SXRMBr4LWEWm4/iOwGl5iZ0P3iMxClp+CY6O5KW6nTsuBz7Ces8yv8V8kPyn9zepph+MYsTNgNeUrmF4mVA1bIBcCv29yZUddVMxEryUXa0MdETgmiRnbeVf79YEC2cVmwM7GHY3iwkb/vtyHl6mXkYiWLJK+Z6BpJvfgFgn5x0aMcfkbwdm+TU/0zgAmD3nPq35FfIu9LSli8gO0fvGLbpREJ7HrtCPmp25GPo7LgxHzW7llPI/yvOxcUljGhqQkTBdwA604N+B2AEc1OMFgnt9lwe2eC6mU3zVsBxnGBsjKS7Lgy+AOjMCFqX1GzFQyEUyQFfAMRlxbwVcBwnGIvnrUAjnrGoM908CXaz7XkwK28FHMcJxvS8FWjEFwCd6eZJcCiSm92Jwwt5K+A4TjCezluBRnwB0J5NES/qbuZOYMe8legSbs5bAcdxgnFT3go0UsaEDTFYEkn/exC+SKpxGZIZ8IWc9agyKyJfCe6b4zjV4hFg3byVaKQo2ayKwmDgaOBSYDN8gVTPWsBhyD26C8mY5dgyCVgG8RZ2HKc6HI7ksXAKyo7AY+QfK1oGeR7JKeDYMwL5Wsj7N3ZxcbGRc3AKy0rI9nbeg6SMcgOyM+DYMga4n/x/XxcXl2xyKeWsv1F5FgR+gIRm5D1IyiwzgZ9TzJryZWYYMj7fJf/f2MXFRSdvAF+k4MfIhVYuIJ8ATkYqrzk2vIEUGzoXeQAcGxYGdkVyvI/B/XZasQawnuLvn0DqC3Q7OwKjFH9/M/BmIF3KzvvIvbkFuA6pH+EUiDUpRtWsKss9iAOl48Tk++jG6XH5qFk4bkZ339z3p0J0S7jRIsh26uEUz+bJ6Kv01VikX4rExsBtwNnAtyhuZcSyswtSlW51pEJdFmYgDrDnIV8vZWRR5d9PDKJF+eiWCqGDkGI8ewDLk30nbRLip3MO8uw4BWQAcCCyLZP3l3ErmQZ8LoVtuyEvsbz1byfvAEdRvEVXmVkY+AfhfrM/k31BkQcXobNz73zULBy/R3ffyrhzsjJSnyXE8zILOCGaJU5iNkGy2OU9CSaVcxHHxE4MRAbcnALonFQeB3ZKYJvTngHEOcL6ayyDDLkBnY3b5KJl8TgJ3X07OR81U7M4ErYc+pk5JpZBTnuWRibTXvKf+LTyGLBOG9uWQP+iK5JcCazQxj6nPXsR77faM5JNVmjDJj+Qj5qF4+vo7tsf81EzNb8lzvMyle6uG5M7g5Ht5snkP9FlkSnAp5rYtxXwWgH0yyrvITsYw5rY6LTnUuL9TldHssmKF9HZt3Q+ahaOQ9DdtyvzUTMVQ4kbRpvmKNcxYFfgKfKf3CzlLOQstgcJr5tl1O5kJHY/b/ue7v/dnOTEHONvRLLJiino7Buaj5qFYw909+32fNRMxfrEfaedFscsp8ZqwFWE+0GfV/79f5H4Yqv+HzC270HEa/wl5XW3BLzHVwGrNv6wTlNeIN7LbHIck0wYht6+H9G9eVBqjAT+he6+PZmLpun4EPGelz7ko82JwILINvIMwvyQTyNe9l9QXnc2MBzxpI458JLIucBC/ffvv8prt0CcpkJ50s4ETkU83J3W3ES88XJfJJssWIb0z0S3pmkdg/490Ee5wnqXIK4vWBkjJErHOPTnfUllKrKwqG0Pfkd5/f/V6Xkgct4da/C1kumIb0Q9/1S2Ma7/ukHAochLIISur/bft27/MmvFN4g3br4VySYLsmz1/gv5Eu4mPoB+F7AmcyhXNsqYi2ZNJkpHyQaE24ruBS5GEkTUc4qynWMbrl+bfCu7vQBs2uRe/kXZzsEN1y+KfLHPDqT3TfjD1IxRxHEEfZFy7cZsRzZ7H2b+Z7+qbIcksclyv8rk7b4Fdv5T7aSMobOlIPRkcz8wtkXf5yZsoybNvECHA+cH0r2dXEHrLIG/Ubb11RbtbIhk/Quh/xzk/pc181goNkcSLIUaN68hX9RlYh+y2/0q8MHYikfmQCRffdZ7tXpsxTNyMGEdn++jXIuiUjAIOJJw2e7GI9vZA9rocLWyzXZ5sg8lTuXBWcDXaL+N/gNlmz9u09YAJJRoWiB7xgOfp/3v1G2sAPwJ2xCnd5CF4ZIR7bDiMGzuwSTkC7mKfBu78/AtIutuwcbI+9xyIfAScDzJErgVkqKmaN0G+eoPuQ38Mzp7bWpXde0cZM4C7kKOGkKtoF8D9gVu7fB3lvm/e5EzwVDpYxdD7t1hwJeAOwL1UyZeBA4CPos4cy2esb0JyBfw7Izt5IXVLtFI4Brkvv7ZqM28GYQs7D5v2GYZv3bvRcKOF0AW0Au1//O2zEHCZMsWKlt4liFeFr85dM4H/oyyzbUT2LgwcEEAe/5D8uQmByjbbne+tQ0224pJpBcZH0sltNPpDrS+OknG2QkxDQjEQkjiHuvn8OCINjgBKcoOwDBk2/o44m2nDECqn72BnGM3I0SFsSnI18Ve2GbDeyxh/6DfAWi14l8buIx4oVQ9wKeR5CXfRxJvzIrUd1EZQfYv4InI9ndZ0T6nnehBtnaXAo5APhbKxpJIjo2NA7Rdxh2AepYk2w4AyG7rDANdup49geeI8wXZTN4G1mqi1yB0OxG9dJ4IByIJSELtcNyLVL7qxKbKdh9u0sYS5Pu79SGLnh0S2Fs1RgDfRZKyWN3LZ4EfYj+ZxiBkMrAryT5ZxGYNwj6bP4lnihmrAmdgVxl2FnAPcjRZlA/pUrEmcD35TiA1eQE5S61nCWUbnTKnLYE+61YamUTno41VlG2+1nD9MCQlaN6/W03+CqzYweaqsA7h8mDUfusQX40huYOw4+tu5PktA2MJl6ejJmXLeLc/4ZyU+5DxV8aFcy6MBH5OMfLR18uDzJsQZC3l9c+1sXks4mQV055f0Trf+ShlW+/XXduDvvZ6DJmGbNuWsZZ9UkYCLxP+Xo6nPBMeSObO0PfkWYof/vZx4kQalSnmPVYegBvxBGZtGQB8BjlzD/EDTALORM7r0rbxb+ZOmmOV197dxOYeJIY+xgBsJvcAK7XQS7sAG9F/7Q8z6DMLySr4DcJV6Xoe8a+oIscTb+z8IpJNFoQKFW6UCRQ3BO5osr37NPKfOCaZcDPxnhkvbtaCTZEQuBA3fQ6Sg78Wv/yVjO1diCxW9lRed02DzSOBvwWyWSPv0HxC1C7EVkISiWTxXzi8rv8xiBNmKH+I62nu21Fm7iPeuHk2kk1ZGUS8ia8P2Wlql+8jNgOwj4LoJM18gorIaOLWAijb0UhwlkQm51AP6J00T3V7csZ2f4HEAmuuqY8b/iBxtiWTSi/wS+Z1UnxU2cYxZAv3a/VFORbJxhjC7pnIWBhBNQh9tlsvZYmuWJz4z9Mc4MsxjOvAMOAS4tvf6BNUVDYg7n25No5ZxWcw8iWeNed0K3kdiUVtdebSQ/b0u9oc/qf2922ZFe99bB2+7mKus5x2ayzLIu7vtM/kNxCpvPi2oa2N46UKRYaeJ8z9aSZlCQtcE51djwKnK69pJT8nvwyVo5GEX1ltmI4cH2iuqfcJKjKrEu956aNcvhHB2BEJzwpxgzVfdEPQV73LIj8B/mDY3gvI7sZIbFf5E5Hjjcsi3Zf7SB5GNRr4LeHqPtwObJRQlyKiLeKURcryNaP11bmx/7pvYLM9fDG2+TySsBLwhIHubwMfRvyetNeWYVdtAOLQGuuZ+Xocs4rJSoQ9874OWe1rGEG6mtdpxDIb3tXMn2zjCCTxhEX7vcTZTn6Z+cMrk7ABNl83zWQO4ixaxiJD2xNnLPdRrHPuduyBzq5L6q7dH5tn6mbihYFtjI0j9fPM6yMzRXl9M+fiIvIT4jwv0yhnHY3MLIgUlwkVZ/ks8pCnZWnibp1mkdlI0Y5WW9UboU9PnJdMIVt1tR4kZXGo8MmJSLGpMtU2BziH8L/d3yjPcckh6Gw7o+H6bbCprvgY4XNR7ApMNdD1PuZPp/2Cso2y5IoYjs1uSSc5IpZBRWIfwiUlmYpMhhbba2sQdysojbxBskpkI4FLC6BvO5kN7JbAliQsDPwf4eoNPAhsZaRrDAYjjrWhfru/UK5cCl9HZ9+JTdqwSq70OlIiOwSHYhNO/A9kUmxEG2Gys72JwRiDhESHeF7ep3W59MqyLhIzH+oldBGwnLHOmwHvBdQ5i9yMfqv8S9gdCVjLUUpbkrAGci4dQt9epEDTMgH0DsVY4I+IU9tEZALTnmm/2H/tE4jTbBnTKp+EzuZjWrQzBpvjwinARwzt60HSh1uM89/TOm3tdcq2PmVoYwwGIjpfiewITwReQWfz9P5rxgMPIE6gRU8OZcpgZDCGSmzzILB1QP3HBdQ9jfQiZYnT5pLeGDkiyduOevl1SluSsgfhbH4XCf8sK9pdkrIdfzTjd+hsPqhNWwujnwibySzgcwa2DUGqX1q8Z77boS9thdIihEFmRetAenM+ahaDQYRz8nsb+CJxXkifC2SDVt5BvPGzMgoJP8nbnj5kezFGYYxhyAst1I7ODyLYYE0P+h2Aspzzt0MbzdLpaGowsrNiNY7S3uMRwA0GOsyk/aKnxmnKdr+f0q4isQM6m2/MR81icAL2L9rZSNhX7PKSxxvonkXuRwryWNGDrMhDnZMnkQeJHxq0POESoWRxPM0DbShXL9VYAGjzWWyWoM0eZIKzGEfnIIsKDcsgz1PWvicjYdlJOEHZduidvhiMQ2fzjfmoGY6kX2tLAMcG6L8P2LdfuoklkFS11sykc0m5pF50AAAgAElEQVTiUKyKeBLnQS/2CVl+hpwX9hq3Gwrt796DhK69HUCXmGg/HpLY24d8JLyERA1k2dU6CPEv+DhyxNSJdZEw4Kw+UK8BH0UWEknQjoPYH20h0Dq7dm3Fvy8T/4vSxSVvKVN0wGj09lWhVoI2Jl77Et8FfYx8M3mAzo6+22GTPfURZHdMwyeVfdygbL+IHIjO5tfzUTMcSb+atgyqheMUk6JWfmtG0myL9axorURkarsYSZmDPsXxtYhjctaX//pI3fh1Wvz/ByAFxUa2+P+T8h/Eue0l5XUTlH9fhR0A7WJwcSTvTWVIugBYOqgWjlNMyjTu07yQ1zfXIi4j0Z2vTyTdkc79yGLw8RTX1rM8kuFym4b/fhzi7Z/1+O5CZMciTR2HbjwC0Ib9DgQ+EEKRvEi6AJgZVAvHKSZlGvdpXsgbmGsRlxDn/614AdkJzRoKNgrZVfgkMqH8Fvgx2R0yf4rEuact1NONC4C0acorQ9IFwNNBtXCcYvJM3gooSPNC3p5y5wKIuQAACd3dCSkAlIWhSPnwe4HDM7Y1B0lD+03knDot2nuzEPGLIFmTJvHXTuZa5EjSBcC/gmrhOMXk33kroCCNh/JoyuXn0EjsBQDIF/b+SBa4LPSQrVYGSP2VjwG/ydgOiKOjdvegjAW16kmzA7ATsoCrBEkXAFcj3raO0y38h3LtfKWtRLa/qRZxyWMBAOJH8DUkOiqvMNHxSNTAFYZtdtMxwBDSOcEOx67OSe4kXQBMB74XUhHHKRCzkS3VMpG2POsBSArcMqKdgLSe7p04DYnvn27cbieeRnZu7jJut5sWAGuhT9BU44uWiuSJJnnK75CCIY5Tdb6B/cs1NGkXAAsjJXXLiHYLOkTSo8sQXwrrxUUr7kScEUP4p3TTAiBLBMy2SMKm0qPNnnYQ8CuyOZs4TlGZjqzuT8lbkRSkXQCAhKE1KxFbdPI6AmjkDmRSfjZQ+zUuRxYb4wO17wuAZPTQvKx06dAuAOYgpV43Q2JOY616HSckzyEL27WRsKyyMZR0Dk01lkTOtMtGURYAAE8h2/J3B2r/18hxw7RA7YP+fV5mJ8CsOTDGAR+2UCRP0ua4vhuJYwXZQhyNfS72vBhO8vzZIKU/1wykS2jWQCr4JeVNyu013sj7yKQwI29FMrIq2Z+/Y4G/kD3ZTUyKtAAAeAtxzLsQmSAs6EN+m58ZtdeObtkBGAJ8yKCdM4CNKP/7w6ljRbonP/Qy6GwN+fXhpEebx72V3Em58gL8F519a0fSa3FkMrX4Tf5JvI+rY5S6nRtJL2vGYvPb9CEJmEpLVb7aLcnbszgmWt0XoGK5sCuCVUrfDwE/MmorBkVwAmxkJSRboFXluO2RktfaynVp6JYdgO0N2/oqsLNhe07O7IRuBfgk5c2INQY5wtDYm7VMqWPPddh90fRSnvLc09DZlTbsKykbITuCVr9FvdxG+Al3N6VOdwbWJxQ3Y/vbTESO4UpHljrXNQYAmwKrkX2V+h5y/v5IVqUyoH3IVke26fagXLXV10HO/7VjYDHgZXt1OjIK8T9Ymuzb1G8iRVnK9Hu1w7KoTw/wB+Q3vt2wXWsWRPe+eRdZ7Ibio4gPRahoii2Q3+MjiNNqCLrBCXAUNuf/9SwCXImUDw8VoVFI9kdeFNar3Xux/5GS8uWEOjbKM8giqAxsgTzsaezcIbKuCwOnIw57lmNsFnAWMCKeKUFYmTBfnJOQL9qisjz65zMUn0EKR4X4HRplAuEccVdT6vJOID1CcgjhfpsHsTv6KTxfJexAn4GsqmNzQgpda/IGsHF0jXXsj9zbtDbG3B5eANlmDDnOHkZW8GXlM4S7N29R3OpnH0RnS4jETj3AD5V6WMhUwqSjXVSpRy82u8gxuZ6wv80ddMEiYH30Z8dpZBKwRCSbavw6o85TsQsBsuYoJJdDFvtipsH8aUZdk8pFsQwKwJ8Ie2+mADtGsyY5O6Cz42rj/gchO0gxxmczmY39szigv12NHrHfz1lYCr19aeRRKu4r9XviDfQfRrKpxgUGOs8CDo2sdzsGkn1hU5PvRtJ5GHJuG2OM9SK+HGXkBcLfnxnAfpHsScq+6Gw4z7DvEcANyv5DyY+RnQgrxiv7X8uw79AcRbzf5UVgvThmxecZ4t3IeyLZVMPSo/pEbB/ONCyIpBC1sunUSHpvaahzEjkyjlmmhDr/bya9wP9RnDwBX0Sn/y+N+l0GOevNej+nAOcYtNOHLG6GGNn3uLLvsUb9hqYH+TLXjvksv8tUCh5RkzYPQMxtn6Uj9gW2oTbfQrZorR5OLYsjNe33MGwzVuxv7K3FLKl082J35d9nKV3bA3wduIb0pYctySML4AeQM96sX3avA1sDByM7hbMztncA8ruMzNgO6O9TWSIBdkafCOpsJLIjLQshWSFPJr85IAghPP9byUORbKrxoqHuNfkXNg+nhpWRHAXWtlwTSf9tA+jeTr4axyxTbkJn45XAScprmslb5O/ncio6nQ/P2N+2iNd71nv3GLBCQ9s7ApMN2n4EiY7Iwt+VfX42Y3+xSOP8tzlyFHl7imsb5SEqUkEQ4GJsX77t5LRINtWYYqh74wBYNpINmyEv6RB2hCp20sgI7EP/2knRozcaWRy9Q9NhyJf875TXNZNe4DdImGYenJdAx3r5RIa+PoXNWLyJ1hEnVkmEXibbDsUflP19I0NfsfgA+u38J+quXwJ4Xnl9M5mKHF3lfSycme2wfwE3k5nEdc4aGsiO+ocz9CpwTyShUigbQpc8reecQDY0yk2R7LFEG8/ci5xfg5zjX6K8vpW8COwa0tAWXKPUM2361+PIfhbch2wlD+3Q10roz+CbyaQM9v5M2VcZcuH/Gf09PK6hjZWBl1K000xuobwF5P7HmdjcjHYS2zFrjKHuIR7OThxB+DCXyYF0b8bihDmSqZe3kIe7bGi90O9ruH4QNhEvNbmQuQuMGNyt1O+DyvYHIqWhLe7NyST3t1oUmSCy9vk+8GmlzSCVBzX9/D5FHzHZAH3o83Sa+7msgt3x9wzgeOLUeAjCACREL8Q27XjEsSU266bUN9bD2YoexEM7hu4xcqrXszxwYwA7+pD86qvEM8WMFdG/1E5o0s5AxNHJ6n5OQRxfY9TGeFapmyYueyHgCmX7zWQ28KUUtg3DZoemF/k9NHxO2cflKeyLSZqz/7PbtLcqdjsBfcjRwseNbFVjcRaxFJKVajUkz3IWJiIhNlcjL5PYbIt4zcegD/gOEsebhaHIVnnMOO2lkayHMdkY2TlZlmwetbORs9YbkQVAGfk+8D3lNZsgKbYb6UFC5L6cVak6nkMmnkvIFnnQjknoHGsXRL7sOrEE4iy5aRql6piO+A5clvL6AcjOwVcy6gGSsKi2O9iJvYC/Kdq+FfhwGqUisBMS1q2hD/GhaFePZhlkjrKswfEf4JuEyVjpJOTj2K3sksqZpE+nuQgycGLrvE5KfZ3sDEB/LPI8nRf7R2N/fPQQ8LEEfWsZjO5c/r2E7a6OfmehmYxHPMgtOJrs2Tv7kEXNQgn620rZ7mPZTQzCYNLla0i6YBiBbc6Y+t9pw7RGO9k4DP2L1eKleRXJHs56VkCf2KKZTEJfGGgrpa6OHdqSrX3IWWMSxhEmCuZ+bMMGl1L2/1KCNrMUyKqXEEXB9kZ2FLLqdjedcziso2zzTRsTzfk26e7Rloo+BhPGF64X2YUJHjZosTJfAcl2tAHZk0K8imxT/oV8yip+C8nel5RTkCODi9BP4I3ci7zckzxQGyCLhqzJa15BPLhPQzep741umzArPUjilI8gL6hO3tTtmINsUd+ExDzPyKxdXG5C91v1It7lSSZBEGe5v5M9nrwZdyOLkWsztrMOupLhD9C+qNHHEE/xrA5ZdyMLnbcyttOMLZHfJWsirueQImtPtvj/l0R3vDcbOZLry6iXJWsji07te+Ia0hWgOxgJibV26OtFjtG+j0SHFIoFkDKtFttTjTIDOR9Pm6kwLT9X6llzsNkEmbiz2v0csEYHHXfGJkd+fV6Cvyqv/XwHHS1ZC73Hd1J5BbmfZWEz9DZqz0BBJpkrU/SVVG4lW0lb7Tb1P9u09WVs3mFXkP0joBNrIO+IrLq2KymsPV7po1jVNAeSLnFPL9m23tcDnkrRbxKZjfh5LZVBP1MGoo/DTSOnxzKoH21ltcPqrrXKvDeB1ttQVnXHGzMTaquafbPtXbRjdfTFSbQyk/IsAv6G3r60uch7kCQvoap+ziGdhzyIo5qmr2bVHgegX/C3kt8Qr0bCkkh9lKw6T0N2PpoxSdnWqrYmZuIbpLsfFxv0PYKwuUvGIx+buaM9K88i20WyCWRbXaNbY/jGaMSzPKvN05Ft9nqOxyYhSbPCIT9RtvGztnfRjhuVeqWVl8l2rBCDddB/qU4gu11bYvPV2UzmANuk0Ekbqtb4ITEMOWbMqn8v8RbD9SyE/l3V6v4f1aR9rSPkh+xNTMVWpFuwvsf86ZmzsDs2WR2byesUoP7CvYQxrpnErNV+h1K3bZu0sQD6LfVWD+fRyJacVax2q+qEX1O284dON9KANZQ6ZZW8c9t3Is2W/MlGfS8E/Iowx31pwm61yWp+UHftosDNBnq/j4T55cUg7BzQfs68x613Ka9Pc25uzdLAa6Sz/zsB9BmNzF0h3lX14zk6g7DZhk4qrZxVQqA9w2nlpTkAia22sP9pgzZmMe9xRSOfUbZ3RZu2rPikUqes8t0INqVlG/T2zMC+wuFY7AtMzUbvPKVNV1v7yl0RCVvLqvM7NF/858G3sdkZvJi5CZz+obzWMqlZGgahL4xVk6cJm7jqI9i8w+vlnoD6diSNk0gWeT6OWYCUwtTo1ukFewxhvpo0MhWJLmjHOGWbMRLoHKzUKav8MIJNaeghnRPkGYH0WQDxSrasN6Et+a0tWHMAdsV2XkKKyxSJT2OTkfVmZIdEW2jJIllRFk4nnb29SLKg0AxDjnCnpdSzUV6JoHNbnsfu4e8kN0SyaSD6yTrJ+eo+2MTwppE3SOY0soWy3SeaN2PKlkqdsspBEWxKw6fR2zILCf0LybKI06zFAlf7BaYtWXsqNvkNHiBuvQMN26N33msmjyPpfTXX/CiCfa1IG+/fhzhvxmRl4FKyf0A/FFnv+fgFNi/dJPKFSDYtrtRLk6p4LPrdhazyBMmL3GjP22PkaBiMXeGNTjIDSQFbNBYjXVnncyPquBHZnDXTvMxuzdBfWrke8fIuMusR75mpl9/GMK4Jh5B+Mn2a8GGbrfgQ6Y8s+oi/cJmPMcSZ0J4gXrWkNZW6vZCi/VDe1I1yK7qEIYsp259NnBwNByn1SitFLWl6Lnpb5iC5E2KzBfJlrn0hp6lBYFEyVyPnELcAVhaWRRZVMe+PRQidlnGkD1GdjS7jXyh2Rf9bzca2BkFqtiNM2tCavIZkdIqFdsu5WWGVTixF+AiKS9FvqaY5/siakSwpP1XqpZWrKWYI4E6ks+fPeShbx9rAH0l2Jv0g6Ryw0uyKpJUfYl/LIDQjkVwfse7Rv+KY9T92I9uxqrZCYkgGIPkY7ieZ7iflo2Zz1kTCkyyLiMxAvnysPZg7sbtSzzQZ1gCGI5NOiAfxFNJ/mWvzoK+esp807Em6wh7t5DXg6xTzy24RZIdJa9MUinNGvQTydd8qac3dpHvGB2BftKiZzELyDZSVIeid+dLKA5FsAsm9ksXh8UqKuaDrQXYEWoWi9zJ/uGZhWAL5YtkXKUur+UGmIZPvvkhojabEpyXaULgLMvQ1CH32vXYyh+yeuNrwLqtqZxpWRlb/+6L/vaYh8cp7ISk/Y2VuS0OajH99FOvLpp61kWRTNyHPzf6kr4C5KOEntCkUI7Y9Kz1IufHQ9yuWV/qnybb4e5ZipS1uxVbAr5GojFuRiJ5CZABMgvY8uRep1Z03X0en92kZ+1sC8dK3eABvIfuXrDZ/dqfQwtBofTb6KKajXyNHkv7lFjKeuSisRtjJ7HXEsbFKHEbYXZPpEWz4EtkiTt6lIGfnVUdbqrOPYiTVOAmdzsdn6Gs1pGyo5UOY1UtZm2nuoAx9WbA++nt0SC6aJmcD5Agsze+/Vw765kGagkhJ5XEkWVAV2Q3JCRLq3oXyqB+EfA1n0W0WkpDHicCy6H+g3MMagN+h0/nIlP1sTrgCN1nilM9R9vXVlP1Y8SH09+cJCnqGhiycXyTd7359Dvrmxa6EeXZuQY4XqoxV1dJmEqJ89ChkbGfV7dAAujktWAn9D/Qu8bzKW6E9d90/RR97YZcNqpWkzVSmrYz24xR9WLID6e5PHsVbOrEA+vzrNZlEdb9am3EQ9s9MfRrcqmNVtbRRspTSbcZqyII9q155v6e6jjRbs31IsZE80RYI0aaQ/BJxvJf7SJer/DhlH2cq27cmba2AWaSrQBeKHrJVpjswvsq5cgy2z0phPasDYlW1tF52NNTvU8hHYVad8p5TupKtSPdjzUYy5uXFoy30aiVJHYUGIFXZLB+2JKKtVnaosv1LFW2H4CjS35vxyHl7EchSk/6SHPTNmxOxeT5alcLtFqyqltZkPwOdhiPppS30OYtihvtVHm1hmXp5nvxqHWs98ldI0OZQwpWETCKaeuV7K9u+MWG7oTiFbPfmHfLPBpZlMnuV/I/N8uAMsj8X05DkK93OAKROgsW75oiMumyEvhprKzmH7tvVKQyHk+3Hu4X4mdl60Jc4Ht6hzUXIlu/ZUn5D57j3bZRtPtyhvdBYZDqbiix88uB7CXVsJr3AzvFVLgSXkO03n4CkLXbmYlG19Hsp+x6K1Le3KjF/Oj7554rFdveVSCarWIxU6jejQ3sroD9SaCaTkS1iC9+BK2gfqrOusr3XOtyDkAxBvuAtXhi1l0ZMJ7AsFcz6KG7p4hjcSPr79ixxM1iWiaxVS09N0edYbOs6fD+FDo4xV2HzY15BvEJAKyt1e7VNWxsgk2NW+19hbuKKcdjE8N5F62Q4Y5Rtvd/mHoRmtzZ6pZUHCF97YgDwy4x6XkZ3f+GkLXRzN7BkDvqWiQ+Tvsjb+Yp+RiC7khalpPv62/lSKosdUwZjU5O6JncSJ3ubNqb8wRbt7IB8tWe1+xHmj6vdBJvMgc8h5X8bGZKirYVb3IeQDCJ9yFwnmYl8yYSwawjyksyi36MUvyRtaNIsrq8jn7FaRlZFSuVq7/G1CdoegEStWHwg1WQq3ZMEq/Dsgv1L+RnCp3D8iFKnfzdp4xDSl6dsbHtUCz2tYnjH0zyXvzb0ZsUWeoZicdLnydfIy8iWqBUjyZ7Q5C26K96/FdpMiWdQ7LoPRWQp4D509/meDm1uB/xX2WYneRH4YHZzHQsGoh80SWUacHBA3Q9Q6lMfftUDnJDSrkY5n86+D4thE8M7jflXzs8r29i4g65ZGIUkffklEklxOzYLLI3cSPbQ1LXIntBkJhJe2+0MR3ff3s5HzUqgTbn8XIt21gD+rmwridyOH+kUhtHI2WToF/LFhAl90saUn9F/3WDgD0a2nUTyuFWrGN45SMnWGvcqrw/liX4wMNHAPiu5gXQhg3uRPaHJbOATKfquIiugu3dP5aNmJVgV3b2e3HD96khZd+vkZ73IMV3sSDGnn9HA55Ef4S9I2J5VCEcSeRWpCW3JD5Q6/Ag5U7zWwJ7ZwBdS6GwZw3tyf3vXKa/7ZAq9O3GEkU0h5DqS7QgMQlKQ9mbsbw6yO+UIG6G7f7fno2YlWAT9eB1CuIm/D4n88fwNOXIEUis77xdxH/JVtqaRXb9R9v0z4H4DG94Dds+o+1ex8ab9C/pdBWvP21WIu5hMK/cixxPNvkJWx8ZJsRf4rP4WVpqd0N3DK/NRsxL0oD9yu4xw6c7vQurMODmRJfVqKJkJ/B/ZPXy1udgtJty3kOgDCz5BthjetHadYKR/DeuUyeehr3KokTeRmPwx/fofik24Zi/wxQz3sarsj+4+npOLltUhVOVAjcxEkgwNCmyr04ZlSF+nvNUL7j3D9l4FPk16b99/GuqSRJ5CvnYtyRLDm1Z+bWyDZXjf28wNIT2SsDsLM5HQUIu2eunuHPXtOBLdvfx5PmpWhseI+z5plIexrzLopOCb2P6w5xGmNvWTSJypdrVoHZ7STu4gXL2DtdB78meRC431tyj/2YdMouMa2t4CyQQX696kEW0Bp27jeHT381v5qFkZbiGf52Am8BPc0a8wWMZevwMs29/uKqRLOtFJnkHi8gcntO+lADo0k8uABRPqlJY0Mbxp5Xpj3f9tpNexLdofjkRwZHXOCyGTkFhppzW/QndPD8tHzcoQI7KrUW4C1olhnJOcrElMatLL/F6cSwD/MWq/UZ5DIhY6rSSnBeq/Xk4jXkKS4cA/Ith0n7HeX8uozxzEKbITu1Cs3YCXkVoMTnsuQHdfraOFuoWFEL+imEcAbyKOtV7Ct4BY1Wg+rkX7g4CfEu7L7E1kS6mZF+mCgfqsSS/w9RZ2h2QQ8PsU+mrkBWOdRwCvp9TlNWB7RV/DEOeiGIu/dvIQc3fEnPZow1T3zEfNUlKb9C/B1j+rk7wP/AIJO3QKyqfJ9iPPIdkkuAe2Vd6a6XEVsCtzC6osF7C/GcB+CewOyXcJt7CaGkDfLdGFmk4EvkP6SJAVkSiQvI4F3kGO2L4ArJbShm5Bm6hqIrpFYbcxgnwm/T7kebsYe2doJwBDka+9ND/0q+gewmWBa1L2pZHnEedGbWyx5uWztcLukBxEOC/4EGV016Z9ZMbziAPixwz735A4xyad5AXgd8C+hHMWLSvPo7+fM5FjQEdYD/gGkuY6r5wbt9C8FolTYDZDl9b0bcQLt10N+lb0AJ/DprJeJwnx5fcC4UvLatmRMPdzmYA6r4Bs434SKdi0KbBowP5AvsStypRmlTlIhMppyD1YIaDdZSBLWuVatstuYySwN7KofJl8x/OtSMVUp6R8APkyazZp9iIe/X9GXtoWIRzLA5c36avIcj9zE8MUjfWRHRlLe9eLakEYhiBJZm4m//HTSV5Ftk6PRhJJJY10KTtDyX7v/o44yFaZxZEaFKcgRyahMvNp5FbkA8SpCMsgX2T7INv7G9C6hK0FO2MXIx5SylB3fHngEexs3jau+qashOTsL0LGs7QyDakO+WskdfCGdK4oWUbGYHO//ku1nC5XQny0ziT/xD310oukYt46nOlONzEEcSScRP6Du5n8gfJ8jY1CzgAt7N4nsu5ZWRypaXELxcwHYCEzkYnuD0i9hrHIVnCZWRe7+/MaYUtZh2IFxO/lRKQQ2XjyH2uNMgOJPlor0D1wupzRSMhgbK/VdnIC5YtfHQqcT3bbD4+teApGIBkir0Ff4KRK8ipyhHca4uuwLeWpqb4NtvfiPeRsvIgsgOyq7o/sUBV1sm8mqwe4H44zH0sj257vk++An4kkSvoOko+/TOkre4CTyGb/t6NrnYzVga8gVSPzHiNFl4nIMcLZyDj+FJI6eWn1XQ/H3tjb3Uvr3CQxWARxrj4EKWp2FZKgqihOqGlkVdM75ASlbF+tzVgeOAaJGkgTcWDNdKSozU3IS/Ue5NiiyHwRSbOaJlPhKcj9z5uFkBwCH0XyPOTxIvoPclZdpa+gGUj4Xb28guwmvI5sp0+PoMehyDl3CP7U3/5M43YXQs7oV2zyzxWpZvKbzZD3n1MCqrAAqDEaOds9EjnnLQp9SJGiu+vkAWQrukjsjsTWa2sVnIdsr8dmEeRseytk52Uj8isZegsS8npr//9eB/HE3ovuqGY2CVkI1MvrSCjw28gOw0RgAukXw99Czr5DcTNyvv52h78biLxrFkd2SJZC0pkv0//P2n9bqv/vuo1dkXwaTgmo0gKgxoLIhPQFihuiNhN4HCl3+VCdvJ6nUkhY2ZXoFlD/QB76kCyI/JYb9MtmyCSbd1z3fciW+bVt/mYF5i4GtiRePYii0su8i4KJSCTDZGQnofHfJyG7EJ9CstaF5BlkETyqjRQ9yidvDkQ+CpwSUMUFQD1jke3tvSlHaNQEJJTnqX55Ggl/fA777clW7IHkXkjKXciEbMFgZGt0dcSL+IPIhL8GxZo4H0PqCNSqZCZlceT+7oRU/uvGL0Sn2hwNnJq3Ek4yqr4AqLEE8BkkJW4Zw1NmIyWLa/ICktXrpf5/voxdXv5NkGOKpDyDLod9bZt0WaQOw6rIBL86cj5a5FDKO4BfAn9FHLWyMABZ3OzQL1si3t+OU2Z+iCyOnRLQLQuAejZFtqn2J3xa2ZhMR0KFXu//53gkwc2kfnkX2Vp9t1+m9l8zA9mWndzfzkrIjkNSJiEhWou0kNHI+egyiINcmaIkQHw1LkUmfs3CSMswZMdqByS51obkf8ThOFp+g/hiOSWgGxcANYYikQO/zluRgvEexYimyJu3gbOA0xGP99iMQo5W6qXsyXyc8vEUuqiWv5B/BVQnIXl5TReB9xHHO2deunny70U8+c9FnMGm5ajLJMS5sOZgOAA5vtoMqaS2Wf//9l0CJwS1Eu4vITtgSXG/lhLRzQsA8MHqCI8hRazOR154RaQXeLRfzu7/byORyI0NkCiJ9RF/im5/rruN15HCP6ti4+M0FTkivQp9Ln9/p5aIbn9ReL317uVtxJnvPObG75eNyUgWyuvr/ttgZMt2I6Qk9TqIY2dZUv467ZmMFPO6r04eA44Hxhm0/yqSE+T+/v/dKS9CI74AKBHdvgBIO1jfQI4QVjDUxQnP48DV/XIL2T35i8gs5u4U1LMcUs67FnGxWr8shx8jFJH3kPH6KDLBP9IvjTtUCwKXYFPX4G6klHt9PhLtAqBKjtWVxxcA6VgSSQBzEbJFtk2/LG+ilWPFDCQlc23S10Q3VI1auOg1Df99GLJ1XL8oqEmRagFUkT7ki/tZZGw+iUz2jyKhvr0drl8auAKbyoaXIGHSjWmdtQuA4WExQB0AACAASURBVIiD9fsGOjmB6eYoAJCz1EMyXH8ukkO8NtiXQ4qo1By1NqAcCYiqwhzkK+lWpAjQP5EvKScdQ5HwzWWR3a5lmZu/Yfn+f/ct39b0IaG4byCLr9pE/1z/vz9P+onyg8jkv5yBjj8GvkvrpFbvosuAuAySDtopON2+ALgcycyWhVuQHOITmvx/w5B47vWQB3Y9pK758Ix9OsJUJBPhbf1yJ/KycuKxALI4WBLJdLgE4ltTk8X7pfa/y5YHIgm3IztNryOFkt6o+2eImh/jgAvI/h55H/g8nVP3Po9k6EzKekiac6fgdPsC4BYk+UpWngV2Q9L2dmIAsDLisb0ec723VzLQo8q8h2yPPoiEb97W/8/ZeSrlqFkYWQgsipxfL9T/30b0//uCSA6EhfplOOLQuLKij3f6BWSSqw/nfJd5fT+2Jnv2yUlInYIbMraThGOQ0sFZU2NPQOpTJHGAvQfdMcO2SGVMxyk0j2NXB/sdJItbWkYii5HPAD9AwtJuQ7bS8q7xHVNqTmx/Ab6NOCWtgjuqdTOnohtDX1G0vQPy7FqM28PTm9iRwUg5ZItn7DHkmUrKtcr2LRwSnQi4E6Ado5DKeEciGeS0TEZW481W5AsgOwQrIV9CtX9fnrlbrsNS9JkHM5Hz0Bfr5IX+f9ZqGxStVLKTL9rnVOO49k/EX+cqdJNiI4OA3wJrAl/FNsJkEcRJb3uDtm5Adis0ZZk9EqCidPMCYADyYFlSW6WviWTRsnoJTEdW7Y+1+ZvhyEKg8Qy29t+WB3Y00qeRGUjccK3Ma+M/J/T/8y3kXLSTd7Pj1BNyAQBydLcZUt3xw8prGzkKiarYH5iSsS2QRclVyDslK2cAX0J/bOa5AJzKsShht7KvQc41i8DSSIxvKFtfjmeK04Xcg248bpqynyHAOcq+WsnDZM8TsgUSRZBVl9nAsRn0OF7Z388y9OU4UViNsAuAPsRJLetLICvrIlvsIe1sjB12HEueQzces2zlg3zFz1H22UzGk97JeD/kucqqwxQks18WjlD2+YeM/TlOcDYj/AKgD3Hi2ySSTY3sgvgWxLBzwUg2Od2HdgyPMuhzbyTyJOtzMQP4lKLfHuAE5Jgsa9+vIGHIWdlP2e/fDfp0nKDsRpyJsQ9ZyX8yjln/4yhk6y+WjZ4F0QnBYHST4Szswps/iDimZn02epFJvZNew5CCVBbP413AUlmMr2NHZd9lra3hdBEHEW9y1LwEsjII+HVk2/qQrIeOY82S6Mbhm8b9j0Eq7Vk8IxchET3NsPTTuQTbHbkNlf0/bti34wThK+gncIuH80+Ey4Y2CgnzsdBTa2+WHAiO04q1yH/yGY6k3bV4rm5FMiPWsz52Ow0/xP4jYwWlHtaLMMcx50R0g/rnSOpgi5fAbUhoniUrI2GCFvqdCVynvGZfY3scByQsTzMObwmkR+1s3uL5eg4p1Qx2fjozgAODWC4ZGTW6WB7DOE4QzkA3qI9G0m/+XHldK3kGm9hekJfkeAOdZiGJjEB2KjTXHmFki+PUswe6cXh5YH0+jySzyvqsTQJ+hY2fzlvAliGNRh+RYOGI6TjBuBTdgD6g7trPYvMSeBf4aEY7LMOFdqtr9xfK67+X0Q7HacZn0Y3D30fQaXsksVXWZ85CnkJKOYfmFaVemtoNTk50c371LNnFzgY+wtyCI2lZGAmZSfP1XNuSvIDsaYBfQXYRrqr7b579yykCobMApuFfSLKhJyP01Y5/9uvxVIS+/H1QQXwBkJzGcr9WL4Ga1/6pJK/wNQwpFnQ82c/a7kQqfT3Q8N/9gXeKgDavfIwFAMgR3hbkV/Xud8juoSanfxb8feBUCm2VvVZbWosCNyrbaiVJ0gdbhgtdTOuwpH1S6O441vwO3Tj8bGT9hgB/VOqYRbKm9U3LJUo9NcmPHCc6M9AN6JFt2rJ8CbRLH2yV1rcXOIn2uwfbKtu8p01bjpOWv6Ebh3vko6ZZ+uB2MgUYF8ugBn6bUMeafDkfNR2nM8PRDeakYS3HYZMvoFn64HHICyBr29ORSmWdWE/Z7nMJ2nQcLf9BNw6zVvPLglX64GbyAvIBkBc/aqJTO/l+Pmo6TmdWRDeY31C0/TFsXgL16YOt0vpOIPkLchll25MTtus4Gh5BNw7XykfN/2GV1Kde7sQurW9atInTfp2Pmo7TGW1qy8eU7W+M3segmfSi/wJqJQ8jC5+kDEuh6xBF+46TBO1ztGQ+as7DJtgdB7xB++PHWByITu+L8lHTcTqzE7rBfHOKPixziGeV60j3Epmq7CfvrxSneryPbhE6OB81/0eI8tshModq2RWdzjfko6ajoVvDABdT/n1jCGASXgO2Jv/SmGchCX7SbNF76I+TJwuj21WajPjr5MXOSK7/FYzb3QK4g3yPN7TvQO071smBbl0AxEou8h6wF/k4xMxBfAcOI/1LUWu3P/SOJUVMAtSKQ5FEWp3CeNOyMlLiN2vm0LT4u6CC+AIgGVleLH1Ixr7PEe/rZCqwJ5JrPAu+A+DkSRkWAIOA05ACWoMC91XLHHpkpz8MgL8LKogvAJJh8WI5G9iOdMcJGpql9U2LVld/6B1LsmbrDE0eE3LMBUc9k5BIpKQsACwYSBfHCF8AJMPqxXIrsDnhcoi3SuubFl/1O3lS5B2AlZHnLa8t+UOBKwl35NBIH/raJ34MUHC6dQGgHZiWL5ZaDvEbDdsESdW5HfCmYZu+AHDypKgLgM0Rp7y1I/XXil0I43TYCvcDqBjdugDQFhiZaNz/RCSft2ZLrR3vAF9HkgdZ4g+8kyd5P6fNOBBZvGcNy5sCnIGELmZhXWQxsmnGdpLgR4IVo1sXADHCANuxC1LK0+oMbxEk58BYo/Zq+A6AkydF8gGold8+Bxiasa1XkRDhLwAfR6KFsrA0cBNzM4eGwj8InEqgTXBjOZCt0vo2kxnYVuHaWdn/bYZ9O86f0Y2/fQLpMQw4X6lLK2mW1tcqfXAvskjJWiK8FWcr9ckjWsFx2jIU/UNl8aU+CMmPHWLiD/US2FjZdyjnRqc7uQbd+NsugA5LI/H3Fs/mJbT2jB+DVNS06OciWpf5zsL/KfU4IYAOjpOJMegGscW54igkNWboyb9eziX7VuVKyj7HZ+zPcerRTrwfNO7f8sv8B3RelC8EXG7QXx9wC/Zb8McqdTjNuH/HyYy2zO1TGftbGSkmFHPyr8ntZHNWGqHsbw7d61fi2PMcuvG3rGHfuyCphbM+gzMQx8Gk1HwNLJ7/Z7GNVPissv8LDft2HBO2RTeI78jQ1xZIWF4ek7/VS0BTjKUPdwR07NBOwFbb3ociWTuzPnsTEGe/NByC/tlrJu8ihXws2FPZ9/VG/TqOGR9HN4jTZtTbDwnLy3Pyt3gJvK7sa/WU/ThOPYORrfOk4y6rJz3Y+uk8RfZnYSxyrJZVl9nYOOR9WNnv/QZ9Oo4ph6IbxOcq2+8BTlT20UpeAD6P+CFkbWsWcLjSFoCHlf1snqIPx2lkKXTj7uWM/Vn66aQtv92MNZDFhIVepwADM+iytrK/lzL05ThB+Da6QfxzRdvW4UJL9re7KvCEUbvaHOL/Uba/m6Jtx2nFuujG3X8z9GXpp3MWsnthyaLAv430u5b0i5MllH1NS9mP4wTjF+gG8bcStrs0cLey7VZyMfOfZ+b1Evirsu2DE7brOO3YBt24uyFlP1Z+OrMRL/lQDAJ+a6BnH/AQ6dIHD0J3LNNHmHBEx0nNn9AN4MMStLkusl2f9cHsBU6itSf9EOCPBv1oXgJnKdv9aoI2HacTWl+di1L0YeWnMwUYl6L/NByFRNtk1Xk86TKHTlL2s1yKPhwnGFehG8Af79CeZbjQpxPaYPUSeJ3OOcR/omzzxwltcJx2HI5u3J2uaLsWaqf9mm0mrwAbpjUyJR9DnB4t3jnazKHPKPvYIJ2JjhOGO9EN4G3btGWV1ncCsJXSDsuXQLsc4l9Ttnem0g7HaYbWV+cHCdsNndY3FnmlD9YmZ9ohi5GOY83T6Abwuk3asAwXegTJuJeGGC+Bg5VtXZrSFsepR+urc1SCNi39dNql9Y3FGKQImIU9SdMH/0PZ7n6ZrXQcQ7QhdWMarl8YuFrZRiu5nuzhQqFfAuOUbfwnoz2OAxJ+qxl3nbayrfx0+oBTKU7GS8v0wUkyh56nbNMLAjmFYSD6s/NhdddbhgudiV240ELAZUZ6Nb4EtlBe/7CRTU53o/3S3KVNW3ml9Y2FZfrg52ifOfQUZXvHWxnpOFlZHN3gnVJ3bdHDhULlEF9Dee1rAWxzug/tWfMmLdqx9NPZ2tZEcz4LzCS7re0yh35H2davbE10nPSsiW7wvtB/XZnChaxziI9WXjeTcPXIne7hWXTjbuWG64uW1jcWlumDv9Sk/S8o27nA3kTHScdYdIP3fuzChV4mXkjMWOAtA51nA19Gf2yycHgTnYqjjTev96Wx9tMZFczKMITMHPoJ5fXXBbPScZTsjm7wWkz8fWQvy5uG1bHLIa6VtFENjgP6QkCzmLvrtArwuOLadvIbdGmzi8Ro4CZs7sPVzF3Ub6+89r6gVjqOgkOIPxk2S+sbC8v0wRrZOIZxTmXRFgJ6o/+6ovvpxMYyc+jDwIpI6LHmuhdDG+k4Sfk68SbBTml9Y2GZQzyp7BzFMqeqfADdeHuUcvnpxMYyffD+ymumRrDPcRKhTWubVqYjD0qROBabl0ASaZdZ0HE6sTX6581i3D6PLD6qyN7YZA5NE2XgBYGcQvB7wk9+adL6xmIvZEUe+h408x52nKTsTfgx2ih3MLf8dlX5IDaZQ7WybAzjHD15b0/HZnTg9h9Bzr9vDtxPWi4DtkQiEkIS+j471WaxyP1dDGyH+A9UmQeAzYjvmBf793QS4gsAO65Hwu9eCNiHBQ8iL4F7A/bhD7yThVjjpw/4PnP9B7qB15Ajlr9H7NM/CJxC8Chhtrgs0/rGwjJ9cKNcGNEOp3poCwGlkenoS+FWCcvMoZ1k3zgmOU57LEKE6qWWKKeshHoJXB/RBqd6/ImwE9JrwKbRrCk2VumD28kR0axxnBb0YDvQpwC7RbUgHFbpg2tyf1z1nYphlcWvmTwErBDPlFJglT64lXwvnimO05xR2A3olxGP2iqxJTbpg/vw5B9ONu4kzET0D2BERDvKhGX64EY5NaIdjtOUVbAZzFUOF1oVmzSqnvzDycIzhJmEus3pWcuiwI3Y3/vzYxrhOM3YlOwDOc+0vrGwSh9c9fvkhENbCKidzAK+GFf9UmOZPrgm10a1wHGasAvpB3AvcDzdU+Z2CHA22R76ZaJr7VSBQdgV4Xob2Dau+pXhm9hlDg0Zcuw4ifg06QbvDOCAHPQtAllyiK+Xg75O+dEWAmolTwNrRta9anwUmEz23+KFyHo7znwcjX7gjgc+nIeyBeKjwLvo751/eTlpWIfsE84twOKxFa8o6yI1ErL8HlOia+04DfwA3aB9BCl/6cCGSMlVzf3bJxdNnbKzFdkmm7MoX1KuorMEcCvZfpdh0bV2OtJNXrHa9KK/x7euatwP3KC8xtN/OmlI++Xeh6T1PRRx/HPseAuplfDHDG34+6CA+AKgNW8H0aK8aO+HP/BOGtKMm6lIpcsTbFVx6piJJAw7GvEL0uL1QQpINy0AFlX+/cQgWpQXXwA4MdCOm5eRTHYxi9t0M6cCewDvKa/z90EB6aYFgHYFOj6IFuVlgvLvfcXvpEE7bs5CKlw68bgafbpvfx8UkG5aAGhXoH4EMC++A+DEwJ/TcqC9774AKCC+AGiNv1jmxRcATgzcV6ccaHcE/X1QQLplAbAgutS0s5EEGM5c/IF3YqBdAGjHpWODfxBUgG5ZAGgH33tISlJnLtOVf+8PvJMGd9YtB34EUAG6ZQGgHXwjkapYSwfQpYysid7LehS+iHL0aPMA+A5APvgCoAJ0ywIgzdfolkgRiy2MdSkb+yL3QZtXvQdYxF4dp8IMQhbfGtwHIB/8CKAC+AKgPWOAm4BjDXUpCwOBk4ALgYVStuGrfkfDaHQVN6ehP5pybPCwYKc0HEH2AiPnIc6E3cBiSOrfrPdsbGzFnVKjLQT0Uj5qOsiOoOa3ejcfNZ12+A5Acg5ACmKsaNBWkdkAuAfYwaAt3/ZzNGjHi5//54f2CGBhvCBQ4fAFgI4NkPNwi8mxiBwA3IbdIse3/RwNngOgPEwEepXXaCM8nMD4AiBdW9cifgGa88oiMwg57z8PXb6ETvgOgKPBk3WVhznoc6X4B0HB6JYFgPXKs+YgdwHpHeSKQkhHR18AOBq042UtYKkQijgd2RwYorzG3wcFo1sWAGlrjHdiP9KFyBWF0KGO/sA7GrRfiOsB9yGTkROPQ4H/oP/48R0AJxeeI7tHezuZDOwZzRobDgXeJ+x9uSyaNU4VOId042wW3RmqG5uhwO9I/z74QnyVHUcm6JATXR/iEHMSxd9VGQacTfj70QfcEskmpxpcSbbxZu3D4sxlWeBOsv0+34mutdP1DEYm5xgTXh9wFZIGt4gsB9xNvHvxWByznIpwB9nH3P1UP1Q3NlsBb5D9tzkltuKOsxTxJryaPAV8IIZxCrYG3iTufXgzimVOVXgam3E3nuqG6sbmUGAmNr/LeZF1dxx1djErmQLsE8G+TvQARyHnpLHvwSyqEyrphGcidmNvNtUK1Y3NMNL7ZLSSa2Ia4Dgg21eaQfoIMlAtBnwv8BMkbDAPhgMXd9BRI6ehX0gU9TjEKRYDkdhy60VoFUJ1Y7MK8BD2v8XdMY1wHICPoRukVyFfDcdi90K6EVgitKENrAo8bKB7H1Jw5ZD+drXHCKsEtdKpCktgP+HU5EF8HCblI9juxNTLcxHtcBwAPo9ukP6p7trdgHeU17eSl4BNglk5L7sG1Psx5fWbBrPSqRJrE24B0Ec5Q3VjYv3R0+o3cJyoHItukP6i4fo1gceVbbSSaUi+/VAMAE7ALurhBuZP3nGLso2PBrDTqR5jCbsA6EMmt+/gfgGNjAAuJ/z970OfPdBxMvEzdAP0W03aGA5comynnZyJ/YMwAkm8Y6FfL3AqUiOgEW0fnza206kmexFnAuqj2KG6sVkdeJR4937pOGY5jvBHdAP0sBbt1LbIZivbayW3YPcwrIl+a76VdIpe+L2yvaONbHSqjfaoLqs8hUQIdTPjgEnEve9FC4/uaoqetc4CqwpjfcBPkfjitzJpJIxF8vBnzWO+b387a2XWSOKwN0d2O1qhrcDm9QCcJMQeJ6shme0+HrnfIlD7mLkcGBm5b38fOFG5Fd0KdbsEba4MPKBst5XMoPWuQzsGIccbVuf9V5DsZfANZbu/TWGb031oj+reU/59K+kFfkx+obqxGQ1ch929m6a8Zu/wJjrOXJ5EN0DXTdjuMOAPyrbbybkkz2M+GrjeqF9tDYPPKtu/OGG7TnfzR3Tj6hvIuLVaAN9I/FDd2KwPPIvN/aodFWoXE4cGt9Jx6piAboCOUbZvmSrzPjrnMd8Au+qGaUKj9lD28S9l+053oi0EdHD/dXtgV+wrZqhubPbHbtfkaeae5V+gvPa4oFY6Th0D0DvtDUvRz1jgdWU/raRdHvMDsHuIH0ecB9PYqunngRR9ON3H7ejG1bi6ay2dYKcDnwlmZXwGITslFvemD7gaWKSu/dOU158cylDHaWRRdINzaoa+LMpl1mQW8JW6tocApxu13QdcRPr0qGsp+3o5ZT9Od6E9qtuy4fpRSHif1TPyS6SSaJlZErgJm/sxBzie+Y8Kj1e2c04AOx2nKaujG5wvZOxvKBI/b/USuhA5ErjRqD2LAinalK3TM/TldA/a9LOrN2nDOpvdLUg10TKyEfI+s7gPk5E8Dc04UtnWlZZGOk47NkM3OO8z6vfziHe/xcNn9TJ7i2QRDp0YhN7xyouxOO1IUwioMUNlPZbx7a8AH7IyNBKHYvf+eRgJmWzF/sr2bjez0nE6sBu6wXmdYd8bYrcCzyr309m5UIO2zsDyhn071WMxdONpDp3D9iyLYc1ASmoXnaHAWdi9N/6OZBhtx07KNp+0MNRxknAwusF5gXH/iwH/VOpgLecBCxrb9YxShw2M+3eqxZroxtOEhO1al8PWhOrGZhngDmzs1BwVbqhsW5tIzHFS81V0g/O0ADpYe+EmlVnIQxyCu5S6tIpqcBwQhz7NeNJ8RfYgX++zlH20kvuAFdIaGogPYxeFNAHYUdH3Csr2k+zeOI4JP0Y3OE8IqMv+SJRBjMn/VWCLgLZcrdRnv4C6OOVnd3TjKc058tbAm8p+Wsl4YPsUOoTAMg/Jf4GVlP0PT9FPO/8NJyJVrwWgzTuddGsxDRcik/JzAfsAuA3YmLDONl4PwLFEOyGkeU5vQp6Le1Jc28hiwLWE22FLwjAke+KZ2IQrno/sxDyvvG4q4iOhwd8HBaHqCwDtiyX0+dRDyHn43wO1fxbi6f96oPZr+ALAscSqYFcnXga2QlJ4Z6V2tHch8aNclkdCFA82aGs28E0kydi0lG1MVP69vw8KQtUXAIsq/147kNPwLlIQ4xzjdr+CFBWaadxuM3wB4FgS8zmdgdSz+DLiF5CV/ZBdt5UN2krCzshW/cYGbb0ObItUOc2CdkfG3wcFoeoLgBhbi2n4CPoc/J04hnh5zH0B4FiSx3N6GjL5WeyWrY9MynsYtNWKWpKjq9EvmJpxO7KIuNWgLe37wH0AnCi8hs45ZYXA+lhnKmuUWHnM91HqdW0EnZzy8jd04+nzhn2PQV+HoJVoK2smZWHgUiMd+xC/gSGG+l2i7P9rhn07TkveRzcwhwfUZQRwuVKfLA94yDzm2yn1sXC8cqrLzejG08eM+7cO1b0SqU1gwerAI0Z6zQA+Z6RXPWco9fhJAB0cZx4WRv9whGI99MlzskrIPObrK3UJHfnglJtH0Y2nrQPpUXOEs3j+ngTWyajPbuizbraSlwmX0vhEpS5nBdLDcf7HSugG5auB9NiPePH/jfIKUg/BmmWVekwOoINTHd5AN54+0LwZEzZAQuEsnr8pwMdT6GB9VHgTUhkwFMco9flbQF0cBxAHF82gfMi4/7wyADZKiDzmw1LoYXnm6FSHHvSJbEJX6FsMuEGpUyup+QUkzX5nfVQY+jgQ4EClTjcF1sdx2BndoLzRsO8i1ABoFOs85u8p+y9rWVUnLCMp5mJyIDJxaytftpJ/A4t36HM94Fmj/qYhE3MMdlXq9kgkvZwuRlum8lKjfjcBXlL23UomA7/CLtXnXcj2vQUvKvsOuW3rlJeV0Y2jdyPrZ5nC+1nEf6ZVP9pFdSt5GljXxPpkaMuuh05U5jh8Gd2gPMOgz08TxoloLPqQxlZilcf8fmW/Wxv06VSPTdGNozwcStcEHlfq2UqmM28GP+ujwn8Aixjb34lVlTrOJFmlQcdJzffRDcoTM/Q1FDhV2V87uQLZGq3HMl7ZolKg9ozUOnTLqQYfQTeO8gopHQFcllDHJHIm/9/evQfrUdd3HH+fnMRcSI6QC1CNXEoSLlpSqSIil6gUuUNbWqZSENsSdNo6zNjWUu1UqJ0pdEax1nYoChYrodMiRhpQlA6gYCVoiAiIXCRcVHIjgdxvp3/8ziFPTs5znv3u/m67+3nN/IbMcJ7d7293n93v89vfBX4Ff68KQ81BUMR+JeIdSBCntMjnsF2QHy25H9/rcF9B9+x4Iu7G4esm9BVgSsl632Lcl8/JW6Q5/gDbdZRyUqlxwN/hr1+Ar1d763ArKqYyDnfvssQca+pkaalF2C7IMh1mfDbNr8F1XCzC56uG5cBhJer+eeN+riixD2m+y7FdR/+RJsw9nIm/8flVy0+Ao8JWt5CV2OKONW25jKHJawGEXmFsIXA3rhmvquW4L8Q3C/79l3HJx7Me9n007n2+dR5zLQAiPsRaCdCnJbi+C48mjuN23OQ+jyWOA7Q+SC01OQEItRTwJNxyor7m014EHI+9c9MPcUnD3R5iGH6/aXmHqC+8+FDHBABcT/vj8Dd6yGInro/TeeQzyZbuB5IV6zC1uQW2+SbgQeN2uxUfHfEg3TzmFxq3+/WqFZVG+k9s19GfpAmzq+FZ+6zvwMuW1cCpUWpmY528yPfkZCJ7sI7d7TV0ZgHwknGb3coq3II6PvmccrjIPOanGbd5v5daStPcje06uiBNmD0twN/9oVtZhpviPEdfxFaXq9KEKW1gnap2B92bvvtw2ep24za7lYcIt+ywz5nEes1j/nbj9p7wVktpkoexXUenpAmzEJ8thCNLlRE7MVyDrT6fTxOmtMEbsF2Mq7psJ8Q63BN9VnQU04E7PcW7Czc/wmjzmFtncLN2GpR2sM6aeUyaMAubAizG78Pfx6vC0D6GrU63pAlT2uBobBfj46NsYy7wiHE73coW4o6D972a2P8C+4/Yx4BxGzspviCKtId1OOtBacIs7GTsqxv2Kg+T/7j5P8JWp2+nCVPa4D3YLsbvjvi8z3G+oZbkLcLneuLP4VZY7LTVuA31/JVOU7Bfhzk3gy/E3+Q+I4tlnpAUzsNWn2VpwpQ2+F1sF+Pioc/5/uV8H+lXwZuHW33LR31GzmP+C+Pn54WqpNTSm7Bffzmain00Q5mScrrfXk7EVpfn0oQpbfAhbBfjFwkz13fodbiLmgb8F/7rZk0s3hm6olIrb8V2/TyfJswxzQF+RPiHf2cZba2Q1I7CVodNacKUNvhrbBfjEtzEHj6+nBuB94evolkf8HH8tW7cg72PxNmhKym18l5s18/yNGF25fMVm7U8Sl4tagdgr8PkJJFK432aNF/KFez9njw3p+HeJ6Y4PpeEr57UyAXYrh8fs1764PtVYdnyCvmssjke+yJJs5NEKq/J8V2SD9ZpgH34Bq5J86EE+7ZIGac6AUqnUNN1hzQNuJU83sUPD1POIZYd2KclTnGfHTs3PwAAENdJREFUlg6pL5pQpkfc1yBurPyZwNqI+63iOdxwpZsj71cJgHSyfk9TJwBvBn4A/JaHbW3ErWw4WHE7w60Rt9N7NtPQtB5AzTQ1AYiVWb6KG3HwCVzzV51sws3nfxlulsMY9IWXTtbvacrJpM4BHqDYmiG9PIXrEHvR0HbXedjmGcBS4Nc8bKssJQCShacI//6tyHz5dXEi9iF9ZcqtsSoktTD8C7houTxBjP24Jnbr++1u5Q72/qU+F79DdT/g8wAY3FEwxuHy4TRhStOF7pmb4zCcqt4IfI+wx+2eWJWRWvgGtuvnosjxzQDuMsbYrfQawz+VMEN1Y7rJGOPfRI5PWqBMb1RfX+K6m4i7cYRKAB6JVxWpgaXYrp/TI8b268Azxvi6laK99X0vLXwvbnheLJ8xxndtxNikJfYnzMMr96k4fboY+xztRcrPY1ZCsmd9wB4bKa4LcZ30fFzzT+AmybFYgL+lhZ8H3mHcf1mfMMb25UhxSYscif8HVx0W4/DtGOBZ/B7HbbhfOSLgho1Zrp/DAsczHtfC5+t6r/Kq0OfSwluAPy4Zh8WHjXHdESEmaZkT8PvQupm8FyAJaSZu8hWfx3Na1BpIriZgf1W3b8B4ZuFWvfRxje8APkn1V4WTgBs8xTSIe733uooxjcW6BsuDAWORlrKuStWtbKce63CH5vtX0aFxw5dMHYj9+xiq9eh43OspH9f3GuBUz/H5XGVwKeGWVLauwvp0oDikxazrUo9WVuEuZtnt9/HzXjT3qZIljrdgu25eChTHQuzLWncrIV8VnoC/oborgXcHiHG+MQ4f8x+I7OEvqfbl+AFwcPSo62E+Lmuvcnzb0pFSxnYytuvmUc/7nwhcb4xhrPIVwr8q9DlUN0QL5+wScYR8JSEtdDXlvxQ3oRWqepmOffx2Z8lxpUSJ77exXTf3edz3bOD7xv3HfJCOZSLwWU+xD+ImY/KVuEwqsf+YwxSlBb6A/SLcAlyaItiaqrIa2kcSxCv5uRTbdXObp/2eBPzSuO9uZSXpXhX6HKq7DH99c6yvCa1DJEXG9DVsF+ALwHFJIq2/s3Hv8SzH+8okkUpursB23XzBwz59dqZ7iPSvCn0O1V0N/KaHmFYY93uSh32KvOY+bBfgGWnCbIyPYTve/5wmTMnMP2K7bq6usK99gFuM+xurXIdris/BAbgptn3UawfwF1QbbfFD4z59rKwoJTVxSlvrCmOhehe3xSrj32sFMIF4KwHOwXWcu6Dk5zttxbUiXDb07xy8BJxCtQRpWD9wDa4VtewERloRsEaamABYL6jUa4zXnb7wUkaM7+npuMlmfCyR+yJuit7rPWzLtx3AX+E62G70sL1zcJ0kjyzxWet5irV0u4yiaQlAH66XuoUSgGr0hZcyrNeB5Tob7qT6P+y99G4Z38HNX/F/HrYV0iLgXbg1Fqo6HJcEWJvorS01+kEg3uyL7f2T5qavzrr2woo0YUpmnsB23byr4HanAV81brvX+/7Yy+pWVXWobmexroB6pXH7N1SpqEinOdguPq1OV5119cUNacKUzKzGdt0cUWCbhwOPGbfbrWwGLqlayYSqDNUdrSyhWGvKR4zbXVy1olLe+NQBFDQOt6TlmcA83EQeo80gZZ3EZzpuOE+nNbjZ7u7HjT3eZNxmE83CTdzyDuAQYKDj/1lfI+3D3sd82GZcC8EjuJXUHjduW+phHPaFfdb2+P/nAzcCU0tFtKdncNf7cg/bSmUQ1zHwp8C/U30RrjPY/UpgrFkZ1SdIvDoWf1m9tazEzYHfVn3A3+JvwhFruQt4Q/BaSmzTsV0Hu+j+Y6Uf10RtXVmwW7kTez+i3B2JS6Z9HJ9Xcav+dfM+4/aU5EtX83EXXIqHT+fNp61JgHWsdojyJGGXgZX45mG7Bl7usp0ZuCTR1/f8UzSvY/SwAVyLpq9jdTUu+RrpbcZtWYcRS4vcQ/oH0CCur4CPpsU6eTNunvPUx34QP2OcJR/vxHb+nxxlG28FfmbcTreynnZMSNMHfBx//QK+xd6jOQ41bmMHzU26pIKD8Nes56OcG7a62bmK9Md8uKizZrOche38jxx+53Me/Mcp1sGwSU7H9anwcfyexU1JPGygxDaa9spFPDiX9A+eznJN2Opm51ukP+ad5Y1hqysRfQDbuV8y9LkJwOeMnx2rfJU9O7S2yWG4To4+juMmXFI2bKvx83OD1VLGlHPTS26dvw5JHUBkvlYH8yW360HKm2X8+9VDn/km8Kce9j+Ie610PvCKh+3V0dO4UT1f8rCtybiRBtfhRmf1GrExkkYCJJLzMMCyc1GHkls8oeX2y0gdAZvD2uR7MPAwfpLAtcCFuIly2m4L8EHgR7gWzqrPg4W45X13GD+n2UETybkFILcbfm7xhJZbfduWgDWZ9YZ/Mn4e/suBt6OH/0ifAd4D/NLDtk7AzdNioRaARHJOAHL7BdqmB9AU8pv+tE3Hv+lSdPq6GTgeP/PkN9F3cHOuLE2wbyUAieScAOgXaDq5HXvIMyYpx9oHoIrhlfIuRLN69vI8cCLxVzz0sWCTlJBzAqAWgHRyO/aQZ0xSTqwWgJXAKWgeCYutuHf5H8ItlhaDWgASybkToPUX36XAMsPf9+HWCi+6GuBkYCLuC9J01mTnUdzQLouLcQuHFKUWgOaIkQA8CPwO8EKEfTXRdbg+E/9N+CG4mgdA9vJjbGNJjy6xj/XGfexfujb1chq243JXiX1cZtzHl8pWRrKzhbBzRtyEfWEwGd0s4G7Cnq8y9w/xIOdXANZffOtL7MP6mba8BrDWM8axVwtAM+yDa0kLYStwOa51aXOgfbTNKtwCPyFfo6gFIJGcE4AYD6F1xr9XAjA663EEJV9tFepm/yKwAPhsoO232XBHyvcTpiOlEoBEck0A+nG/FIoapNyMXnoIjU7Jl4QS4mb/XdwqdCPXDBC/FhFmKKUSgERyTQBeT/HOeeCWDN5VYj9qhh5djq8AlAA0g++b/b/hbxIb6W14MiWf7+0HyLtDemPlnABYlGmCLvO5tjyEcux/0Zbkq+l8JQBbgD/EdSbd7mmbUsxa4AzgSsr98BqpD80FkERTEoAyD6Ayn2tLAhAjAbN+ZgBbq5DkyUcC8DxwEnCjh21JOTuBTwLnUf7+20mvARLItdnF+gA6GLd8rZV1Gcq2JADWSXf+HLjI+Bnrw3w8rl/IBuPnJC9Vf+ndheuMtsZDLFLd7bh+AbcB8ypsRwmAvOZcwo47LVuuDVnpjNxH+mM9Wgk9IYmE9w+UO/e7hj7bHz9kKWAacCvlv9tnxQ9ZmvIKIJZc4/It13rmGpcUV+aX3gbg93BD0Xb6DUc8eRU4H3eOyvQLUAtAArkmALl2+GrLAyjXeuZ6XUhx1hv9k8BxuClpJW+DuAmDzgJeNn5WCUACuSYAegCllWs9c70upDjrjf6juLUmpD7uxA3PtNAogARyTQByXfmtDQ+gPtz7vBzlmphIcdYb/dogUUho1k6aWhEwgVwTAHX0SSvX60Lqz3qjXxUkCgnNmgCoBSCBXG/0z6UOoItc4/JpkHyXUF2ROgCpTC0A7bDa+PdqAUgg1wTgdvLs7fu11AFEkmM9XwSWpg5CKnkdMNXw97uwdyaTPFhbANQJUPbwr6Qfd95ZlgMTgtY4H7Nxv7xSH/POcknICksUB2I755rsp76OwHaun0oTpuRqMm52v9QPnkHgWWBO0Nrm5724sb2pj/0g8OnAdZU4jsJ23n+aJkzxYBa2c61XPbKXCbiJJVaS5sGzCbgedzG30ZHAEtx64CmO/xPABcFrKbGcgO38fy9NmOJBP+41btFzvRN1/o6uLour9OMeRgcQL+b1wGPAxkj7y9kM4HBgSqT97cB1RFSzYLOcAyw2/P0SNEVsna3B9m5/JnrtE1WuiwGNtBP48VCR+NYAD6QOQmrP2tFLD4N6syYA+6JzHlWuowBEpHmsE2lZh5JJXqwP81wnIGssJQAiEotlCCDo12DdWRO4XGeAbSwlACISi/UXnhKAelMLQOaUAIhILNYbvF4B1Js1AVALQGRKAEQkFrUAtIsSgMwpARCRWJQAtIu1BUevACJTAiAisSgBaBf1AcicEgARicUyCkDTw9afRgFkri4TAYlIfmYCxwH7U+xeMtuw7Q3AxQX+biduqvDvD/1XwjoCmE+xOR1mGrf9NmBhgb/bjlsd9H40U6uISFQzgZtIt0ZEt7nkb8GtOCj+HYtLslKf586yAfgUbplpEREJbDbwM9Lf/LuVF4BDg9W+nc4EtpD+3HYr3wYmBqu9iIjQB9xL+ht+r/Ig6t/ky4G4hdFSn9Ne5epQB0BERGAB6W/0RcvpYQ5B6/w96c9lkbIZt5iQGChLFpGiTk0dgIESAD/elzqAgiYBJ6cOom6UAIhIUb+aOgCDOsWas0NSB2Cgc26kBEBEipqROgADNQdXNw7YL3UQBjrnRkoARKSo6akDMNDDoLr9qNczQufcqE4nV0TSUgLQLnU636BzbqYEQESKqtMDQQ+D6up0vkHn3EwJgIgUMZ56LdayD5ohriolAA2ntQBEpIj9cBMBFbUduNFzDB8EJhj+/vXAKs8xtIm1A+AzuFn5fDkAONfw90oAREQCOALbxCw/DxDDL4wxzA0QQ5v8GbbjfYPn/c837n+F5/03nl4BiEgR1ubgdQFisG5TvwirSX3OrdsrskKhdFACICJFpH4YlNmmEoBqrOd8vef9W8/3ANDvOYZGUwIgIkUoAWif1Of8VWCX4e/7cEmAFKQEQESKSP0wKLNNJQDVpD7nu4BXjJ/ROTdQAiAiRaR+GJTZph4G1eicN5wSABEpwnpj9f0+GPQwiM16/JQA1IwSABEpIoeHgTWp0MOgmhzOuRKAgJQAiEgR1iFWehjUXw7nXElfQEoARKQI68Pg5QAxWLeph0F5E4DJxs+EOOdK+gJSAiAiReTwa1APg3is53snbtieb5oMKCAlACJShHV8tRKAerM+SNfjpuP1TQlAQFoMSESKsCYAbynxmV4OMv69EoDyrOduB3BKgDgONP69dQEjERHpYRu2hVlyKBuDHIl2WED681em3BbgWDSWXgGISC9TsC3Dm4spwMTUQdRUXZvS1epjoARARHqZkjqACur6IEvNOgIgF0oADJQAiEgv21IHUIEeCOVsTx1ASTrfBkoARKSXrakDqEAPhHLqes51vg2UAIhIL9uobytAnV9fpLQhdQAl6XwbKAEQkV4GgZ+kDqIk63Ky4jyeOoCSQkxG1FhKAESkiEdSB1DCK9Qz7hy8NFTq5v7UAdSJEgARKeLrqQMo4V+ob2e2HNTxnF+bOgARkaYZBzxA+oleipZl1HcoWy4OAtaS/lwWLf8U5jCIiMhMYAnpb/S9yhJgeqBj0Da/gev/kfqcjlW2AVcBfYGOQWPpgImI1THA2cDhwBxgBu7X9qSOv9kCbB769ybcsLLt7O5dvg53897I7lEGRabuHQD6h/49PO97/1B5BlgM3GutkIypHzgVeDfufB8GTMWd7+FWll24BYHArQw43Ply/dD/G+0aKLp8cOeMjtPYvYbNNlxysgh42lIhEREREREREREREREREREREREREREREREREREREREREREREREREREREREREREREREREREREREREREREREREREREREREREREREREREREREREREREREREREREREREREREREREREREREREREREREREREREREREQnk/wHCSEHohyg/PQAAAABJRU5ErkJggg==;" vertex="1" parent="1">
          <mxGeometry x="80" y="175" width="160" height="160" as="geometry" />
        </mxCell>
        <mxCell id="Kjv4vyTBPtws4vWYZQJM-7" value="" style="endArrow=none;html=1;rounded=0;strokeWidth=4;" edge="1" parent="1">
          <mxGeometry width="50" height="50" relative="1" as="geometry">
            <mxPoint x="290" y="360" as="sourcePoint" />
            <mxPoint x="290" y="240" as="targetPoint" />
          </mxGeometry>
        </mxCell>
        <mxCell id="Kjv4vyTBPtws4vWYZQJM-8" style="rounded=0;orthogonalLoop=1;jettySize=auto;html=1;exitX=0;exitY=0.5;exitDx=0;exitDy=0;exitPerimeter=0;strokeColor=default;strokeWidth=2;endArrow=none;startFill=0;" edge="1" parent="1" source="Kjv4vyTBPtws4vWYZQJM-10">
          <mxGeometry relative="1" as="geometry">
            <mxPoint x="290" y="305.03448275862075" as="targetPoint" />
          </mxGeometry>
        </mxCell>
        <mxCell id="Kjv4vyTBPtws4vWYZQJM-9" style="edgeStyle=orthogonalEdgeStyle;rounded=0;orthogonalLoop=1;jettySize=auto;html=1;exitX=1;exitY=0.5;exitDx=0;exitDy=0;exitPerimeter=0;strokeWidth=2;endArrow=none;startFill=0;" edge="1" parent="1" source="Kjv4vyTBPtws4vWYZQJM-10">
          <mxGeometry relative="1" as="geometry">
            <mxPoint x="490" y="305.03846153846155" as="targetPoint" />
          </mxGeometry>
        </mxCell>
        <mxCell id="Kjv4vyTBPtws4vWYZQJM-10" value="" style="pointerEvents=1;verticalLabelPosition=bottom;shadow=0;dashed=0;align=center;html=1;verticalAlign=top;shape=mxgraph.electrical.inductors.potential_transformer_2;strokeWidth=2;" vertex="1" parent="1">
          <mxGeometry x="310" y="270" width="160" height="70" as="geometry" />
        </mxCell>
        <mxCell id="Kjv4vyTBPtws4vWYZQJM-11" value="" style="endArrow=none;html=1;rounded=0;strokeWidth=4;" edge="1" parent="1">
          <mxGeometry width="50" height="50" relative="1" as="geometry">
            <mxPoint x="490" y="360" as="sourcePoint" />
            <mxPoint x="490" y="240" as="targetPoint" />
          </mxGeometry>
        </mxCell>
        <mxCell id="Kjv4vyTBPtws4vWYZQJM-12" style="edgeStyle=orthogonalEdgeStyle;rounded=0;orthogonalLoop=1;jettySize=auto;html=1;exitX=0;exitY=0.5;exitDx=0;exitDy=0;endArrow=none;startFill=0;strokeWidth=2;" edge="1" parent="1" source="Kjv4vyTBPtws4vWYZQJM-2">
          <mxGeometry relative="1" as="geometry">
            <mxPoint x="490" y="300.33333333333337" as="targetPoint" />
            <Array as="points">
              <mxPoint x="490" y="305" />
            </Array>
            <mxPoint x="850" y="355" as="sourcePoint" />
          </mxGeometry>
        </mxCell>
        <mxCell id="Kjv4vyTBPtws4vWYZQJM-15" style="edgeStyle=orthogonalEdgeStyle;rounded=0;orthogonalLoop=1;jettySize=auto;html=1;exitX=0.5;exitY=1;exitDx=0;exitDy=0;strokeWidth=2;endArrow=none;startFill=0;" edge="1" parent="1" source="Kjv4vyTBPtws4vWYZQJM-17">
          <mxGeometry relative="1" as="geometry">
            <mxPoint x="685.2222222222222" y="306.0000000000001" as="targetPoint" />
          </mxGeometry>
        </mxCell>
        <mxCell id="Kjv4vyTBPtws4vWYZQJM-16" style="edgeStyle=orthogonalEdgeStyle;rounded=0;orthogonalLoop=1;jettySize=auto;html=1;exitX=0.5;exitY=0;exitDx=0;exitDy=0;entryX=0;entryY=0.5;entryDx=0;entryDy=0;strokeWidth=2;endArrow=none;startFill=0;" edge="1" parent="1" source="Kjv4vyTBPtws4vWYZQJM-17" target="Kjv4vyTBPtws4vWYZQJM-3">
          <mxGeometry relative="1" as="geometry" />
        </mxCell>
        <mxCell id="Kjv4vyTBPtws4vWYZQJM-17" value="" style="shape=image;verticalLabelPosition=bottom;labelBackgroundColor=default;verticalAlign=top;aspect=fixed;imageAspect=0;image=data:image/png,iVBORw0KGgoAAAANSUhEUgAAAgAAAAIACAYAAAD0eNT6AAAACXBIWXMAAAsSAAALEgHS3X78AAAAGXRFWHRTb2Z0d2FyZQB3d3cuaW5rc2NhcGUub3Jnm+48GgAAIABJREFUeJzt3Xm0ZlV55/HvrSoKinlKIYJICQqKShQVsRUBGRwQ7SRoGm2NSWwgknZYtqhpo520JooJTWJrMIak045RggMIKAIKDigog6JgDCAzQgEFRUFNN3/sW1Jc7vAOezr7fD9r7VVSwn2ffd5zz+85M0iSJEmSJEmSJEmSJEmSJEmSJEmSJEmSJEmSJEmSJEmSJEmSJEmSJEmSJEmSJEmSJEmSJEmSJEmSJEmSJEmSJEmSJEmSJEmSJEmSJEmSJEmSJEmSJEmSJEmSJEmSJEmSJEmSJEmSJEmSJEmSJEmSJEmSJEmSJEmSJEmSJEmSJEmSJEmSJEmSJEmSJEmSJEmSRjFRugAlsxOwDNgNePzUn78B7AjsAGwPbDX1724JbFKgRkllrADWAfcDa4CVwGpgFbAcuBm4Dbhloz9vBW4H1heoVwnYAHTfIuDpwLOn/twHeBoh4CUppoeAnwJXAz8GfjL15/XYGHSODUD3bAY8HzgEeB7wLGCLohVJ6ruVwI+AbwLfAr5DOLqgitkAdMPuwCuBI4ADgc2LViNJc1sLXEpoBr4BXEA41aCK2ADU6wnA0cDvEPbyJamr7ga+DJwOfB14sGw5AhuA2mxOCPw/JBzm9/uR1Jr7gDOBfwLOw2sHijFg6vBk4I+BY4BtCtciSbn8G/B3hGbgrrKl9I8NQDkTwKHAW4EX43chqb8eBD4HnES4s0AZGDr5TQAvB94HPKNsKZJUlfXAvwB/RrjdUAnZAOR1JCH49ytchyTVbD3wGeB/AT8vXEuzbADyeCbw18ALSxciSR2yBvgY8Cf4XIHobADS2hl4P/B6YEHhWiSpq64jXCh9VulCWmIDkMYE8N+AvwS2LVyLJLXiM8DxwL2lC2mBDUB8ewMfB15QuhBJatANwGuBi0sX0nULSxfQkA17/f8K7Fm4Fklq1baE06oPAd8uXEuneQQgjl2AfwQOK12IJPXIaYRTAqtLF9JFNgDjeynwz8AOpQuRpB76OvBbeJfA0LwyfXQLCPf0fwXDX5JKOYzwxsHtSxfSNR4BGM12wKeAl5QuRJIEhNcPHwbcU7qQrrABGN4ywr2oTy5diCTpEb4HvAh4oHQhXWADMJz9gS8BO5UuZEwrCO/nvpvwEg7PnUn9shmwBNgE2JJwR9jWhKObXfevwNH4muF52QAM7kjCSyqWlC5kAOuAawlv1foZcA3h3tmbgJvxillJM1sMLAV2Jezo7EJ4oumTgacCewCLilU3uA8C7yxdhNpwNCE0JysddwNnAG8jPIBoizSLQVLPbQrsCxwDnAJcTtjhKL0NnGm8IdEyUI+8DlhL+ZV5+vgR4S6E/fGBTpLK2R54BaEhuJ7y28YN4wHCUQtpJK+jru72asJhrWUpJy1JI5oAngN8CPh3ym8zryRc7yAN5Wjq2PNfBfwDYU9fkrpignBb3pcouy39cOqJqi1HUv6c/22Evf0dE89VklLbHTiZsEOTe1v6IPDE5DNUE/YnnDsqFfw3A2+mG3cbSNIwdgE+SniRT87t6l/lmJy6bRlwO2WC/17g3cDmyWcpSWXtDZxPvu3rTXmmpa7ajnCRXe7gX094o9XS9FOUpGpMAP8VWE6ebe2ueaalrlkAfJX84X81cGCG+UlSrR4HXEH67e1zc01I3fI+8of/R/E8vyS9hHChXupt7vNzTUjd8VLy3uu/nPDuaknqu1zhP4kvcNM0uwB3ki/8LwZ2yzIzSapbzvBfRXjPgQSEC1C+Rr7wP4luvERDklLLGf6TwOfzTEtd8VbyrHhrgD/KNCdJqt0R5H8g0OFZZqZO2Js8K+BKwsouSQp7/rnD/zzCEV+JCeBbpF/p7iW8mleSVCb8VxAeQywBcCx5wt+X90hSUCL8VwGH5picumFn4B7SrnQrcc9fkjYoEf73AQdlmJs65DTSrnSr8Zy/JG1QKvzdCdMj/CbpH/hzfLbZSFLdSlztvxI4OMfk1C0XknbFOynbTCSpbu75qxpHknbFuxgf8iNJUC78fbGaZvR90q14d+NtJpIEHvZXZV5B2pXv1fmmIknVMvxVlQngh6Rb+T6abyqSVC0P+6s6h5Fu5bsaWJJvKpJUJcNfVTqbNCvfejzsJEke9leV9iLdff//kHEeklQjw1/V+ihpVsB7gaUZ5yFJtfGwv6q1hHB7XoqV8N0Z5yFJtXHPX1V7PWlWwpuBzTPOQ5Jq4p6/qvct0qyIb845CUmqiHv+qt4TCFfpx14Rb8Pb/iT1k3v+6oQTSbMyvjPnJCSpEoa/OuNS4q+MDwA75JyEJFXAw/7qjN1Jc/jf+/4l9Y3hr055C2lWyv1zTkKSCnsxHvZXx6R49O81WWcgSWW556/O2YywEsVeMU/MOQlJKsjwVyelevPfspyTkKRCDP+eWVS6gIhSrERXANcl+Lmp7Uy4dedJwGPw6YUxrQBuBa4Ezp36Z6nrXgycQTiSmsv9wMsID24r7TnACYSXyG1HaExuBD4LfLpgXRrQBcTvTt+XcwIR7Ee4DiLVWxAdjxwPAacBuw3y5UiVKnHB3/3UccHfscz/3pjVwCdoa4e5KYsIK1TslbQrV/8vAN5PmlsgHfOPB4DXzvstSfXpa/gvIRzhHabuFcDTSxSruT2T+Cvp3cDCnJMY0QLgc5QPQQe8a57vSqpJn8P/Dkarfy3wgvwlay7HEn9FPSPrDEb3AcoHnyOM9cCr5/66pCr0NfwBrmK8eawiXFulSnyE+Cvr27LOYDT74WH/2sbdhIuIpFr1+Wr/txFnPt/NXbhmdyHxV9guHOZJ8eAjx/jjz+f60qSC+rznD+Fpg7HmtW/m2jWLO4m7wq4Ftsg6g+HtjHv/tY6bgInZvzqpiD7v+QMcRdy5fSFv+ZrJTsRfaa/OOoPR/AHlg84x+3DvQDXp+54/wJnEnd+decuPb0HpAiJI8aS+nyT4mbE9qXQBmtNepQuQphxB/of8PAC8nDoe8rPBnpF/3jaRf152LTzYIMVDWH6a4GfGtrR0AZrTTqULkCjzhL+VwEupK/wBto388zqfny0cAXh8gp95bYKfGduq0gVoTg+ULkC9Z/g/UucDOzYbgJn9MsHPjO220gVoTreWLkC9ZvhrXi00ACkOhXehAfh26QI0q3XAJaWLUG95zl+98XXiXtm5HlicdQaj2YT5X2LhKDMunP1rk5Lyav/Zxb5dfDJv+fG1cARgx8g/bwXh7U+1WwP8n9JFaEYfKl2Aesk9f/XODcTt6K7PWv14tiK8s7r0Hq/j4XHenN+YlIZ7/vPzCECDYn+pP8pb/tieQbj4pnTwOUIz6u2Zys3wH4wNQINWEPcLvThv+VEcgdcDlB4/B5483xclRXY4/X687zBsABr0IHG/0PPzlh/NXoTzcKWDsG9jHfApYPv5vyIpKsN/ODYADVpH3C/03LzlR/cS4LPAPZQPx5bHTcCphFMwUm6G//BsAKbp+pORFhL/Toa1kX9ebmdPjUWE89E70cbdHrVYDdwxNTq/AVAn+ZAfidAAxO7ozso6A0kanHv+o/MIwDTuGUpSNxwOfIn89/kfCVyQ8TOViQ2AJNXP8Fd0NgCSVDfDX0nYAEhSvQx/JWMDIEl1MvyVlA2AJNXH8FdyNgCSVBfDX1nYAEhSPQx/ZWMDIEl1MPyVlQ2AJJVn+Cs7GwBJKsvwVxE2AJJUjuGvYmwAJKkMw19F2QBIUn6Gv4qzAZCkvAx/VcEGQJLyMfxVDRsAScrD8FdVbAAkKT3DX9VZVLoAJbcJsOWA/+79wJqEtWywDYM1n2sINaW2GbBkwH/3HmAyYS1qj+EvJbCQsDGOOc7KOoP4dgfeBXwbuIPh538H8B3g3cCyCPUsBo4BPgv8EnhwyHpWAtcCpwJHABMRatoP+CBwOXDvkPWsBW4BzgGOB7aLUI/adTiwivjbqfl+Zw7OMbmOuZP4y1oF2QA8bBvgb4GHiLcsVgMfAbYdsabfBa6LWM8kcAnwn0asZw/gi5HrWQ68A4+m6dEM/7rYADTGBiDYE/gJ6TYqPweeMkQ9i4C/TFjPGuDEIeoBOIwQ1qlq+hoeDdDDDP/62AA0xgYAHgvcRPqNy68Y/JTAxzPUMwmcMGA9zyfukZHZxmXA5gPWpHYZ/nWyAWhM3xuARcCl5NvIXEa4qHAuJ2SsZw0h3OeyC6F5yVXTJ+apR20z/OtlA9CYvjcAx5J3QzMJHDdHPdsCd2Wu51LmvjDwE5nrWQ/sP0c9apfhXzcbgMb0uQGYAG4g78ZmEriR2W/h+9MC9UwCL52lnscRjhLkrueMWepRuwz/+tkANKbPDcBzKBO2k8y+h3tFoXpmO+ye83TExuMBYItZalJ7DP9usAGYxicBdlfJX/5DZvi7HYCn5y5kykz1QLlltAR4bqHPVl4+5EedZQPQXbsU/OxdZ/i7kvXswszXAcxUZy4lP1t5GP7qNBuA7tq64GfP9GCgkvUsZuZH+da2jNQOw1+dZwPQXXcV/Ow7Zvi7kvWsJGwcp7szdyEbmWkZqQ2Gv5pgA9Bd11f22TcRnpNfwvVD/n0ONxT8bKVj+KsZNgDddXbBzz5nhr+7j/ACohJmWxbnZq3iYcuB7xf6bKVj+EsV6fNtgAA/JP8tbpfPUc/xBeqZBJ49Sz3bASsK1PPxOZaRuqnUrX6z3eGi4XkbYGP63gC8jPzhduQc9SwGfpG5ni/Os4zel7meVcBu89SkbjH822AD0Ji+NwAAnyffRun0Aep5CeFagBz1LCe84ncuW5L2TYnTx7BvKVTdDP922AA0xgYgPHHuMtJvlC4nhOkg3p6hntXAEQPWswd5Xgj0KeZ+L4G6xfBviw1AY2wAgi0Jz59PtVE6m+Hva38N6TaedzL8RvIJwFWJ6pkETiW8nVFtMPzbYwPQGBuAhy0Afo9w61usZXED8PuMfrfIU4EvR6xnNfAxYOcR69kCeA9wb8SafgAcOmI9qpPh3yYbgGm6frhyIfHvPf8q4eK6rloMHES4WO+JhMfkDvpimpXALcDPgTMJtx6tjlDTXsBRwAHAY4ClDLburSU8UOcm4Pypmm6NUM/WwIsJpxCWTdW06YD/7d1TNVxBaG5+QAMbAv1aqVv9Xk5Yx5XOnYR3lsTU9QztNI8ASIrFPf+2eQRgGh8EJEnu+auHbAAk9Z3hr16yAZDUZ4a/essGQFJfGf7qNRsASX1k+Kv3bAAk9Y3hL2EDIKlfDH9pig2ApL4w/KWN2ABI6gPDX5rGBkBS6wx/aQY2AJJaZvhLs7ABkNQqw1+agw2ApBYZ/tI8bAAktcbwlwZgAyCpJYa/NCAbAEmtMPylIdgASGrB4cAXMfylgdkASOq6DeG/JONnGv7qPBsASV1m+EsjsgGQ1FWGvzQGGwBJXWT4S2OyAZDUNYa/FIENgKQuMfylSGwAJHWF4S9FZAMgqQsMfykyGwBJtTP8pQRsACTVzPCXErEBkFQrw19KyAZAUo0MfykxGwBJtTH8pQxsACTVxPCXMrEBkFQLw1/KyAZAUg0MfykzGwBJpRn+UgE2AJJKMvylQmwAJJVi+EsF2QBIKsHwlwqzAZCUm+EvVcAGQFJOhr9UCRsASbkY/lJFbAAk5WD4S5WxAZCUmuEvVcgGQFJKhr9UKRsASakY/lLFbAAkpWD4S5WzAZAUm+EvdYANgKSYDsPwlzrBBkBSLIcBX8LwlzrBBkBSDIa/1DE2AJLGZfhLHWQDIGkchr/UUTYAkkZl+EsdZgMgaRSGv9RxNgCShmX4Sw2wAZA0DMNfaoQNgKRBGf5SQ2wAJA3C8JcaYwMgaT6Gv9QgGwBJczH8pUbZAEiajeEvNcwGQNJMDH+pcTYAkqYz/KUesAGQtDHDX+oJGwBJGxj+Uo/YAEgCw1/qHRsASYa/1EM2AFK/Gf5ST9kASP1l+Es9ZgMg9ZPhL/WcDYDUP4a/JBsAqWcMf0mADYDUJ4a/pF+zAZD6wfCX9Ag2AFL7DH9Jj2IDILXN8Jc0IxsAqV2Gv6RZ2QBIbTL8Jc3JBkBqj+EvaV42AFJbDH9JA7EBkNph+EsamA2A1AbDX9JQbACk7jP8JQ3NBkDqNsNf0khsAKTuMvwljcwGQOomw1/SWGwApO4x/CWNzQZA6hbDX1IUNgBSd5QK/6Mw/KXm2ABI3VAy/L+R8TMlZWIDINXP8JcUnQ2AVDfDX1ISNgBSvQx/ScnYAEh1MvwlJWUDINXH8JeUnA2AVBfDX1IWNgBSPQx/SdnYAEh1MPwlZWUDIJVn+EvKzgZAKsvwl1SEDYBUjuEvqRgbAKkMw19SUTYAUn6Gv6TibACkvAx/SVWwAZDyMfwlVcMGQMrD8JdUFRsAKT3DX1J1bACktAx/SVWyAZDSMfwlVcsGQErD8JdUNRsAKT7DX1L1bACkuAx/SZ1gAyDFY/hL6gwbACkOw19Sp9gASOMz/CV1jg2ANB7DX1In2QBIozP8JXWWDYA0GsNfUqfZAEjDM/wldZ4NgDScA4EzMPwldZwNgDS4A4GvAltk/EzDX1ISNgDSYAx/SU2xAZDmZ/hLao4NgDQ3w19Sk2wApNkZ/pKaZQMgzczwl9Q0GwDp0Qx/Sc2zAZAeyfCX1As2ANLDDH9JvWEDIAWGv6ResQGQDH9JPWQDoL4z/CX1kg2A+szwl9RbNgDqK8NfUq/ZAKiPDH9JvWcDoL4x/CUJGwD1i+EvSVNsANQXhr8kbcQGQH1g+EvSNDYAap3hL0kzsAFQywx/SZqFDYBaZfhL0hxsANQiw1+S5mEDoNYY/pI0ABsAtcTwl6QB2QCoFYa/JA3BBkAtMPwlaUg2AOo6w1+SRmADoC4z/CVpRDYA6irDX5LGYAOgLioR/qsw/CU1xAZAXWP4S1IENgDqkpLhf17Gz5Sk5GwA1BWGvyRFZAOgLjD8JSkyGwDVzvCXpARsAFQzw1+SErEBUK0Mf0lKyAZANTL8JSkxGwDVxvCXpAxsAFQTw1+SMrEBUC0Mf0nKyAZANTD8JSkzGwCVZvhLUgE2ACrJ8JekQmwAVIrhL0kFLSpdgHrJ8FetFgHPAJ4E7D41NgEemvr/fwVcBfwYuBZYk71CSQAsBCYjj7OyzqB/DgTuJ/73Ntd4ADg0x+TUSTsBbyU0pSsYfL26Dzgd+B1Ck6C63Un8bYsKsgHoFsNfNTkc+CKwmvHXs1uANwGLs85Aw7ABaIwNQHcY/qrFQcDFpFnnfgEcA0zkmowGZgPQGBuAbjD8VYNtgVPJs/6dA+ycZ1oakA1AY2wA6mf4qwYvAW4l73p4K+E0g+pgA9AYG4C6Gf4qbQI4EVhH3vVww1gLHJd8lhqEDUBjbADqZfirtMXApygT/NPHnyaeq+ZnA9AYG4A6HUi4RcrwVylbAudSPvg3Hh9OOmPNxwagMTYA9TH8Vdpi6gv/DeOtCeetudkANMYGoC6Gv0pbCHyB8kE/21gPvCbZ7DUXG4DG2ADUw/BXaQuA/0/5kJ9vrAKemWgZaHY2AI2xAaiD4a8anEz5cB90XEO4TkH52AA0xgagPMNfNfgvlA/1Ycc/JlkSmo0NQGNsAMoy/FWDpwErKR/oo4xXJ1gempkNQGNsAMox/FWDrYCfUj7IRx23AdtFXyqaiQ1AY2wAyjD8VYtPUj7Exx0fi75UNBMbgMbYAORn+KsWR1I+vGOMdcABkZeNHs0GoDE2AHkZ/qrFtsDNlA/vWOMH+Arh1GwAGmMDkI/hr5p8gvKhHXu8KuoS0nQ2AI2xAcjD8FdNnkW+t/utJd9FhtcAiyIuJz2SDUBjbADSM/xVkwngIvKshzcDB0197quAezJ85hvjLKahTQCHA38LXEm4O2EF8DPgS8Dv0/27FWwAGmMDkJbhr9ocTZ718IfAY6Z99j7A7Yk/90Zg03EX0pAOJcx3vtpWACcWqC8WG4DG2ACkY/irNguAq0m/Hl4EbD1LDc8g/e9FrqMAE8B7Gf50yiXA0kw1xmQD0BgbgDQMf9Uox+N+fwZsP08d/5nwVr9UNVxL2Lal9r/HrHG+5VQbG4DG2ADEZ/irVpeTdj1cDuwxYC2nJK7l6GEWzAheFaHGM+nWrYs2AI2xAYjL8FetXkj6dXGY5/JvClyVsJZLh6hlWEuAX0aq87cS1hmbDUBjbADiMfxVs0+Rdl385xFqOoC0tyMeNkJNg/iTiDX+KFGNKdgANMYGIA7DXzVbQrgCPdW6eB2zX/Q3n48mrOv8EWuay1Lg3sh1PjFBnSnYADTGBmB8hr9qdyDp1sW1wPPHqG17wrUDqep77hi1zeTjCWo8LnKNqdgATLOgdAEq6kBCw7Nlxs9cBRwFnJfxM9Vtuyf82X8DXDzGf78c+ItItczkXRF/1rOAP4j48zbYLcHPlOblEYDRueevrvhj0qyPNwFbRahvM+CGRDWuJ86bAieA7ySqsSuvM/YIwDQeAegn9/zVJcsT/dy3EJrgcT1IuqMAE8CHGf92u9eR7pXDv0r0c6U5eQRgeO75q2sOIP46eXbkGjcDbklQ54bx22PU9ljgroS1vWGM2nLyCEBjbACGY/irixYSN8BWA09KUOc7ItY4fdzAaKcrJgjbtFR1rSM0GF1gA9AYG4DBGf7qslOJt16ekqjGrUh7R8AodR+XsJ5JxruAMjcbgMbYAAzG8FfXPR54iPHXy+XADgnrHOf5+vONdYTf5UHtCdyfsJ5J4DVD1FOaDUBjbADmZ/irFScy/rqZ+k17Swnrf6rfrRuBHQeoYzPCW/tS/p7fAiwebvEUZQPQGBuAuRn+askE8GlGXzdPzlTnR8aocZBxLrBojs+fIP2jkyeBt422eIqxAWiMDcDsXoDhr/YsBP6K4dbLdcB7yPfmumXAmiFrHHb8/SzzmQBOSvzZk8BtwObjLKQCbAAaYwMwM8NfrXsR8EPmXy8vYrxH/Y7q/w1Q27jjY4Rt4AaLiHux5FzjzTEWUmY2AI2xAXi0Q4CVGP5q3wTwHMJDeM4ErgQuI/wOvw94drHKwuOLHyT9795FwB6EC/5SPelv+rgG2CTaksrHBqAxNgCP5J6/VI9TyPM7uIbwbINcv/NHxVxIGaW4RVMF2QA8zPCX6rKUtK8xLjHOibqE8or9GuT1ecvXdDYAgeEv1ek9lA/tWGMF4XkMXRX7mQg2AIXZAHjOX6rZpsDPKB/eMcbxkZdNbrGvyViXt3xN1/cGwPCX6nco5cN73HEh3X977DriLpPVecvXdH1uADzsL3XHZygf4qOO24Fd4i+S7GIvlxivktYY+toAuOcvdctOhCAtHebDjrWEZy503VLiL5s7ss5Aj9LHBsA9f6mbjiBcOFY61IcZ706yJPJ7GfGXzS+yzkCP0rcGoNSe/2E5Jif1wIcpH+qDjtPp/nn/Dd5J/OVzWdYZ6FH61AAY/lL3LQa+R/lwn2+cR7iDoRX/RPxldEbOCejRJoj/BKzTs85gMIa/1I4dgWspH/KzjUuArZLNvowUr0b+i6wz0IxuJu6X+pG85c/Lc/5Se/agzosCrwJ2SDjvUm4j/rL63awz0IzOJ+6XWtNbrtzzl9p1APEfTzvOuIxwt0KLUrwrYVnWGWhGbyful/rEvOXPyj1/qX3PIM3e6bDjPGDrxHMt5XHEX15rs85As9oVWEWcL/XbmWufjXv+Un8so+w1AafSzdf7DuodxF9md2adgeZ0MnG+1INzFz4D9/yl/tkR+CJ5f+9XAG/IMbnCvk78ZXdp1hloTlsDP2G8L7SGi//c85f67TjybAO+Rrff7DeMXxF/+Z2WdQaa157ALYz2ZZ5N+UNghr8kCNuyz5LmqYFXAEflm0pxW5Jm2/nKnJPQYHYBvs/gX+J6wp7/ohLFbsTwlzTdfsA5jN8IrAPOBX6bdp7sN6gTiL/tXE/5HUbNYhHwRuAG5v4Cvwk8r1CNGzP8Jc1lL+ADDHeacyUh9N8B7Ja/5Gp8l/jbz2YuAJwoXUBCC4BnES5ueyywPXAr8G+Ex/3+slxpv3YI8BVg84yfuQp4BeHCGEndsh3wVGAfYPeN/m4NcCNhx+ffgcvxffUADxEevxzThdRxwbg6zKv9JSmdFG8AnAT+KOck1B7DX5LSupD429H15D1iq8YY/pKU1gLSPP73lpyTUFu84E+S0nsTabann845CbXDPX9JyuM60mxTn5lzEmqD4S9Jefwmabap9+SchNrgYX9JyuebpNmunp5zEuo+w1+S8nksaR6hPEl4row0kBKH/R8k3PsqSX10Lmm2rc08/U/pHYx7/pKU066E9x6k2L6eknEe6jD3/CUpv0tIs31dD2ybcR7qKPf8JSm/g0i3jb083zTUVe75S1IZt5JuO3tIxnmogwx/SSrjvaTbzt6ccR7qIA/7S1IZS0nzzP8N4035pqKuMfwlqZxrSbetXZFxHuoYD/tLUjl/Tdrt7TvyTUVdYvhLUjkHke6Jf+79a1Ye9pekcrYA7iftNvft2WajzjD8JamsK0m7zb0j31TUFR72l6SyTif9dveobLNRJxxO2ltN3POXpLm9n/Tb3SuyzUad8EbSvWDC8Jek+b2d9NvddcCeuSak+r2JtFeaGv6SNLdjybMd/liuCal+z8Pwl6SS3k6e7fCdwESmOakDfoXhL0ml5Djnv2EcnGlO6oDjMfwlqZQvkG/7+8lMc1JHpHy+tOEvSTPbgvT3+W88bsVD/5pmLYa/JOV0MOmf8LfxWAfsnWVm6ow9MPwlKaePkP+i67dkmZk65fmkX/F8wp8kwfbA5eQN/kngzByTq92C0gVUaF2mz7g3w+dIUq3eC9wG7Jv5c2/Gx/1qFovJ04GuB/4OmzBJ/XIQ4eK73Hv9k4RTr49JPkN12gryrZB34+kASe3bFbiEMsE/Sbi4e7/ks1TnfY78K+dPgOfkmJwkZfRY4Bzyv1Nl47EeeFXqiaoNj6Pcyno58ML0U5SkpPYFvkn+q/tnGv8j8Vxuev2zAAADp0lEQVTVmE9SdoW9HfifwKLUE5WkSBYQXqJ2HeVDf8P486QzVpMWkP99ADONNcClhNcSe8GgpBq9DLgAWE35bebG429STlpt25ey562mj7WEx2R+CJ9gJamcLYETgO8CD1F+22j4K4n3Un5Fnm08CFwF/D3wWmDHRMtAUr/tSjiP/jXqODI63/Cw/wB8CcJgzgNeVLqIAa0B7gKuB24hnIv7BfBTwtGD5cUqk1SzHYH9gacRjjDuDexOeFrfJuXKGsokcCJwUulCusAGYDAThBBdVrqQCDZ0yBueeLhm6p8fKlaRpNw2ARZOjU1o4/qidcAxwL+ULqQrbAAGtw1hr3rbwnVIkh5pFfAC4LLShXSJDcBwdgJ+DmxVuhBJEhCe7f8swnsFNIQWDvvkdDvwFOC+0oVIkjgL2A3DfyQ2AMO7CdiTcCWsJCm/9cBbgSOn/rdG4CmA0W1GeEDPPqULkaQeuQM4hPD+FI3BIwCjexB4KvD50oVIUk98HtgZwz8KG4DxvQr4PcLtdJKk+O4BXkzY3nrIPxJPAcTzOOAi4PGlC5GkRqwnPOn0uNKFtMgjAPHcSHhq1p8RntkvSRrdVcBeGP7JeAQgjW2ALwCHli5EkjpmOfCHwBmlC2mdRwDSuBc4jNAAXFe4FknqghWEFw7tgOGfhUcA8ngZ8H/x+gBJmu4+4P3AB0sX0jc2AHm9Avgw4UFCktRntwAfIOwcqQAbgDL2AE4m3NbSlddsStK4JoErgLcBFxSupfdsAMpaSDjndSzh9IDfh6QW3QV8GngP4RopVcDAqccWwAnA6wm3vniBpqQuWwF8g3CY/9LCtWgGNgB1WgL8d+CVhHcN+PphSbWbJLyV70LgJOBHRavRvGwAuuE3CI8bPhLYF9gavztJZU0SDu3/mPDck9OAVUUr0lAMkW6aAA4gPGdgf8Ipg52BzUsWJalZ6wnP478euBL4MvAVfOppp9kAtOcphIZgH8KFhbsDS4EdCa8w3pTwvW+4+2DR1J+uC1J/TG705zrgIcLe+/2Ei/SuA64hhP338IFmkiRJkiRJkiRJkiRJkiRJkiRJkiRJkiRJkiRJkiRJkiRJkiRJkiRJkiRJkiRJkiRJkiRJkiRJkiRJkiRJkiRJkiRJkiRJkiRJkiRJkiRJkiRJkiRJkiRJkiRJkiRJkiRJkiRJkiRJkiRJkiRJkiRJkiRJkiRJkiRJkiRJkiRJkiRJkiRJkiRJkiRJkiRJkiT92n8AYuvGUq3zdfsAAAAASUVORK5CYII=;" vertex="1" parent="1">
          <mxGeometry x="655.2" y="206.39999999999998" width="59.6" height="59.6" as="geometry" />
        </mxCell>
        <mxCell id="Kjv4vyTBPtws4vWYZQJM-18" value="&lt;font face=&quot;Times New Roman&quot; style=&quot;font-size: 18px;&quot;&gt;Main Grid&lt;/font&gt;" style="text;html=1;align=center;verticalAlign=middle;resizable=0;points=[];autosize=1;strokeColor=none;fillColor=none;" vertex="1" parent="1">
          <mxGeometry x="115" y="335" width="100" height="40" as="geometry" />
        </mxCell>
        <mxCell id="Kjv4vyTBPtws4vWYZQJM-19" value="&lt;font face=&quot;Times New Roman&quot; style=&quot;font-size: 18px;&quot;&gt;Microgrid&lt;/font&gt;" style="text;html=1;align=center;verticalAlign=middle;resizable=0;points=[];autosize=1;strokeColor=none;fillColor=none;" vertex="1" parent="1">
          <mxGeometry x="440" y="360" width="100" height="40" as="geometry" />
        </mxCell>
        <mxCell id="Kjv4vyTBPtws4vWYZQJM-20" value="&lt;div&gt;&lt;span style=&quot;font-size: 18px; font-family: &amp;quot;Times New Roman&amp;quot;; background-color: transparent; color: light-dark(rgb(0, 0, 0), rgb(255, 255, 255));&quot;&gt;EMS agent&lt;/span&gt;&lt;/div&gt;" style="text;html=1;align=center;verticalAlign=middle;resizable=0;points=[];autosize=1;strokeColor=none;fillColor=none;" vertex="1" parent="1">
          <mxGeometry x="440" y="540.4" width="100" height="40" as="geometry" />
        </mxCell>
        <mxCell id="Kjv4vyTBPtws4vWYZQJM-21" value="&lt;font face=&quot;Times New Roman&quot;&gt;&lt;span style=&quot;font-size: 18px;&quot;&gt;Solar PV&lt;/span&gt;&lt;/font&gt;" style="text;html=1;align=center;verticalAlign=middle;resizable=0;points=[];autosize=1;strokeColor=none;fillColor=none;" vertex="1" parent="1">
          <mxGeometry x="740" y="175" width="90" height="40" as="geometry" />
        </mxCell>
        <mxCell id="Kjv4vyTBPtws4vWYZQJM-22" value="&lt;font face=&quot;Times New Roman&quot;&gt;&lt;span style=&quot;font-size: 18px;&quot;&gt;Battery ESS&lt;/span&gt;&lt;/font&gt;" style="text;html=1;align=center;verticalAlign=middle;resizable=0;points=[];autosize=1;strokeColor=none;fillColor=none;" vertex="1" parent="1">
          <mxGeometry x="794.4" y="610" width="110" height="40" as="geometry" />
        </mxCell>
        <mxCell id="Kjv4vyTBPtws4vWYZQJM-23" value="&lt;font face=&quot;Times New Roman&quot;&gt;&lt;span style=&quot;font-size: 18px;&quot;&gt;Load&lt;/span&gt;&lt;/font&gt;" style="text;html=1;align=center;verticalAlign=middle;resizable=0;points=[];autosize=1;strokeColor=none;fillColor=none;" vertex="1" parent="1">
          <mxGeometry x="1190" y="166.4" width="60" height="40" as="geometry" />
        </mxCell>
        <mxCell id="Kjv4vyTBPtws4vWYZQJM-28" value="" style="group" vertex="1" connectable="0" parent="1">
          <mxGeometry x="400" y="450" width="180" height="90.4" as="geometry" />
        </mxCell>
        <mxCell id="Kjv4vyTBPtws4vWYZQJM-29" value="" style="shape=image;verticalLabelPosition=bottom;labelBackgroundColor=default;verticalAlign=top;aspect=fixed;imageAspect=0;image=data:image/png,iVBORw0KGgoAAAANSUhEUgAAAgAAAAIACAYAAAD0eNT6AAAABHNCSVQICAgIfAhkiAAAAAlwSFlzAAAOxAAADsQBlSsOGwAAABl0RVh0U29mdHdhcmUAd3d3Lmlua3NjYXBlLm9yZ5vuPBoAACAASURBVHic7d13vCdVff/x197dpS29SC+CgAqCIiJSBAldmgrYYosi0RgLQYm/PDBgTPxhjBGNRrFERVFEBSRIExTsUgREEEQBaUuVpS3LLnvzx7lXl2XLvXPmnDMz5/V8POYh7u6c8/l+79yZ98ycOQOSJEmSJEmSJEmSJEmSJEmSJEmSJEmSJEmSJEmSJCmfKYnafA7wQmBLYAtgXWAGsGyC/iRJGoo5wCPAncD1wA3Az4FrgNE2O2orAEwH9gVeC+wBrNVSu5IkCe4BLgROAc4F5sY2GBsA1gTeDRwBPC22GEmStFR3AycBJwL3Nm2kaQBYCTgWeDvh0r4kScrrEeBTwIeAhya7cpMAcBjwn8D6DdaVJEntup1wNf5bk1lpMgFgecLlhiMm04EkScriZOBthCsDSzXRALAp8L/AsxoWJUmS0rsWOAC4aWn/cCIBYGvCiEMv+UuS1H0zgf2AK5f0j5YWAJ4H/ABYpaWiJElSeg8AL2EJIWBJAWAz4MfAOi0XJUmS0rsH2IUwmdBTLC4ArAxcSpjFT5Ik9dP1wPbAwwv/xchiVvg0HvwlSeq7LYHPL+ovpi7iz14PfCBpOZIkKZetgd8DVy/4hwvfAlgN+C1O6ytJ0pDcDTwT+NP4Hyx8BeA/gN0zFiRJktKbAawAnDP+BwteAdgQuBFYpsUO/wCcAfyE8GrDu2n5dYaSJA3EFMIV+HUJo/cPJkzE15Y5hCf8bl/4Lz5BODi3sfwUeHGLRUuSVKPdgJ/T3vH54wt3sCLhTUKxDT9KGEQoSZLaMQV4EzCb+OP0g4RbAX/2+hYavQN4QfufW5IkAS8k3E6PPV6/dsFGz49s7BFguyQfV5IkjduecLU95pj9vfHGliP+ssIr031WSZK0gNcQf9K+LMAekQ1dlPiDSpKkJ7uAuGP3biPAiyIKGAWOjlhfkiRN3vsJx+CmdhohzAzU1GXAFRHrS5KkybsM+FXE+luOEF4U0NSZEetKkqTmYo7BW44A60Q0cHHEupIkqbkfRKy77giwUkQDt0WsK0mSmnvKlL6TsNIUYC4wrWEDywOPRRQgSZKaGX+Mv4l5U4gbRbjw64QlSVI+jY/hI21WIUmS+sEAIElShQwAkiRVqOngv9S2IkxRvCGwSuFaJElqYhZwK2HK/N8UruUpuhYAng98HNildCGSJLXoR8C76dDsuV16CuAw4CuExxokSRqax4DXAd9qsc3Gx/CuBIAXEWY0Wral9iRJ6qI5wG7AL1pqr9cBYArhpQbbtdCWJElddyXhlvf8Ftrq9TwAu+LBX5JUj+cSrnwX1YUAsFfpAiRJymzv0gV0IQBsVLoASZIy27h0AV0IACuULkCSpMxmlC6gCwFAkiRlZgCQJKlCBgBJkipkAJAkqUIGAEmSKmQAkCSpQl17G+BkfZYOvVlJklSV7YAjSxfRVN8DwPdp961KkiRN1KH0OAB4C0CSpAoZACRJqpABQJKkChkAJEmqkAFAkqQKGQAkSaqQAUCSpAoZACRJqpABQJKkChkAJEmqkAFAkqQKGQAkSaqQAUCSpAoZACRJqpABQJKkChkAJEmqkAFAkqQKGQAkSaqQAUCSpAoZACRJqpABQJKkChkAJEmqkAFAkqQKGQAkSarQtNIFdNgI8DRghdKFRHgAuL90EYswjfDdLpewjyeAu4HZCfuYiBmEzzqlcB1avFnAfaWLkHIzADzVtsAxwP7AKoVracOtwLeAjwAzC9eyG3AUsBewfIb+5gO/BD4PfBmYl6FPCJ/t74DXAdtk6lNx7iD8npww9t9SFUYjljacFtH/oS3VAOEM7XjCmWPMd9LV5UHgZa19W5OzDPC5CdSYcrkU2CD1BwW2Bn5f4PO5tLM8DBz+lJ+qtGiH0nxbO62lGhpv744B+IsTgA8w3HERKxHOcA7O3O8U4GTgLZn7Xdj2wMXAGgn72Hysj00T9qG0ZgDfwBCgCgz1YDdZewLvLV1EBiOES+FrZezzzXRnZ7op8OlEbU8BTgFWT9S+8pkCfAFYt3QhUkoGgOD40gVktArhPnwOI4SrKl1yGOEyfdsOJFxl0DCsCLyvdBFSSgYAWA94UekiMntFpn5eCGyYqa+JmkKaz9/meBR1Q67fE6kIAwBsRX2PaG1OnlH4Kc6025Cirq5+VjW3IbBq6SKkVAwAaQeFdVmOz71yhj6aSPF450oJ2lR5Q3gUWFokA0C930GOz31Xhj6aSDEfQlc/q5obxZ+rBqzWg5/y+FHpAhYjRV0/SdCmyroUeKx0EVIqBgCldAvhufgueQg4PUG7JxNmHtRwfLl0AVJKBgCl9l5gbukiFvAvwL0J2r2GMOWwhuEawuyV0mAZAJTapcDf0o2z41OAjyZs/13AJQnbVx53AofQreAqtc4AoBy+CBwE3Fao/9nAsYSX84wm7OcxYG/gU+R78ZDadSGwA+F9DtKg+TbAOA8TXjlbykb052d4NrAFYVrg/YFNgDUT9vcI8EfCGISvke8Nb3OAdwCfAF4D7ESYbCrHvAuavHmEkf5XEd6V0bUxK1IyfTl4dNV3gdcW7P8WQgjoi9mEgVU1DK66ATiudBGStDjeApAkqUIGAEmSKmQAkCSpQgYASZIqZACQJKlCBgBJkipkAJAkqUIGAEmSKmQAkCSpQgYASZIqZACQJKlCBgBJkipkAJAkqUIGAEmSKmQAkCSpQgYASZIqZACQJKlCBgBJkipkAJAkqUIGAEmSKmQAkCSpQgYASZIqZACQJKlCBgBJkio0rXQBPbcHcEHB/p9WsO8mpgJ7A/sBmwDLF61GJcwDZgI/Ar4DPFC2HKleBoA464wtWrqdgM8CW5cuRJ3wRuCjwAeA/ypbilQnbwEoh5cDF+HBX0+2GvBJ4DOlC5FqZABQalsBJwPLli5EnXUk8M7SRUi1MQAotX8HVihdhDrvg8DqpYuQamIAUErrA/uWLkK9sApwWOkipJoYAJTSi4EppYtQb+xWugCpJgYAGC1dQCE5Pve6GfrQcKxXugCpJgYAuL90AYXcm6GPRzL0oeF4qHQBUk0MAPDb0gUUcAswO0M/NX63as7tRcrIABAOhleULiKz0zP18xPg7kx9qf9ybZeSMACM+5fSBWT0KGEGthzmAR/O1Jf67ULgp6WLkGpiAAjOAE4qXUQm7wRuz9jfJ4GzM/an/rkPeGvpIqTaGAD+4h0Me0rSx4EjgC9k7vcJ4FWEkCUt7A/A7mP/KykjA8BfzAXeBuwJfJ9w+XoIHgK+CjwH+HyhGh4mvA/gMODnwPxCdag7bia8CGgb4JqypUh18m2AT3Xh2LIKsBGwdtlyGpsH3EU4s5pTuBYI8w58a2xZA9gYp36t0WzgNsLgW0kFGQAWbxbw67FF7bpvbJEkFeItAEmSKmQAkCSpQgYASZIqZACQJKlCBgBJkipkAJAkqUIGAEmSKmQAkCSpQgYASZIqZACQJKlCBgBJkipkAJAkqUIGAEmSKmQAkCSpQgYASZIqNK10AR01FXgBsDmwfOFaYswCrgJ+W7qQBSwD7ARsDCybsJ/5wEzgJ8CfEvazJOsCOwBrF+pfE/MgcDVwbelCpNxGI5Y2nBbR/6Et1TBuOnAU4cAR8710bbkaOLjF76mJFYF/AR4g72efC3wD2Cz9R/yz7YDzgCda/Bwu6ZdraX+fomE7lObb22kt1RCzzcet3IKuBIDVgB9G1NKH5ZOUue2zMfDrBvW2ucwC9kn9QYE3AXMKfD6X9paTCFcBpaXpdQBwDEAwDfg2sFvpQhJ7B/DBzH2uBJwNbJ2534WtDHyHcHaeykHA5wm3OdRfRwAnlC5CSs0AEBwJvKR0EZm8H3hexv6OBbbK2N+SrAB8kTTb/Qzgs4naVn5HATuWLkJKyZ1V8A+lC8hoBHhXpr5WAN6eqa+J2hb4qwTtvg5YJ0G7KmMK8O7SRUgpGQDg2cDTSxeR2Usz9bM74cy4a1J8/v0TtKmy9sN9pAbMjRs2LV1AAWsCq2Top6vfbYq6cj5loDxWBtYqXYSUigEg/JLXKEcA6OpI6hTzX/i7NExd3YalaO60lNIfSxewGLckaPPWBG2qrMeAu0oXIaViAFBKFwGPly5iEc5L0Ob5CdpUWd8nTOYkDZIBQCnNAk4uXcRCbgK+l6DdLxE+r4bjE6ULkFIyACi1Y4E7Shcx5gngbaS5KnEv8I8J2lUZpwIXlC5CSskAoNTuBA4kvF+hpHmEg3+Ky//jPgN8KGH7yuMC4G9KFyGlZgBQDlcQ3q74DcIc1LldRpjp8XMZ+joWOAT4XYa+1K5ZhKs4+wOPFq5FSs7XAce5kTDQrZTXEN6y1we3Aa8G3gvsC2xC2mesHyY8hXAJ8KuE/SzKmcBZwIsIrz5en36/VnrI5hJG+l9FGPTngV/VMADE+SXhPQKl7Et/AsC42wgvzBm6+cBPxhZJ6hxvAUiSVCEDgCRJFTIASJJUIQOAJEkVMgBIklQhA4AkSRUyAEiSVCEDgCRJFTIASJJUIQOAJJWzDrBu6SJUJwOAJOW1F/AdYDbhbZl3AA8Q3kL4LmDTcqWpJgYAScpjWeBE4HzgZcByC/zdKsCewMeB348tJ4792fS8ZaoWBgBJSm8K8HXgnRP895uO/dsLCFcIvgIcBqycpDpVyQAgSem9g3DW38SawOuAbwL34K0CtcQAIElpTQWObqmtZfBWgVpiAJCktF4CbJSobW8VqDEDgCSltWWmfha8VXA/8GPgGOCZmfpXzxgAJCmtNQr0ORXYGfj/wHXAb8b+e5exv5MMAJKU2M2lCwCeTbga8CPgbsJVgtcDq5YsSmUZACQpratLF7CQ1QnjBL4M3IVPFVTLACBJaV0F3F66iMXwqYKKGQAkKa1R4Huli5igBZ8quBNvFQyaAUCS0vvf0gU0sAZ/uVVwLz5VMDgGAElK7wLg0dJFRFj4qQJvFQyAASDOawiX90otqSYXSWVT4GOEHchsyn53LmWWecBtwCmEg0ctZgM/KF1Ei7xVMAAGAOUwhXDp8DrgPYRLiMstcQ0N1VRgfeDVhIPHGYQ34dXgrNIFJOKtgp4yACiHjxAuHS5TuhB1zsHARcCM0oVkcBbhKsiQeaugRwwASu0g2nsRioZpO+A/SxeRwR3Ar0oXkdnibhXUctWn0wwASu3DpQtQL/wNsEXpIjKIfRrgQsIrgftowVsFdxNCwTtxAqJiDABKaVvCFKTS0kwFDi9dRAax4wDOBdYBtgeOBy6nn7cVxicgOhEnICrGAKCUnl+6APXKdqULyOBy4mYFPACYP9bOcYQg8HTgSMLVhTmR9ZXirYICDADhsaQa5fjcq2XoQ8OxZukCMhglblbAXXjq2wVvAU4CDiTM83/Q2P+/M6Kfkha8VXAfPlWQjAEg3IuqzXzyfO77MvSh4ajldzFmHMBUYJ8l/P2jhNsMRwIb0P9bBT5VkJABIIzKfbx0EZldQZ4rAJdm6EPDUcv2Ejsr4IET/HfeKtASGQBgFnBO6SIy+3qmfn5DeBOatDTzgNNKF5FJ7KyA+9Hs7NdbBXqKmGk923BaRP+HtlTDcwiJuPQ0qTmWm4Dl2/naJmRfwplI6c/t0u3lk9TlSOK+r91brGWEMGD3OOAyhvH7mutWwaERNbYVeGO+p7iVW9CFAADhOeQhbPhLWh4EntvWFzYJxzes16WO5afUNzX0BsTtb/4jYW2bAO8AzmMYJ0b3AJ8mzTwTBoBIXQkAAK8gXEoqvcGmWK4Ftm7vq5q0vwMeWURdLnUvX6WOaYAXZXxgXpPlhkw1rkTYL36JMEiz9PYSs8yh/VlJDQCRuhQAILzN6hjgJ8DMiNpKL3MJb107izBIZlqbX1JD6wEfJAz2upfy35FL/uUR4HrCvecdqVvslbEtM9c7AuwE/Bvw68jaSy4faPE7MQBE6loAkKQctidu/1v6HRubAH9P/24VPEGYT6ENvQ4APgUgSWVcTnhBUFMHtFVIQzcTBm/uQ5jE6VDCiPyuv6tghHD1pXoGAEkqYxQ4O2L9nQmP83XBQ8C3gTcS3lWwM+FFYNcUrGlJdgeeVrqI0gwAklROzKyA0wiP2XbNfMKTHf+P8Ij1JnRvAqIRYJvSRZRmAJCkcr5PmBioqYnOCljSghMQrUV3bhWsWrj/4gwAklTOo8BFEevvS7/mxF/wVsFGwMdpb0D5ZJUOIMUZACSprLMi1l2V9ka05/IM4ATClYF3A1MK1DCH8B6YqnXh2XBJqtnZhLPgpgfCA4h7t0AOywCHAG8F9qDMQX9B3yHMjFo1rwBIUlm3EXc22uVxAONn+7cCpwJ/RfmD/yPAPxeuoRMMAJJUXszTAJuTf1bAJVkGOJwwwPEG4H1055G7ecAbgN+VLqQLDACSVF7MOADoxlWALp7tL+hWwqDJb5cupCsMAJJUXl9nBezy2f64q4G3E94GeGHhWjrFQYCSVN74rIBHNFx/F2ANwttMc3gG8BbgTXTvgA/wGOGqykmEcKJF8AqAJHVDzDiAqYQ5+VNaBjgMuIBwtn8M3Tv4Xwf8I7A+f7kyocXwCoAkdcP4rIDLN1z/QOCU9sr5s6cDf0uYvKdrB3wIkymdSjjb/3nhWnrFACBJ3TA+K+BLG64/Pivg3JbqmQF8FHgz3Zxt8GrCQf+rwKzCtfSStwAkqTu6MivgasCPCWf+XTr4Pwr8D/AiYFvgU3jwb8wrAIu2LeFy2uY0vxzXBbOAq4AzCJONlDaF8Iu7H+ENYcsm7OsJYCZwMXAuYVBQTqsQRmbvCKyduW9NzoOEs8kzgD8WrqUrswKeAjy3hXba4tl+IqMRSxtOi+j/0JZqGLcJ8L2Ierq6PA58ElihtW9q8rYFfkaZz38r8Kr0HxEIO+53Afcn/kwu7S9zgc8AKz7lp5rX5TT/DDe20P8BEf23ucwGvgns2cJnSuVQmn++01qqIeY7jlu5BV0JAM8D7o6opQ/L5YRLe7ntAzzcoN62lw8m/pwjwMkd+JwuccvVwJqUc/xi6proEjsr4MWR/ccu1xKeMFgj8nPkYACI1IUAsAbhLLHkRp9rOael72yiNidcsiv9uceXv074WY/rwOdzaWe5iHKz2G0/wRoXtxwd0feWwPzI/pssfTjbX5ReBwAHAQb/BGxQuohM9iW8lSuXE4CVM/a3NB8lzSXejQnPH2sYXgK8slDflwO3R6wfMyvgW8kbfMaf298An9vPzgAQRri+sXQRmb01Uz9rAwdn6muiUtX0RtIOalR+uX5PFjZKGIvU1PisgJO1LPC6iH4n6jHC2e9ewLMJJwm5ZjDUAgwAsB1l7ouX9BLypPzd6eY2tkeCNndP0KbK2pVyj8CVmBXwUGCtiH6XxrP9junizjm39UsXUMBy5BnktF6GPppI8TOvcTsaumnAOoX6voDwzHtTTd4OmOKKh2f7HeY8AOFgWKMc8xvMztBHEzE71sXp6mdVnEcK9Tub8Dx/01kB92NyswJuSbji0ZbrgC8Dn8cDfmd5BUAp3VC6gMVIUVdXP6uauxf4U8H+Y2YFXIXJzQrYxuA/z/Z7xgCglH5EmBCna87sSZsq67uEAXmljM8K2NREnwZYDnhDRD8A7yXcLvHefo8YAJTSXODfSxexkB8SZiRs26nA7xK0qzLmER4ZLek24FcR60/0aZdXEDfpzlWE78openvGAKDU/oNw0O2C+4EjErU9l3AWNSdR+8rrGMJ97NJingbYjInNChg7+O/TkeurEAOAUpsLvBy4sHAdtxJmGWtjrvTF+RnhrOuBhH0orfmEicE+VrqQMTHjAGDpTwPEDv57GPhGxPoqyACgHP5EeC75LeQ/q7qbMBhpG+Iup07UecDWhDeXeUm0P+YSJt/ZEfi3wrUsKPWsgLGD/04hvE1RPeRjgHF+DHyiYP+fpuxLSybjCeALY8smY0vKSUceIbza9bqxvnO6HTgS+HtgK8IcAX1+rfSQzQXuIryApouBbXxWwKa3rsZnBVzUaPw2Zv47KXJ9FWQAiPNH2nuhQxOlByk1dfPYMnSPE6465LjyoOH6X5oHgPFZAU9ZxN/Fzvx3FeEKhXrKWwCS1G2pZgV08F/lDACS1G3jswI2NT4r4IIc/CcDgCT1QNuzAjr4TwYASeqBs2hvVkAH/wkwAEhSH9xBe7MCOvhPgAFAkvqirVkBHfwnwAAgSX3RxqyADv7TnzkPgCT1w/isgOs3XP8AYF0c/KcxXgGQpH4YnxWwqZ2BN0XW8LnI9dUhBgBJ6o+YcQDTgNUi1r8KuCxifXWMAUCS+iN2VsAYDv4bGAOAJPVH7KyATTn4b4AMAJLUL7FPAzTh4L8BMgBIUr/EzgrYhDP/DZABQJL6JXZWwMly5r+BMgBIUv/EPA0wWQ7+GygDgCT1T65xAA7+GzADgCT1z/isgKk5+G/ADACS1D+xswJOlIP/BswAIEn9lHocgIP/Bs4AIEn9lHpWQAf/DZwBQJL6KeWsgA7+q4ABQJL6K9XTAA7+q8C00gX03DrAngX7X65g3zE2ADahv/WruSeAmcD1wPzCtQzBWcB/A1NabtfBfxUwAMTZY2zR0o0ArweOAp5TuBaVdxfwJeAE4E9lS+m18VkBt2uxTQf/VcJbAMphVeAc4H/w4K9gbeAY4Grg+YVr6bu2nwZw8F8lDABKbTrwHWDv0oWokzYgjGbfvHQhPdbmOAAH/1XEAKDU/gF4Seki1GmrAV+h/fvYtWhzVkAH/1XEAKCUpgNHly5CvbAj8OLSRfRUm7MCOvivIgYApbQrsEbpItQbB5cuoMfaGAfg4L/KGACU0palC1CvuL0018asgA7+q4wBAB4rXUAhOT63z/lrMmaULqDHYmcFdPBfhQwAeV6p2TWPAfdm6OeODH1oOG4rXUDPxTwN4OC/ChkA4Arqm4jkB+SZhe2HmfrRMFxUuoCeO4sw02ITn2uzEPWDAQDmEh5BqsnnM/VzF+nmKtew3EeYL0LN3QGc2WC9i4HLWq5FPWAACD5EPbcCzgdOz9jf+4CHMvanfno/8EDpIgbgGCb3+/Y48K5EtajjDADBvYRHkO4rXUhiVwKvJjw3nMsNwCtJ+95y9dvH8BJ0W24EDmdiv29zgdcRHv9ThQwAf3E5sAPhDHlo5hHeGLYLcH+B/s8Z6/vSAn2ru+4C3kSYLVLtORfYmSU/038NYYbOb2apSJ3k2wCf7A/APoSXkxwEbEZ4aUkfzSPsYK8kXPK/pWw5/Ap4IWFyoP0JrwN2kqD6PEoY7X8xcDbwSNlyButKYHtgN2BfYAvCVMu/J5zkXIgDdKtnAFi0y3FGrBRGgUvGFknpXTy2SE/hLQBJkipkAJAkqUIGAEmSKmQAkCSpQgYASZIqZACQJKlCBgBJkipkAJAkqUIGAEmSKmQAkCSpQgYASZIqZACQJKlCBgBJkipkAJAkqUIGAEmSKmQAkCSpQgYASZIqZACQJKlCBgBJkipkAJAkqUIGAEmSKmQAkCSpQgYASZIqZACQJKlCBgBJkio0rXQBkf4LOKF0EZI0AI8DM4FLgJOBGzP2PQIcCLwceBawRsa+Y8woXUCMvgeAtUsXIEkD8kxgd+D9wIlj/zsvcZ/PAr4GPC9xP1qItwAkSQubDhwNnA5MTdjP84Gf4cG/CAOAJGlxDgCOS9T2ysAZwCqJ2tdSGAAkSUtyNLB+gnaPAjZI0K4myAAgSVqS5YDDE7T7+gRtahIMAJKkpdmp5fbWBZ7ecpuapC4EgNHSBUiSlqjtJ66e1nJ7fVT82NeFAHBP6QIkSUv0p5bbm9Vye310V+kCuhAAfl26AEnSErW9n76N9kNF3xQ/9nUhAJxJmIFKktQ9o8C3Wm5zHmGOgVrNAb5buoguBIA7gf8uXYQkaZG+DVyZoN1/JRwIa/QpwrTLRU0hbiDClJbqWJ4w//T2LbUnSYr3B2AH4L5E7b8B+FKitrvql4Tplme31F7jY3gXrgBA+CL2As4pXYgkCYBfAC8m3cEf4MvAXwOPJuyjS74H7EN7B/8oXQkAAA8A+wMvA87DcQGSlNsTwMWEM/OdgNsz9Pk1YHPg48CtGfrLbQ5wLnAI8FLCsa4TunILYFFGCM+eLp+wD0lSMIfwaFrqt/8tzQyG86bX2YTvdH7CPhofw7scACRJ0pL1fgyAJEnKyAAgSVKFDACSJFXIACBJUoUMAJIkVcgAIElShQwAkiRVyAAgSVKFDACSJFXIACBJUoUMAJIkVcgAIElShQwAkiRVyAAgSVKFDACSJFXIACBJUoUMAJIkVcgAIElShQwAkiRVyAAgSVKFDACSJFXIACBJUoUMAJIkVcgAIElShQwAkiRVyAAgSVKFDACSJFXIACBJUoUMAJIkVcgAIElShQwAkiRVyAAgSVKFDACSJFVoBHg8Yv0ZbRUiSZImZcWIdR8fAR6OaGDdiHUlSVJz60es++AI8FBEAxtFrCtJkprbMGLdh0aA2yIa2CtiXUmS1NzeEeveOgJcH9HAKyLWlSRJzR0cse71I8B1EQ1sjlcBJEnKbV9gi4j1fwuwIzAasVyJjxNKkpTLCHAFccfuFwBMA2ZFNvTetJ9VkiSN+Ufijtl/AqaON/btyMbmAfun+6ySJAk4AHiCuGP2qQs2eEhkY6OE+QQcFChJUhqHAY8Qf7w+cMFGlwHuaaHR+cCHgOXb/9ySJFVpBeDDhGNs7HH6LmD6wh38cwsNjy+3Am/GqYIlSWpqBnAEYb6eto7Px443PmWBjlYHbgZWarH42cD3gR8DdxKSx/wW28/hHsKXf1/BGtYANgDWKliDJCmtEWBtwjT7uwJ7Asu12P4sYBPgAXhyAIBwFeC4FjsbivnAL4H/BE4jpKjUpgCHA+8BduCpPytJkibjWMJteuCpB5XlgGuAzXJW1DNnAa8l7h0KS7MycArw0oR9SJLq8TvgOcCc8T9YeAKfx4C3k+cMt68OJdTjbQAAC9xJREFUBL5DmD8hhenA6XjwlyS1Y5RwbJ+z4B9OXcQ//D1h4MHOGYrqq02BB4GfJWj7aOCtCdqVJNXpI8BJC//h4u4rTwd+gCFgSe4jDNSY22KbyxAGS67eYpuSpHpdAvwVYcK+J1ncHP5zCW8ZinlR0NCtAby45TZ3w4O/JKkd1wIvYxEHf1jyS3zuA/YhPBqoRXtmx9uTJNXpZsIbA+9f3D9Y2lv8biXcBvh1ezUNyoott+fESZKkWFcTjt23LukfTeQ1vncQLk2f30JRQ3NHy+3d2XJ7kqS6nEs4Zi/1+DSRAADh1YH7Au+m3UFvffejltv7IT6CKUmavCeA4wmPkD8wkRUmGgAgHJhOBF5EmBWvdufT/viIW4CLWm5TkjRsvyDMGHsck5hufzIBYNzlhBDwFuCmBusPwWzgvYnaPpowIZMkSUtyE+HFezsBV0x25SYBAELC+AKwBfBG6roi8DjhM1+dqP0rgTfhrRZJ0qL9AngD4Rj8RRq+ZK/NF8w8E3g1sBfwAtJNlVvStcCRhLcbpvZi4LP4aKAk1W4e4UT7AuDrwPVtNJrqDXMrAdsT0skWhBnzVgSWT9RfSnMI9/rPBc4hDLTIZRqwH2EA5sbAshn7HqItgQ0brnsTYZpsdd9mwNMbrns7ToCmsmYDDxOeCruBcLC/bOzPJDV0KmEwa5PlPQXqVTNH0fznfHqBeqUimo4BkPoo5jXXf2ytCqUW87PyVeiqhgFANTEA1GGJs58txWakuzUqSSpgTZpfFh4F1s5fshpaj7if9Xr5S5by8wqAahFz9j8HuLutQpTcTMLjuk09o61CpC4zAKgWW0SsexNO0dwn8wmzajYVs61IvWEAUC22i1j3N61VoVyujVg3ZluResMAoFo8P2Lda1qrQrnE/MxithWpNwwAqsEI8NyI9b0C0D8xP7NtgeltFSJ1lQFANdicMDtlU14B6J+Yn9mywFZtFSJ1lQFANYi5pPs4cGNbhSib64l7odb2bRUidZUBQDWIGdQVeyBRGY8Dv4tY33EAGjwDgGqwQ8S6l7ZWhXK7LGLdmG1G6gUDgIZueeJ25jle/aw0fhKx7rbAqm0VInWRAUBDtxNxr1GOOYiorJif3VRgl7YKkbrIAKCh2y1i3XuJu4+ssq4F7o9YP2bbkTrPAKCh2zNi3Z/iFMB9Ngr8PGL9vdoqROoiA4CGbHW8/1+7n0asuw2wQVuFSF1jANCQ7UO4l9uU9//7L+ZnOAXYt61CJEn5fIXm74R/lLjBg+qGFQivc266HXwnf8mSpBjTCIP4mu74z81fshK5kObbwUOER0mlwfEWgIZqD2CNiPXPa6sQFXd+xLor4m0ADZQBQEN1aOT6XgEYjtif5StaqUKSlNxU4C6aX/a9OXvFSmkKcBvNt4dZOB5EA+QVAA3RHsDTItY/s61C1AmjxP1MVwb2a6kWSVJCX6X52d4ozgA3RHsSt034NIAkddyKhJHbTXf09xKeINCwTAPuofl28TiwVvaqpYS8BaChOZwQApr6LjCvpVrUHfOAsyPWnw68uqVaJEkJXELcpd6985esTPYjbtu4In/JkqSJ2AqYT/Md/Ey8/D9k0wg/45gQsGP2qqVEvAWgIXkn4ZGvpr6Gl/+HbB5wamQbf9dGIZKk9qwKPEzc2d122atWbjsQt43MAdbOXrUkabHeQ9yO/df5S1Yh1xG3rfxT/pIlSYsyDbiJuJ36O7NXrVJiw+LtODOgJHXC64nboT8KrJa9apWyBjCbuG3miOxVS5KeZArh8n3MzvxLuYtWcbGzRf4enxiRpKIOIW5HPgrslL1qlbYr8dvNq7JXLUkCwtn/L4jbiV+avWp1xRXEbTtXEvfYqSSpoZfhWZya+2vit59XZq9akio3FfgNcTvvWwlzvKtO04E/ErcN3YDbkCRl9TfEn70dlb1qdc0xxG9HR2avWpIqtRxwC3E77QeAVXIXrs5ZDXiQuG3pdmCF3IVLUo3eR/xZ2/HZq1ZX/Svx25OzA0pSYusAs4jbWc8CVs9duDprDeKvAjwKbJK5bkmqyteJP1v7YPaq1XVtXAX4VvaqJakSuwLz8exf7WvjKsAosF/uwiVp6KYD1xC/gz4uc93qjw8Sv339Flgmd+GSNGTHEr9zngmslLtw9caKwJ0YMiWpM7YB5hC/Y35L7sLVO39L/HY2F9g+d+GSNDTTgMuI3ylfi29v09JNpZ1bTVfhrQBJinIc8TvjUWCfzHWrvw6gnW3Op00kqaHnAY8TvyM+K3fh6r1zaOdWwPNzFy5JfbcicB3xO+FHgU0z167+24yw7cRuf7/DKaclaVK+SjuXYd+fu3ANRhtPnowC38xduCT11dtoZ8d7PbBs5to1HMsQBo+2sS2+LXPtktQ7zwVmE7/DnQ/slrl2Dc8exM8+OUrYprfLXLsk9cbqhHumbZxx/Xfm2jVcJ9HONnkjTkMtSU8xHfg+7exo/4Az/qk9M2gvmF6C8wNI0pN8hnZ2sE/gpX+1b2dgHu1so1/MXLskddbRtLNjHQU+krl21eNjtLedHpW5dknqnIMIZ+1t7FSvAZbLW74qsjztPRUwjzDjoCRVaUfgIdrZoc4Gts1bviq0NfAI7WyzjwC75i1fksrbBrif9i6pvjFr9arZm2lvu30AHw+UVJHNgZm0txN1UJVy+x/a237vBp6Vt3xJym9D4Gba23leA6yQ8wNIhPEAV9Lednwb8PSsn0DVm1K6ABW1ArAVsA6wNjCSoc/3As9osb2PE14aJOX2LODdLbZ3I/DvLba3OPOBuwhX4a4hjJ9RhQwA9ZkKvAo4DNgLz56lmj0KnA+cBpxKeCJHlTAA1OUA4ATg2aULkdQ5vwGOAc4uXYjyMADUYSrwr4RfbklakpOAdwBzSxeitAwAw7cccCawd+lCJPXGucAhwJzShSidqaULUHKfIdzvl6SJegawMXB66UKUjgFg2N4NvL90EZJ6aVvCZF2/LF2I0vAWwHCtCfweWLl0IZJ6axawGXBf6ULUPq8ADNe/4WtxJcVZDpgOnFe6ELXPKwDDNJ0wveiqpQuR1HsPAE/DpwIGJ8fMb8pvdzz4S2rHqvjWwkEyAAzTXqULkDQoPkY8QAaAYdqodAGSBsV9ygAZAIZpvdIFSBqU9UsXoPYZAIZpldIFSBoUxxQN0LTSBahzvkWY/EPSsKwOHFq6CElpXQWMNly2KVCvpPS2ofl+4aoC9SoxbwFIklQhA4AkSRUyAEiSVCEDgCRJFTIASJJUIQOAJEkVMgBIklQhA4AkSRUyAEiSVCEDgCRJFTIASJJUIQOAJEkVMgBIklQhA4AkSRUyAEiSVKFppQtQ56wMrFa6CCmhUeCB0kUAywAzMva3csa+1AMGAC3sR6ULkDKYA1wCfBH4JjA/U79rA0cBLwM2z9SnpIpcRjjLcXFxWfryY2Ad0jsceKjA52tjuTTB96HCHAMwTHeWLkDqkZ0JVwNWT9jHa4FvACsm7COlmaULUPsMAMNkAJAmZ3Pg04na3gT4HDAlUfs53F66ALXPADBMvypdgNRDhwPbJGj3n4DlE7Sbk/uUATIADNN3CfftJE3cFOCwltucBry85TZzm0/Yp2hgDADDdDvws9JFSD20bcvtrU/asQU5/BRvKw6SAWC4ji9dgNRDq3a8vRLclwyUAWC4zgcuKF2E1DN3t9zePS23l9t5wPdLF6E0DADD9kbgjtJFSD3y05bbuwO4qeU2c5kJHFG6CKVjABi2O4BDgcdKFyL1wBzgtATtfi1Bm6k9Rpit8NbShUiKswtwF+VnE3Nx6fLyYdJYhRDGS3++iS4zgZ2SfBOSitiYMNtZ6Z2Li0sXl3NJ+26UF9KPaYB/CGyU5iuQVNrBwFWU39G4uHRhmQucCEwnvecAv878+Sa6XAkclO6jq4v6PDWl4mwJHAK8AFgX2ABYqWhFUh4PA38kvPnyy8BvM/Y9lTAx0MuBrQhvB8wRPhb0EHAb4bbEpcAZwA2Za5AkSZIkSZIkSZIkSZIkSZIkSZIkSZIkSZIkSZIkSarM/wEbvzLjJQCWgQAAAABJRU5ErkJggg==;" vertex="1" parent="Kjv4vyTBPtws4vWYZQJM-28">
          <mxGeometry x="96.73331455927905" width="83.26668544072092" height="83.26668544072092" as="geometry" />
        </mxCell>
        <mxCell id="Kjv4vyTBPtws4vWYZQJM-30" value="" style="shape=image;verticalLabelPosition=bottom;labelBackgroundColor=default;verticalAlign=top;aspect=fixed;imageAspect=0;image=data:image/png,iVBORw0KGgoAAAANSUhEUgAAAgAAAAIACAYAAAD0eNT6AAAABHNCSVQICAgIfAhkiAAAAAlwSFlzAAANAwAADQMBLtPFWgAAABl0RVh0U29mdHdhcmUAd3d3Lmlua3NjYXBlLm9yZ5vuPBoAACAASURBVHic7d13mCVVgffx79xmgEmAgMQh5yQKSAYBhyDZFRMYMMC7q2taXVbfDaLguizviuj6rhkFQXH1NTGI5JzVVRgkDBkRkBmGGYZxYr9/nG6m6ZnuvnVu3Xuq6nw/z3MfYKbP7V81XVW/W+mAVG87A/8FPAAsAJ4Frgc+DExImCvGIcD3gceBhcCfgEuAtwGthLmKagEnAtMJy7AQeAy4CDgoXawoE4CPADcAswi/Yw8Qfud2TJhLkrLVAj4HLAH6R3g9DOyWKmABk4CLGXk5+oGbgY1SBSxgY+A2Rl+Wi4CJqQIWsAfwKCMvxxLgDOpVziSp9s5l9J3M4GsusEuijO0YD1xFe8syE1gnTcy2rAs8RHvLcgWwSpqYbdkVmEd7y3JOooySlJ0jaG/DPPi6C+hLknRsn6TYslyUJmZbxjqKMfx1WpqYY+oDZlBsWQ5LklSSMnMjxTbO/cCbkiQd3arAbIotxzJgmxRhx7AtIVuRZZlFOAJSNW+m+O/X9UmSSh3w3JXq5pXAPhHjjis7SAkOAF5RcMw44JguZOnUMYRsRawN7N+FLJ06NmLMflT79Iy0AguA6mYr4n5vq/ipOTZTFZdl68hxTVmWFuF3U6oNC4DqZkrkuDVKTVEOlwXWLDVFOZq0LNKILACSJGXIAiBJUoYsAJIkZcgCIElShiwAkiRlyAIgSVKGLACSJGXIAiBJUoYsAJIkZcgCIElShiwAkiRlyAIgSVKGLACSJGXIAiBJUoYsAJIkZcgCIElShiwAkiRlyAIgSVKGLACSJGXIAiBJUoYsAJIkZcgCIElShiwAkiRlyAIgSVKGLACSJGXIAiBJUoYsAJIkZcgCIElShiwAkiRlyAIgSVKGLACSJGXIAiBJUoYsAJIkZcgCIElShiwAkiRlyAIgSVKGLACSJGXIAiBJUoYsAJIkZcgCIElShiwAkiRlyAIgSVKGLACSJGXIAiBJUoYsAJIkZcgCIElShiwAkiRlyAIgSVKGLACSJGXIAiBJUoYsAJIkZcgCIElShiwAkiRlyAIgSVKGLACSJGXIAiBJUoYsAJIkZcgCoLrpTx2gRE1allhN+hk0aVmUAQuA6ua5yHGzSk1RDpfFZZGSsQCobmYCiyPG/aHsICWIzeSydFdMpkXAg2UHkSS93KWEw61FXocmSTq6FvA4xZZjIbBxirBj2JiwEyyyLI9SzQ8hh1H89+uSJEklKTOvBZbQ/sb52iQp2/Neiu1ovpgmZlu+TLFleXeamG25nvaXYwmwe5qYkpSfj9HexvkJqvmJeajv0t6y3AKsnihjOyYAt9HespyXKGO7NgH+SHvL8tFEGSUpWycDcxh5w3wDMDVVuAJawJmMfAh9GXABMClVwAImAxcx+imMz1LNQ//DbQLcxMjL8hzwrmTppA6NSx1A6tC6hCIwjbDBfgG4B/hvwrUCdbIVYVn2BzYgXFV+J3AhcEe6WFH2BE4iHBpfB3iKUMi+AzyULlZh44AjgROAHQkF5zHgSsKyeOW/JEmSJEmSJEmSJEmSJEmSJEmSJEmSJEmSJEmSJEmSJEmSJEmSJEmSJEmSJEmSJEmSJEmSJEmSJEmSJEmSJEmSJEmSJElS941LHUCVMh7YEtgB2ASYBKwFTAFWSZhLUjFLgHnAHGA+8DjwB+AhYHHCXKoQC0DetgIOBg4Bdifs/N3RS821GHgYuBO4GriGUAqUIQtAfvYE3gkcA2yWOIuk9B4BfgFcANyRNop6yQKQh/WB9xF2/NsnziKpuv5AKALfAp5JnEVdZgFotg2AjwIfAiYmziKpPhYC3wXOJFw/oAayADTT+sAZwLuBVRNnkVRfi4DzgH/BIwKN05c6gErVIhzm/zmwP/7/ldSZPmAP4BTgL4SLB/uTJlJpPALQHLsSztvtnjqIpMa6A3g/8PvUQdQ5PyE2w7uAn+BV/ZK6a2PgPcALwG2Js6hDHgGotynA14C3pw4iKTs/Jtxd9HzqIIpjAaivqcBlwE6pg0jK1l3AEcCTqYOoOAtAPW0F/Grgn5KU0qPA4cB9qYOomFbqACrstcCtuPOXVA2bATcQ7hZQjXgEoF52JKxoa6cOIknDzAIOIDxNUDVgAaiPTYGbCOf+u+15wuG8+1k+m9hzPfi+ksrxCmAysCawHbDtwL932+PAvsATPfheUhbWJrTq/i69ZgPnE27v2bw3iySpx7YgrOMXENb5bm1P7iYUEEkdGgdcQvkr6bKB930TsFrPlkZSFawGnABMJ2wLyt6+/AyPMEsd+3vKXTGXAhcBu/RyISRV1quAHxC2DWVuaz7Wy4WQmmYvwqxcZa2QvwH27ukSSKqL3QhP9ytre7OIcD2ApIJWBx6gnBVxIfBxfPSzpNH1EY46LqKcbc+9eIpRKuzTlLMCPkw4kiBJ7dqH8ICfMrZB/9jj7FKtbQUsoPMV7/fARj3OLqkZ1iecNux0O/Qi4Q4ESW34BZ2vdNcAa/Q6uKRGWRO4ls63R/+vx7mlWnoNnd+WczvhISCS1KkpwJ10tk1aRrjIUNIofkxnK9p9wCt7nlpSk60HzKSzbdPFPU8t1cgOdHYv7gLg1T1PLSkHuxDO58dun5bi9OXSiL5BZw37/b2PLCkjf0Nn26j/6n1kqfpWJ0y4E7tiXd77yJIydBXx26nZ+FwAaQVvI36l+gthxi9J6rZtCduc2O3Vm3ofWaq26cSvUGcnyCspX18kfnv10wR5pcqaQvyjNxcAG/Q+sqSMbUz8UYC/ABN7H1nDtVIHEAAHAOMjx54HPFViFkkayx+B70aOXQ3Yv8QsimQBqIZDOhj79dJSSFL7vtnB2INLSyHVXOzztu9OEVaSBtxN3LbrthRh9XIeAUhvArBr5NjvlxlEkgr6UeS43fB2wORWSR1AbEN8EbuqzCA9tCqwJeHixcnAJMKkI1IungfmAy8QruF5iHAhcN1cRZi6vKhVCLOe3lNuHBVhAUgv9v79ecCvywzSRdsRrnM4iDDZ0Rb4uycNtQR4GPgtYSbPq4H7kyZqz22EIjMpYux2WACSciOc3vaR4/4HWFxmkJJNBU4C3kt4cIikka1COBq4DfCWgT+7D/gBcD7hCEEVLQJ+D+wTMTZ226eSeA1AeltEjruv1BTl2YMw9/ejwL/hzl+KtR3h8PoDhFlCd08bZ0T3Ro7bstQUKswCkN4akeOqdnhwO+BS4A7gjfi7JZWlBfwVcCdwCeEoQZXEfhjxup/E3EinF1sAnik1RbwJwJnA74A3JM4iNd1RwF3AZwkTiFXBs5HjppSaQoVZANKLXQleKDVFnG2BW4B/xFt6pF5ZDfhnwkXAOyXOAjA3clzshx+VxAKQXszVsxCuvE3prYQNUOwzDCR1ZkdCAX9z4hyxBcAjAIlZANLrixy3tNQUxfwtcBHhHn5J6UwBLgY+kTBD7LYodtunklgAVNRngS/j745UFeMIU4J/JnUQ1YsbcRXx94Rzj5Kq51+Aj6cOofqwAKhd7wTOSh1C0qjOJjyASxqTBUDt2AX4GuFQo6TqGkeYpvfVqYOo+iwAGstk4IeE+/0lVd/qhHXW2+w0KucC0Fj+D917Zvcc4BHCzGhVntdAKtt4wpPwNgfW6sL7b0N4FPcHuvDekkoyA+iPeB3ag2x7Em7xicm3stdC4CeE6wmm9iC/VAebENaJnxLWkbLWt6WEuTm6bVpkvhk9yCZVWlULwDjCs8fL2BC9CPw7sEGXM0t1tyHhqNsCyln3bqP71+5YAKRIVS0Ax0XmGv66Cmf9koraGriGctbBY7qc1QIgRapqAbgtMtfQ15n4tC8pVh/wr3S+Ht7a5ZwWAClSFQvAgZGZBl/LgA91MZ+Ukw/TeQk4oIv5LAA15W2AWpl3dzj+XwiPC5bUuS/R+WN+O12nJXVB1Y4ATCDcnhf7SeMSfGCQVLZxhLsEYtfL5+neszw8AlBTHgHQcIcS7k+O8RzwXsLKLak8/cBfE3bkMdYAXl9eHDWBBUDDHdLB2M8Cz5QVRNLLPAWc0cH4TtZtNZAFQMMdHDnuz8DXywwiaQVfBZ6NHBu7bquhLAAaagKwc+TYCwgP/JHUPfOBCyPHvoowT4AEWAD0ctsS/ztxcZlBJI0odl1rEeYIkAALgF5uu8hxzwO/LjOIpBHdAcyNHBu7jquBLAAaauPIcb8nTDwiqfuWAHdFjo1dx9VAFgANNSVy3IOlppA0lpmR49YoNYVqzQKgoWILwHOlppA0lth1LnYdVwNZADRU7BXCC0tNIWksCyLHdetpgKohC4DK4JP/pN5ynVPHLACSJGXIAiBJUoYsAJIkZcgCIElShiwAkiRlyAIgSVKGLACSJGXIAiBJUoZWGeHP1wW2Bib3MEtqc4AHCDPbSZKaZ03ClMhrpQ7SQy8Q9m2zhv/F8AJwBPBPwD7keXRgMXAFcDphyk1JUv3tRdiuT2PkD75Ntgy4GTgT+NXgH7aG/PNc4JfAfuS58wcYDxwJ3AJ8LHEWSVLnPkHY+R1Bnjt/CPv0/YHLgHMG/vulHf0ZwIfT5KqkPuALwMmJc0iS4r0POJt8P9SuzEeBz0D4oewM/EPSONX1JWC91CEkSYWtS/ggpxV9CtipBXyQ8IlXK5oCvDN1CElSYe8B1kgdoqL6gA+0CBdFaGSHpg4gSSrMfdvoprWAqalTVJw/H0mqH7fdo9ukBbyYOkXFzU8dQJJUmPu20c1vATNSp6g4fz6SVD9uu0c3owX8KHWKivPnI0n147Z7dD9qAd8AHkkcpKpuJDwcSZJUL9MJDwDSih4CvtkCFgBvAualzVM5fwTeDvSnDiJJKqwfeBvwZOogFTMPOAH4y+DTkX5DeATw3ckiVct1hGdHP5E6iCQp2uPA3sANqYNUxF3AvsBv4eXPRb4LeDVwPHAcsBWwQa/TJbIUeBq4h3De6Iq0cSRJJXkcOBA4jHC0e0dgffJ4AF4/Yd82E/g58BPCxEDAihMjLAV+PPCSJKkpLh94aYATJEiSlCELgCRJGbIASJKUIQuAJEkZsgBIkpQhC4AkSRmyAEiSlCELgCRJGbIASJKUIQuAJEkZsgBIkpQhC4AkSRmyAEiSlKHhswFKqrZJwEHANsBGwHrAHOBJ4DHgWuCpRNkk1YgFQKqHqcCngROBiaN83TLgSuBzwPU9yNWpfYA3AtsDGwJrEuYvfwq4HbiYUGwkqXFmAP0Rr0O7kOXLkVn+tQtZtNzxwDyK/3/5EtUt+VMJRWWsZVgEnAX0pYlZWZ8jbl39cheyTIvMMqMLWVRAVTcOkoIDgf8mbl39EOGIwEdLTdS51YDLgR3a+NrxwGmEHcYnuxlKyo0XAUrV9kU6K+ofBnYpKUtZ/or2dv5DfRiY0IUsUrYsAFJ17QG8psP3GAe8t4QsZdo+YswEYPOSc0hZswBI1XVsSe9zfEnvU5bYIxrjS00hZc4CIFXXcSW9z+bAziW9l6SGsABI1bQZ8KoS36+sowmSGsICIFVTWZ/+B1kAJL2MBUCqprJ32K8lPGhHkgALgFRFawIHlPyeLeDokt9TUo1ZAKTqOQpYtQvve0wX3lNSTVkApOrp1vn6aYTJhCTJAiBVzHjg8C699wS6M4eEpBqyAEjVcjCwVhff39MAkgALgFQ13b5d72icWU8SFgCpao7q8vuvB+zV5e8hqQYsAFJ17EZvJrzxoUCSLABShcScn78+YowFQJIFQKqQmFn7PgXMKzhmB2DbiO8lqUEsAFI1bArsWnDMM8CtwJUR38+7AaTMrWxe7lUJjyHdmu7ejlQ1fwbuJWxQlyXOovwcC4wrOGY64Xf1UuCNEd/vPwqOkeqsD9gb2A54ZeIsvTQHeAC4EVg09C+GFoDxwMeB04BX9Cxa9TwBfBr4duogykrMeflLB/45HeinWIHYD1gXeDbi+0p1Mg54H3A6sHHaKEnNBs4CvgAsgeWnACYBlwGfJ++dP8BU4FvAd/EUiXpjTeB1BccsZvmh/z8B/1NwfB9wZMExUt30AecD3yDvnT/A2oQC8EtgIizfwX0bOCRRqKp6F/DZ1CGUhTdQfPKfGwmH9gZNj/i+XgegpjsTeEfqEBUzDfgmhAJwCPCWpHGq6zTCtRBSN3Vy+H+k/27HEcDqEeOkOtiGcFpbK3o7cFALOCV1kgobTzgSIHXLeMKOuKjhO/zbCHcFFDEZOCjie0t1cDJh/dLKvb8F7J86RcUdkDqAGu11FL/u5jHgnmF/tgy4POL7+1AgNZX7ttEd0CI8G1wjWz91ADVazA74FyP8ecxpgOMofvuhVAfu20a3fgt4LnWKipudOoAa7eiIMSPt6C9j4PaeAjYizEEgNY37ttHNbgF3pk5RcXekDqDGejWwRcExC4BrR/i75wgPsirKuwHURO7bRndHC/he6hQV1g9clDqEGivm8P/VwIuj/H3saQCpaS5MHaDiLmwBPwRuSZ2koi7EIwDqnpgd71g7+JgC8Gp6Mw2x1Eu3Ad9PHaKibgL+u0W4evgE4MG0eSrnVuCvU4dQY20MvCZi3Fg7+N8R7hIoKuZaBKnqTgVuTx2iYmYSnv3TP/gkwCeBvQhtqT9VqopYDJwLHAzMT5xFzRVz9f0M4JE2vu6ywmm8DkDN9ALhWRf/Sdi256yfcFR7L8I+/2WTAc0CTiRMhHMssBVhspAc9ANPE2YD/Bnwx7RxlIFuHP4f+nWnFnzvgwmzf84Z6wulmlkAfIjwHPxjge0Jt3fncvvrs4RP/T8f+OdLVjYd8AM4TajUTZMpPvkPtP+8/yuBv1DsMb/jgcOBi4uGkmriCeD/pg5RJc52J/XekcBqBcfMBW5u82vnA9cXfH/wNICUFQuA1Hsxt//9imLnMGPuBjgKn50uZcMCIPXWKoQjAEUV3aGP9Ljg0ayFz0+XsmEBkHrrQIpP/rOM4lf2PwTcX3AMODmQlA0LgNRbMTvYXwNPRYxr96LBoY6PGCOphiwAUm/FFICY8/mx4zYHdo78fpJqxAIg9c6rKD75D8R9kodwJ8C8iHGeBpAyYAGQeifm4T/PEE4BxFhEeCZAUd4OKGXAAiD1Tuzh/2UdfM+Y0wB7Aht28D0l1YAFQOqNjYDdI8bFnv8fNJ3i83u0cHIgqfEsAFJvHEvxZ48vAa7o8Pv+iTBDYFGeBpAazgIg9UbM+f+bKGdynpiLCKcBk0r43pIqygIgdd9kwpSkRcVe/T9czGmECYQSIKmhLABS9x1BsZn5BnV6/n/QbYQpQYvydkCpwSwAUvfF7EgfA2aU9P2XEiYTKupooK+kDJIqxgIgdVcf8IaIcZeUnCPmaMJ6wF4l55BUERYAqbsOANaNGFfW4f9BlxHuKijKuwGkhrIASN0Vc/h/AXBNyTlmE64FKCrm7gVJNWABkLor5oE61wAvlh2EuKMKOwDblh1EUnoWAKl7dga2iRhX9uH/QbG3FXoaQGogC4DUPbGHzy8rNcVyvyPcXVCUBUBqIAuA1D0x5//vAR4sO8gQMeVif+IuZJRUYRYAqTs2BF4bMa5bh/87ef/YWxklVZgFQOqOYyg++Q+U9/jfkVwJLIwY51MBpYaxAEjdEXP+fy5hAqBumg9cHzEu9nHGkipqldQBpAaaBBwSMW4OcEbJWVYmZpa/wQmNunWBoqQeswBI5TucuE/LmwL/UHKWMh2LBUBqDE8BSOVr6tPzjiPuugZJFWQBkMrVBxyZOkSXbATsljqEpHJYAKRy7Uez75n3oUBSQ1gApHI1/Xa5pi+flA0LgFSupn9Cfg2weeoQkjpnAZDKsyN5zJwXM8OhpIqxAEjlaerV/8M1/SiHlAULgFSeXM6PHwyslTqEpM6s7EFA2xI2ZFvS7KuZh+oHngbuBX4OPJE2jmpofWDP1CF6ZDxwGPDD1EGkAqYSjtJtR1hfc3mmxZ+Bhwj7tgeG/sXQArAu8BXgzeTzg1mZLwJfA04DFiTOovo4mrgjarcC55WcpYgdgY9EjDsWC4DqYSJwNnAKobzm6mzgYuBvgVmwvABMJUwQskWaXJUynvAD2hN4PfBC2jiqieMjx30H+HqJOYpaA/gAxTeMRw2MWVx6Iqk8U4CriJuau2nGAW8j7NsOBP7YInxq+THu/Ifbk7QbZtXHROIm/4H0z9afC9wcMW4tYP+Ss0hl+ybu/IfbEvgR0GqxvBFoRW/Hn43GdhihBBR1F/BoyVli/DJynHcDqMr2Bt6SOkRF7Q28pQW8I3WSijspdQBVXuztf7E73rJdGjkul9seVU/u20Z3UgvYPXWKitsjdQBVWgt4Q+TYqhSAu4DHIsZtCexcchapLO7bRrdHC1gzdYqKe0XqAKq0fQm3FBU1F7ip5CydiL0WIZdnH6h+fFbF6F7RAp5JnaLink4dQJUWuwO8nGpdQe91AGoa922je7oF3JA6RcVdlzqAKi22AFTl8P+gK4CFEeP2BDYoOYtUhutTB6i461qE2yS0couA81OHUGVtT3iqWFH9pL/9b7j5xH0YaOHkQKqm71Kto2xV860WcA3w/dRJKuoswiMUpZWJvQr+t8CTZQYpSexRCa8DUBXNJDz9Tiu6kIEjAADvB65MGKaKvgOcnjiDqi12xxd72123xeaaBkwqM4hUkn/Go7jDXQGcCsufXf4i4VamfwBmJwpVFY8DJwPvAZaljaIKWw/YK3Js1c7/D7oXeDBi3ARCCZCqZhnwbuB9OMnbLODvgSMJ+/yXTQa0BPh34BzCIz63Ia9b4J4B/gDcjjt+je0YoC9i3HOE37Gqugz4YMS4Y4GflZxFKsu3CUd19yJcu7Ne0jS99RxhFsAbGXZNxMqmA15MuC7gmu7nkmor9sK3XxHKdlVdSlwBOIpwRNHyrKpaBtwy8BJx05dKgp0ix1X1/P+ga4ibBnt9wicrSTVhAZDixEwTvYxwBKDKFgDXRo71079UIxYAKc5PI8bcST2eThZzlOL3wP1tfu3zEe8PMCdynKSVsABIcf4D+HXBMdO7EaQLLiU8rKhd8whXWbd7BCDmluP7CHfoSCqJBUCKMx84nPZ36vOAr3YvTqkeAn7S5tfOBA4mHN1o12+Afyvw9QuAUyhWSiSNwQIgxZtFuB3weMKVxSPtoJ4H3ko9Dv8P+iCj3674IPAx4FUUPxIC8CngJODhMb7uasKtW85ZIpVsZbcBSmpfP+H+958BmwMHEu4QWIsw5e/dA39Xt/PXTxGmOn494bkg6xOOejwE3Ez4FN+pi4AfEHbw+wKbAasRfm73A1fho7ilrrEASOV5ZODVFEsJ0xZf3sXv4b3ZUiKeApAkKUMWAEmSMmQBkCQpQxYASZIyZAGQJClDFgBJkjJkAZAkKUMWAEmSMmQBkCQpQxYASZIyZAGQJClDFgBJkjJkAZAkKUMWAEmSMmQBkCQpQxYASZIyZAGQJClDFgBJkjJkAZAkKUMWAEmSMmQBkCQpQxYASZIyZAGQJClDFgBJkjJkAZAkKUMWAEmSMmQBkCQpQ6sM++8+4I3A8cAWwGo9T5TOAuAPwI+AyxNnkSSV6wjgTcD2wITEWXppIfAQ8NOB19LBvxhaAHYFLgJ27Gm0atkfOAW4ATgJeDxtHElShzYl7Nv2Sx0koX2BdwAzgLcDd8HyUwB7ADeS985/qAOAW4FNUgeRJEXbjLAtz3nnP9ROwM3AbhAKwATgx8DkhKGqaCPgB8C41EEkSYWNI2zDN0wdpGImE/b5q7eAUwmHSLSifYEjU4eQJBV2NLB36hAVtTlwSgs4IXGQqvPnI0n147Z7dCe0COcENDJ/PpJUP267R7fT4DUAGtnE1AEkSYW5bxvdxBbwROoUFeetgJJUP+7bRvd4C7gydYqK8+cjSfXjtnt0V7aAc4ElqZNU1BzgO6lDSJIKOw94PnWIiloKfKUF3Av8W+IwVfURYFbqEJKkwp4FPpY6REWdCdwz+CTATwNfTBimapYSfnHOTx1EkhTtPODjDHn+vTgH+AwsfxTwMsIO73DCc/CXpcmV3CJgOrAXFiJJaoIvAPsAlwKLE2dJZRlwPXAo8HdAP6w4G+DlA691gK2BKT0MmNpsYCYwN3UQSVKp7gCOAtYg7NvWThunp+YBDxD2cS8zvAAMmoXnviVJzTIX+E3qEFXRGvtLJElS01gAJEnKkAVAkqQMWQAkScqQBUCSpAxZACRJypAFQJKkDFkAJEnKkAVAkqQMWQA0VOyEGSM9UVJSd4yPHOfU73qJBUBDzYscN7nUFJLGEjtPS+w6rgayAGioFyLHTS01haSxbBo5zgKgl1gANFTsBFA7lppC0lhi1zknedNLLAAa6oHIcVsBG5cZRNKINgU2jxx7f4k5VHMWAA11bwdjjy4thaTRHNPB2PtKS6HaswBoqKeBP0eOPbnEHJJG9u7IcZ2s32ogC4CGuy5y3N7AAWUGkbSCg4HXRo69tsQcagALgIa7uoOxnwfGlRVE0su0COtYrGvKCqJmsABouMuA/six+wH/q8Qskpb7ALBX5Nh+wrotvcQCoOEeBm7qYPwXgFeXlEVSsBtwdgfjbwAeLSmLGsICoJU5v4OxE4DpwBYlZZFytwVwCbB6B+9xQUlZ1CAWAK3MD4DnOhi/EXA9sFM5caRs7UL49L5hB+8xG7i4nDhqEguAVmYe8KUO32MqcAtwYudxpCy9A7iZzh+ydS4+AliqpBmEC3SKvg7tcq61gbmR2Ya/fgFs2+W8UlNsTziNVsa6Nwd4RZfzTovMNqPLuaTKq2oBAPh4ZLaVvZYQDkMejtMHS8OtArwB+CFhWu6y1ruP9iC7BaCm3BBrNOcSnjq2Swnv1Qe8ZeA1l3CNwN2EK5NnE3/roVRH44B1CM/134XwEK01Sv4evwf+s+T3VINYADSaJcCphJ31+BLfdw3C3AHOHyB1x2LgFMI6LK2UFwFqLLcC/5Q6hKRCPgncnjqEqs0CoHacTbiQT1L1/RQ4J3UII5clxQAACddJREFUVZ8FQO3oB95GZ08IlNR9txNuH/SaGo3JAqB2vQgcB/whdRBJK3UPcCQwP3UQ1YMFQEXMAvYnPOBHUnXcSZgqeFbqIKoPC4CKmg0cBlyeOogkIMzydzDwTOogqhcLQHoLIsdNKDVFMS8QDjV+hvDQEkm91w+cRbid9oWEOSZFjvNURWIWgPRin9E9pdQUxS0FTgeOAB5LG0XKziOEJ/B9kvQlPPYBRs5PkJgFIL25kePWLDVFvCuBHQhHAxYmziI13WLCRF27AFcnzjIodltkAUjMApBe7KG7LUtN0ZkXCUcDdgK+CSxKmkZqnkXANwgTBX2EtIf8h9sqctzzpaZQYRaA9P4UOW67UlOU40HC40e3Bj4PPJ42jlR7jwH/SlinTgUeShtnpWJn+nyq1BQqzLkA0rsvctzOpaYo1+PA/yY8Qvgg4BjCVcqvIkyCImnllgF3EQ7v/wK4buDPqix2WxS77VNJLADpxa4Emw+8HikrSBcsI2zIBs9VrgvsSvjEsB2wITB54BV7JbFUR/MJh/HnEY4C3k/YFvyOet3LvxVhRsMY95YZRKqj9Ymf6/vk3seVpJecQvz2a50EeaXK+RNxK9CPU4SVpAE/I27b9USKsFIVXUTcSrQQW7SkNNYhbINitl3nJ8irYbwLoBpi7+ddlTBLnyT12omEbVCMqjzDQEpuK+LPo83Eizkl9VYf4cLF2O3WZr2PLFXXfcSvTCcmyCspX+8kfnt1d4K8UqX9M/Er1H3Aar2PLClDqxOOPMZurz7V+8hStW1GuG8+dqX6x95HlpSh04nfTi0FNul5YqkGriN+xXoR2Kb3kSVlZHvCFOax2ykv/pNGcCLxK1Y/8FvC4TlJKtsEwpMKO9lGvbXnqaWa6AMeoLMV7Gs9Ty0pB9+is23TvYRtnKQRdPJozcGXF9lIKlMnFykPvk7udWipblYlTAHayYq2jFAkJKlTp9LZBcr9wMPA+F4Hl+qo02sBBkvA6T3OLalZPkK4cr/T7dEJvQ4u1dlVdL7S9QPnYvOWVMx44MuUsw36VY+zS7W3LfAXylkBbwe26G18STW1CXAT5Wx7FgLb9Ta+1AyfppyVsB94DvgbnABK0sr1AR8kbCvK2u74gDIpUh9wDeWtjINHAw7q4TJIqr5DgDspd1tzBX7gkDqyIfAU5a6Y/cCNwDE4k6CUq1WAY4GbKX/78idg/d4titRc04DFlL+SDq6oXwD2x4sFpaZbFTgAOIfufLDoBxYBB/dqgRRvXOoAatvJwLfp7v+z+YQjA/9DmOv7PsL5wHnAC138vpLKNRmYAqxNuKB4O2BXQtGf1MXv2w+8G7igi99DJbEA1MtpwFmpQ0jSCD4B/EfqEGqPz2Wul5sI7X2/1EEkaZizgDNSh1D7LAD1cwXh+QCvxyM4ktLrBz4L/FPqICrGAlBPNwGPAEfjbTaS0lkK/DXhQmLVjAWgvn4H/BZ4A2GebknqpdnAm4GLUwdRHA8h198mwA+AfVMHkZSNO4C3Emb5U015BKD+5hJuuZkE7IWlTlL3LCNc5X8SMCtxFnXInUWz7Ab8F7Bn6iCSGue3wAeAW1MHUTm8gKxZfkM4FfAhYE7iLJKa4TnCJEF74M6/UTwC0FxTgPcCnwQ2SJxFUv08C3wFOJdQAtQwFoDmm0y4TeeDwOZpo0iqgYcJO/6vEh4ProayAORld+BdhAt41kmcRVJ1PA/8HDgfuIrwcB81nAUgT6sDBxLmAD+EcPGgd4RI+VgK/Bq4euB1A+EJo8qIBUAAawGvYfmsYdsDmxKuI5gy8Pf+rkj10U+4EHguYSbPx4B7CTN83k+4ot8LhTPnRl3tmgyMTx1C0pgW4/TdkiRJkiRJkiRJkiRJkiRJkiRJkiRJkiRJkiRJkiRJkiRJkiRJkiRJkiRJkiRJkiRJkiRJkiRJkiRJkiRJkiRJkiSp0calDiB16JXAycA0YCrwIjAD+BEwHehPlqy4bQjLsj+wPjAL+DVwIXBbulhR9gZOAnYD1gGeBm4AvgPMTBersHHA0cAJwI7AROAJ4ErgPODZdNEkKV/vA54n7ORX9roJ2CRZuvb1AZ8HFjHyslwETE4VsIApwMWMvByLgM8BrVQBC9gMuIWRl2UO8J5k6SQpU59g5A3z0NcfqXYJGAdcQHvLchswIU3MtkwEbqe9Zfluoozt2hR4kvaW5e8SZZSk7OwFLKW9jXM/cH2amG15P+0vRz/wpTQx2/IVii3Le9PEHNM44EbaX44lwGuTJJWkzPySYjuafuCwJElH10c4n1xkORYRrnWomqmMfgpjZa/HqeapgCMo/vs1PUlSScrIWhTf0fQDX0sRdgz7UXw5+oEPpAg7hg8Styz7pAg7hq9TfDkWAWukCCvFqmL7lkazNTA+YtyOZQcpwQ49HtdNTVqWmN+V8YTfTak2LACqm7Uix61daopyuCwui5SMBUB106RnVzRpWWI16WfQpGVRBiwAkiRlyAIgSVKGLACSJGXIAiBJUoYsAJIkZcgCIElShiwAkiRlyAIgSVKGLACSJGXIAiBJUoYsAJIkZcgCIElShiwAkiRlyAIgSVKGLACSJGXIAiBJUoYsAJIkZcgCIElShiwAkiRlyAIgSVKGLACSJGXIAiBJUoYsAJIkZcgCIElShiwAkiRlyAIgSVKGLACSJGXIAiBJUoYsAJIkZcgCIElShiwAkiRlyAIgSVKGLACSJGXIAiBJUoYsAJIkZcgCIElShiwAkiRlyAIgSVKGLACSJGXIAiBJUoYsAJIkZcgCIElShiwAkiRlyAIgSVKGLACSJGXIAiBJUoYsAJIkZcgCIElShiwAkiRlyAIgSVKGLACSJGXIAiBJUoYsAJIkZcgCIElShiwAkiRlyAIgSVKGLABSOv2pA1SAPwMpEQuA6mZu5LjnS01RjnmR46q4LE36/xK7LHNKTSF1mQVAdfMgsCxi3ANlBylBbKYqLsvMyHFNWZZlwENlB5EkvdwNhEPHRV5vSpJ0dKsCsyi2HEuBrVOEHcM2hJ1gkWV5FhifIuwYTqD479d1SZJKUmYOo9jG+XdAX5KkYzuNYsvyvTQx2/J9ii3LJ9LEHFMfcBfFlmVakqSSlKFzaG/DPBfYOVHGdqwCXEF7yzITWDtNzLasQzhF086yXE5Y9qrahXCNRjvL8oVEGSUpSy3gDGAJI2+YHwRekypgAROBixh9J3MjsFGqgAVsDNzC2EcxJqYKWMBuwMOMvByLgdOBcYnySVLWdgS+AtwHLAD+DFwL/C2werpYUQ4CLgQeBRYCTwI/B95CvXYyLeBtwC8Iy7CQsEzfA16XMFeM1YEPEc7x/5nwO3Yf4Xduh4S5pI79f+8bn2o1EtwVAAAAAElFTkSuQmCC;" vertex="1" parent="Kjv4vyTBPtws4vWYZQJM-28">
          <mxGeometry y="0.5136363636363711" width="82.79357927344408" height="82.79357927344408" as="geometry" />
        </mxCell>
        <mxCell id="Kjv4vyTBPtws4vWYZQJM-39" style="edgeStyle=orthogonalEdgeStyle;rounded=0;orthogonalLoop=1;jettySize=auto;html=1;exitX=0.5;exitY=0;exitDx=0;exitDy=0;entryX=0;entryY=0.5;entryDx=0;entryDy=0;strokeWidth=2;endArrow=none;startFill=0;" edge="1" parent="1" source="Kjv4vyTBPtws4vWYZQJM-31" target="Kjv4vyTBPtws4vWYZQJM-4">
          <mxGeometry relative="1" as="geometry" />
        </mxCell>
        <mxCell id="Kjv4vyTBPtws4vWYZQJM-31" value="" style="shape=image;verticalLabelPosition=bottom;labelBackgroundColor=default;verticalAlign=top;aspect=fixed;imageAspect=0;image=data:image/png,iVBORw0KGgoAAAANSUhEUgAAAgAAAAIACAYAAAD0eNT6AAAACXBIWXMAAAsSAAALEgHS3X78AAAAGXRFWHRTb2Z0d2FyZQB3d3cuaW5rc2NhcGUub3Jnm+48GgAAIABJREFUeJzt3Xm0ZlV55/HvrSoKinlKIYJICQqKShQVsRUBGRwQ7SRoGm2NSWwgknZYtqhpo520JooJTWJrMIak045RggMIKAIKDigog6JgDCAzQgEFRUFNN3/sW1Jc7vAOezr7fD9r7VVSwn2ffd5zz+85M0iSJEmSJEmSJEmSJEmSJEmSJEmSJEmSJEmSJEmSJEmSJEmSJEmSJEmSJEmSJEmSJEmSJEmSJEmSJEmSJEmSJEmSJEmSJEmSJEmSJEmSJEmSJEmSJEmSJEmSJEmSJEmSJEmSJEmSJEmSJEmSJEmSJEmSJEmSJEmSJEmSJEmSJEmSJEmSJEmSJEmSJEmSJEmSRjFRugAlsxOwDNgNePzUn78B7AjsAGwPbDX1724JbFKgRkllrADWAfcDa4CVwGpgFbAcuBm4Dbhloz9vBW4H1heoVwnYAHTfIuDpwLOn/twHeBoh4CUppoeAnwJXAz8GfjL15/XYGHSODUD3bAY8HzgEeB7wLGCLohVJ6ruVwI+AbwLfAr5DOLqgitkAdMPuwCuBI4ADgc2LViNJc1sLXEpoBr4BXEA41aCK2ADU6wnA0cDvEPbyJamr7ga+DJwOfB14sGw5AhuA2mxOCPw/JBzm9/uR1Jr7gDOBfwLOw2sHijFg6vBk4I+BY4BtCtciSbn8G/B3hGbgrrKl9I8NQDkTwKHAW4EX43chqb8eBD4HnES4s0AZGDr5TQAvB94HPKNsKZJUlfXAvwB/RrjdUAnZAOR1JCH49ytchyTVbD3wGeB/AT8vXEuzbADyeCbw18ALSxciSR2yBvgY8Cf4XIHobADS2hl4P/B6YEHhWiSpq64jXCh9VulCWmIDkMYE8N+AvwS2LVyLJLXiM8DxwL2lC2mBDUB8ewMfB15QuhBJatANwGuBi0sX0nULSxfQkA17/f8K7Fm4Fklq1baE06oPAd8uXEuneQQgjl2AfwQOK12IJPXIaYRTAqtLF9JFNgDjeynwz8AOpQuRpB76OvBbeJfA0LwyfXQLCPf0fwXDX5JKOYzwxsHtSxfSNR4BGM12wKeAl5QuRJIEhNcPHwbcU7qQrrABGN4ywr2oTy5diCTpEb4HvAh4oHQhXWADMJz9gS8BO5UuZEwrCO/nvpvwEg7PnUn9shmwBNgE2JJwR9jWhKObXfevwNH4muF52QAM7kjCSyqWlC5kAOuAawlv1foZcA3h3tmbgJvxillJM1sMLAV2Jezo7EJ4oumTgacCewCLilU3uA8C7yxdhNpwNCE0JysddwNnAG8jPIBoizSLQVLPbQrsCxwDnAJcTtjhKL0NnGm8IdEyUI+8DlhL+ZV5+vgR4S6E/fGBTpLK2R54BaEhuJ7y28YN4wHCUQtpJK+jru72asJhrWUpJy1JI5oAngN8CPh3ym8zryRc7yAN5Wjq2PNfBfwDYU9fkrpignBb3pcouy39cOqJqi1HUv6c/22Evf0dE89VklLbHTiZsEOTe1v6IPDE5DNUE/YnnDsqFfw3A2+mG3cbSNIwdgE+SniRT87t6l/lmJy6bRlwO2WC/17g3cDmyWcpSWXtDZxPvu3rTXmmpa7ajnCRXe7gX094o9XS9FOUpGpMAP8VWE6ebe2ueaalrlkAfJX84X81cGCG+UlSrR4HXEH67e1zc01I3fI+8of/R/E8vyS9hHChXupt7vNzTUjd8VLy3uu/nPDuaknqu1zhP4kvcNM0uwB3ki/8LwZ2yzIzSapbzvBfRXjPgQSEC1C+Rr7wP4luvERDklLLGf6TwOfzTEtd8VbyrHhrgD/KNCdJqt0R5H8g0OFZZqZO2Js8K+BKwsouSQp7/rnD/zzCEV+JCeBbpF/p7iW8mleSVCb8VxAeQywBcCx5wt+X90hSUCL8VwGH5picumFn4B7SrnQrcc9fkjYoEf73AQdlmJs65DTSrnSr8Zy/JG1QKvzdCdMj/CbpH/hzfLbZSFLdSlztvxI4OMfk1C0XknbFOynbTCSpbu75qxpHknbFuxgf8iNJUC78fbGaZvR90q14d+NtJpIEHvZXZV5B2pXv1fmmIknVMvxVlQngh6Rb+T6abyqSVC0P+6s6h5Fu5bsaWJJvKpJUJcNfVTqbNCvfejzsJEke9leV9iLdff//kHEeklQjw1/V+ihpVsB7gaUZ5yFJtfGwv6q1hHB7XoqV8N0Z5yFJtXHPX1V7PWlWwpuBzTPOQ5Jq4p6/qvct0qyIb845CUmqiHv+qt4TCFfpx14Rb8Pb/iT1k3v+6oQTSbMyvjPnJCSpEoa/OuNS4q+MDwA75JyEJFXAw/7qjN1Jc/jf+/4l9Y3hr055C2lWyv1zTkKSCnsxHvZXx6R49O81WWcgSWW556/O2YywEsVeMU/MOQlJKsjwVyelevPfspyTkKRCDP+eWVS6gIhSrERXANcl+Lmp7Uy4dedJwGPw6YUxrQBuBa4Ezp36Z6nrXgycQTiSmsv9wMsID24r7TnACYSXyG1HaExuBD4LfLpgXRrQBcTvTt+XcwIR7Ee4DiLVWxAdjxwPAacBuw3y5UiVKnHB3/3UccHfscz/3pjVwCdoa4e5KYsIK1TslbQrV/8vAN5PmlsgHfOPB4DXzvstSfXpa/gvIRzhHabuFcDTSxSruT2T+Cvp3cDCnJMY0QLgc5QPQQe8a57vSqpJn8P/Dkarfy3wgvwlay7HEn9FPSPrDEb3AcoHnyOM9cCr5/66pCr0NfwBrmK8eawiXFulSnyE+Cvr27LOYDT74WH/2sbdhIuIpFr1+Wr/txFnPt/NXbhmdyHxV9guHOZJ8eAjx/jjz+f60qSC+rznD+Fpg7HmtW/m2jWLO4m7wq4Ftsg6g+HtjHv/tY6bgInZvzqpiD7v+QMcRdy5fSFv+ZrJTsRfaa/OOoPR/AHlg84x+3DvQDXp+54/wJnEnd+decuPb0HpAiJI8aS+nyT4mbE9qXQBmtNepQuQphxB/of8PAC8nDoe8rPBnpF/3jaRf152LTzYIMVDWH6a4GfGtrR0AZrTTqULkCjzhL+VwEupK/wBto388zqfny0cAXh8gp95bYKfGduq0gVoTg+ULkC9Z/g/UucDOzYbgJn9MsHPjO220gVoTreWLkC9ZvhrXi00ACkOhXehAfh26QI0q3XAJaWLUG95zl+98XXiXtm5HlicdQaj2YT5X2LhKDMunP1rk5Lyav/Zxb5dfDJv+fG1cARgx8g/bwXh7U+1WwP8n9JFaEYfKl2Aesk9f/XODcTt6K7PWv14tiK8s7r0Hq/j4XHenN+YlIZ7/vPzCECDYn+pP8pb/tieQbj4pnTwOUIz6u2Zys3wH4wNQINWEPcLvThv+VEcgdcDlB4/B5483xclRXY4/X687zBsABr0IHG/0PPzlh/NXoTzcKWDsG9jHfApYPv5vyIpKsN/ODYADVpH3C/03LzlR/cS4LPAPZQPx5bHTcCphFMwUm6G//BsAKbp+pORFhL/Toa1kX9ebmdPjUWE89E70cbdHrVYDdwxNTq/AVAn+ZAfidAAxO7ozso6A0kanHv+o/MIwDTuGUpSNxwOfIn89/kfCVyQ8TOViQ2AJNXP8Fd0NgCSVDfDX0nYAEhSvQx/JWMDIEl1MvyVlA2AJNXH8FdyNgCSVBfDX1nYAEhSPQx/ZWMDIEl1MPyVlQ2AJJVn+Cs7GwBJKsvwVxE2AJJUjuGvYmwAJKkMw19F2QBIUn6Gv4qzAZCkvAx/VcEGQJLyMfxVDRsAScrD8FdVbAAkKT3DX9VZVLoAJbcJsOWA/+79wJqEtWywDYM1n2sINaW2GbBkwH/3HmAyYS1qj+EvJbCQsDGOOc7KOoP4dgfeBXwbuIPh538H8B3g3cCyCPUsBo4BPgv8EnhwyHpWAtcCpwJHABMRatoP+CBwOXDvkPWsBW4BzgGOB7aLUI/adTiwivjbqfl+Zw7OMbmOuZP4y1oF2QA8bBvgb4GHiLcsVgMfAbYdsabfBa6LWM8kcAnwn0asZw/gi5HrWQ68A4+m6dEM/7rYADTGBiDYE/gJ6TYqPweeMkQ9i4C/TFjPGuDEIeoBOIwQ1qlq+hoeDdDDDP/62AA0xgYAHgvcRPqNy68Y/JTAxzPUMwmcMGA9zyfukZHZxmXA5gPWpHYZ/nWyAWhM3xuARcCl5NvIXEa4qHAuJ2SsZw0h3OeyC6F5yVXTJ+apR20z/OtlA9CYvjcAx5J3QzMJHDdHPdsCd2Wu51LmvjDwE5nrWQ/sP0c9apfhXzcbgMb0uQGYAG4g78ZmEriR2W/h+9MC9UwCL52lnscRjhLkrueMWepRuwz/+tkANKbPDcBzKBO2k8y+h3tFoXpmO+ye83TExuMBYItZalJ7DP9usAGYxicBdlfJX/5DZvi7HYCn5y5kykz1QLlltAR4bqHPVl4+5EedZQPQXbsU/OxdZ/i7kvXswszXAcxUZy4lP1t5GP7qNBuA7tq64GfP9GCgkvUsZuZH+da2jNQOw1+dZwPQXXcV/Ow7Zvi7kvWsJGwcp7szdyEbmWkZqQ2Gv5pgA9Bd11f22TcRnpNfwvVD/n0ONxT8bKVj+KsZNgDddXbBzz5nhr+7j/ACohJmWxbnZq3iYcuB7xf6bKVj+EsV6fNtgAA/JP8tbpfPUc/xBeqZBJ49Sz3bASsK1PPxOZaRuqnUrX6z3eGi4XkbYGP63gC8jPzhduQc9SwGfpG5ni/Os4zel7meVcBu89SkbjH822AD0Ji+NwAAnyffRun0Aep5CeFagBz1LCe84ncuW5L2TYnTx7BvKVTdDP922AA0xgYgPHHuMtJvlC4nhOkg3p6hntXAEQPWswd5Xgj0KeZ+L4G6xfBviw1AY2wAgi0Jz59PtVE6m+Hva38N6TaedzL8RvIJwFWJ6pkETiW8nVFtMPzbYwPQGBuAhy0Afo9w61usZXED8PuMfrfIU4EvR6xnNfAxYOcR69kCeA9wb8SafgAcOmI9qpPh3yYbgGm6frhyIfHvPf8q4eK6rloMHES4WO+JhMfkDvpimpXALcDPgTMJtx6tjlDTXsBRwAHAY4ClDLburSU8UOcm4Pypmm6NUM/WwIsJpxCWTdW06YD/7d1TNVxBaG5+QAMbAv1aqVv9Xk5Yx5XOnYR3lsTU9QztNI8ASIrFPf+2eQRgGh8EJEnu+auHbAAk9Z3hr16yAZDUZ4a/essGQFJfGf7qNRsASX1k+Kv3bAAk9Y3hL2EDIKlfDH9pig2ApL4w/KWN2ABI6gPDX5rGBkBS6wx/aQY2AJJaZvhLs7ABkNQqw1+agw2ApBYZ/tI8bAAktcbwlwZgAyCpJYa/NCAbAEmtMPylIdgASGrB4cAXMfylgdkASOq6DeG/JONnGv7qPBsASV1m+EsjsgGQ1FWGvzQGGwBJXWT4S2OyAZDUNYa/FIENgKQuMfylSGwAJHWF4S9FZAMgqQsMfykyGwBJtTP8pQRsACTVzPCXErEBkFQrw19KyAZAUo0MfykxGwBJtTH8pQxsACTVxPCXMrEBkFQLw1/KyAZAUg0MfykzGwBJpRn+UgE2AJJKMvylQmwAJJVi+EsF2QBIKsHwlwqzAZCUm+EvVcAGQFJOhr9UCRsASbkY/lJFbAAk5WD4S5WxAZCUmuEvVcgGQFJKhr9UKRsASakY/lLFbAAkpWD4S5WzAZAUm+EvdYANgKSYDsPwlzrBBkBSLIcBX8LwlzrBBkBSDIa/1DE2AJLGZfhLHWQDIGkchr/UUTYAkkZl+EsdZgMgaRSGv9RxNgCShmX4Sw2wAZA0DMNfaoQNgKRBGf5SQ2wAJA3C8JcaYwMgaT6Gv9QgGwBJczH8pUbZAEiajeEvNcwGQNJMDH+pcTYAkqYz/KUesAGQtDHDX+oJGwBJGxj+Uo/YAEgCw1/qHRsASYa/1EM2AFK/Gf5ST9kASP1l+Es9ZgMg9ZPhL/WcDYDUP4a/JBsAqWcMf0mADYDUJ4a/pF+zAZD6wfCX9Ag2AFL7DH9Jj2IDILXN8Jc0IxsAqV2Gv6RZ2QBIbTL8Jc3JBkBqj+EvaV42AFJbDH9JA7EBkNph+EsamA2A1AbDX9JQbACk7jP8JQ3NBkDqNsNf0khsAKTuMvwljcwGQOomw1/SWGwApO4x/CWNzQZA6hbDX1IUNgBSd5QK/6Mw/KXm2ABI3VAy/L+R8TMlZWIDINXP8JcUnQ2AVDfDX1ISNgBSvQx/ScnYAEh1MvwlJWUDINXH8JeUnA2AVBfDX1IWNgBSPQx/SdnYAEh1MPwlZWUDIJVn+EvKzgZAKsvwl1SEDYBUjuEvqRgbAKkMw19SUTYAUn6Gv6TibACkvAx/SVWwAZDyMfwlVcMGQMrD8JdUFRsAKT3DX1J1bACktAx/SVWyAZDSMfwlVcsGQErD8JdUNRsAKT7DX1L1bACkuAx/SZ1gAyDFY/hL6gwbACkOw19Sp9gASOMz/CV1jg2ANB7DX1In2QBIozP8JXWWDYA0GsNfUqfZAEjDM/wldZ4NgDScA4EzMPwldZwNgDS4A4GvAltk/EzDX1ISNgDSYAx/SU2xAZDmZ/hLao4NgDQ3w19Sk2wApNkZ/pKaZQMgzczwl9Q0GwDp0Qx/Sc2zAZAeyfCX1As2ANLDDH9JvWEDIAWGv6ResQGQDH9JPWQDoL4z/CX1kg2A+szwl9RbNgDqK8NfUq/ZAKiPDH9JvWcDoL4x/CUJGwD1i+EvSVNsANQXhr8kbcQGQH1g+EvSNDYAap3hL0kzsAFQywx/SZqFDYBaZfhL0hxsANQiw1+S5mEDoNYY/pI0ABsAtcTwl6QB2QCoFYa/JA3BBkAtMPwlaUg2AOo6w1+SRmADoC4z/CVpRDYA6irDX5LGYAOgLioR/qsw/CU1xAZAXWP4S1IENgDqkpLhf17Gz5Sk5GwA1BWGvyRFZAOgLjD8JSkyGwDVzvCXpARsAFQzw1+SErEBUK0Mf0lKyAZANTL8JSkxGwDVxvCXpAxsAFQTw1+SMrEBUC0Mf0nKyAZANTD8JSkzGwCVZvhLUgE2ACrJ8JekQmwAVIrhL0kFLSpdgHrJ8FetFgHPAJ4E7D41NgEemvr/fwVcBfwYuBZYk71CSQAsBCYjj7OyzqB/DgTuJ/73Ntd4ADg0x+TUSTsBbyU0pSsYfL26Dzgd+B1Ck6C63Un8bYsKsgHoFsNfNTkc+CKwmvHXs1uANwGLs85Aw7ABaIwNQHcY/qrFQcDFpFnnfgEcA0zkmowGZgPQGBuAbjD8VYNtgVPJs/6dA+ycZ1oakA1AY2wA6mf4qwYvAW4l73p4K+E0g+pgA9AYG4C6Gf4qbQI4EVhH3vVww1gLHJd8lhqEDUBjbADqZfirtMXApygT/NPHnyaeq+ZnA9AYG4A6HUi4RcrwVylbAudSPvg3Hh9OOmPNxwagMTYA9TH8Vdpi6gv/DeOtCeetudkANMYGoC6Gv0pbCHyB8kE/21gPvCbZ7DUXG4DG2ADUw/BXaQuA/0/5kJ9vrAKemWgZaHY2AI2xAaiD4a8anEz5cB90XEO4TkH52AA0xgagPMNfNfgvlA/1Ycc/JlkSmo0NQGNsAMoy/FWDpwErKR/oo4xXJ1gempkNQGNsAMox/FWDrYCfUj7IRx23AdtFXyqaiQ1AY2wAyjD8VYtPUj7Exx0fi75UNBMbgMbYAORn+KsWR1I+vGOMdcABkZeNHs0GoDE2AHkZ/qrFtsDNlA/vWOMH+Arh1GwAGmMDkI/hr5p8gvKhHXu8KuoS0nQ2AI2xAcjD8FdNnkW+t/utJd9FhtcAiyIuJz2SDUBjbADSM/xVkwngIvKshzcDB0197quAezJ85hvjLKahTQCHA38LXEm4O2EF8DPgS8Dv0/27FWwAGmMDkJbhr9ocTZ718IfAY6Z99j7A7Yk/90Zg03EX0pAOJcx3vtpWACcWqC8WG4DG2ACkY/irNguAq0m/Hl4EbD1LDc8g/e9FrqMAE8B7Gf50yiXA0kw1xmQD0BgbgDQMf9Uox+N+fwZsP08d/5nwVr9UNVxL2Lal9r/HrHG+5VQbG4DG2ADEZ/irVpeTdj1cDuwxYC2nJK7l6GEWzAheFaHGM+nWrYs2AI2xAYjL8FetXkj6dXGY5/JvClyVsJZLh6hlWEuAX0aq87cS1hmbDUBjbADiMfxVs0+Rdl385xFqOoC0tyMeNkJNg/iTiDX+KFGNKdgANMYGIA7DXzVbQrgCPdW6eB2zX/Q3n48mrOv8EWuay1Lg3sh1PjFBnSnYADTGBmB8hr9qdyDp1sW1wPPHqG17wrUDqep77hi1zeTjCWo8LnKNqdgATLOgdAEq6kBCw7Nlxs9cBRwFnJfxM9Vtuyf82X8DXDzGf78c+ItItczkXRF/1rOAP4j48zbYLcHPlOblEYDRueevrvhj0qyPNwFbRahvM+CGRDWuJ86bAieA7ySqsSuvM/YIwDQeAegn9/zVJcsT/dy3EJrgcT1IuqMAE8CHGf92u9eR7pXDv0r0c6U5eQRgeO75q2sOIP46eXbkGjcDbklQ54bx22PU9ljgroS1vWGM2nLyCEBjbACGY/irixYSN8BWA09KUOc7ItY4fdzAaKcrJgjbtFR1rSM0GF1gA9AYG4DBGf7qslOJt16ekqjGrUh7R8AodR+XsJ5JxruAMjcbgMbYAAzG8FfXPR54iPHXy+XADgnrHOf5+vONdYTf5UHtCdyfsJ5J4DVD1FOaDUBjbADmZ/irFScy/rqZ+k17Swnrf6rfrRuBHQeoYzPCW/tS/p7fAiwebvEUZQPQGBuAuRn+askE8GlGXzdPzlTnR8aocZBxLrBojs+fIP2jkyeBt422eIqxAWiMDcDsXoDhr/YsBP6K4dbLdcB7yPfmumXAmiFrHHb8/SzzmQBOSvzZk8BtwObjLKQCbAAaYwMwM8NfrXsR8EPmXy8vYrxH/Y7q/w1Q27jjY4Rt4AaLiHux5FzjzTEWUmY2AI2xAXi0Q4CVGP5q3wTwHMJDeM4ErgQuI/wOvw94drHKwuOLHyT9795FwB6EC/5SPelv+rgG2CTaksrHBqAxNgCP5J6/VI9TyPM7uIbwbINcv/NHxVxIGaW4RVMF2QA8zPCX6rKUtK8xLjHOibqE8or9GuT1ecvXdDYAgeEv1ek9lA/tWGMF4XkMXRX7mQg2AIXZAHjOX6rZpsDPKB/eMcbxkZdNbrGvyViXt3xN1/cGwPCX6nco5cN73HEh3X977DriLpPVecvXdH1uADzsL3XHZygf4qOO24Fd4i+S7GIvlxivktYY+toAuOcvdctOhCAtHebDjrWEZy503VLiL5s7ss5Aj9LHBsA9f6mbjiBcOFY61IcZ706yJPJ7GfGXzS+yzkCP0rcGoNSe/2E5Jif1wIcpH+qDjtPp/nn/Dd5J/OVzWdYZ6FH61AAY/lL3LQa+R/lwn2+cR7iDoRX/RPxldEbOCejRJoj/BKzTs85gMIa/1I4dgWspH/KzjUuArZLNvowUr0b+i6wz0IxuJu6X+pG85c/Lc/5Se/agzosCrwJ2SDjvUm4j/rL63awz0IzOJ+6XWtNbrtzzl9p1APEfTzvOuIxwt0KLUrwrYVnWGWhGbyful/rEvOXPyj1/qX3PIM3e6bDjPGDrxHMt5XHEX15rs85As9oVWEWcL/XbmWufjXv+Un8so+w1AafSzdf7DuodxF9md2adgeZ0MnG+1INzFz4D9/yl/tkR+CJ5f+9XAG/IMbnCvk78ZXdp1hloTlsDP2G8L7SGi//c85f67TjybAO+Rrff7DeMXxF/+Z2WdQaa157ALYz2ZZ5N+UNghr8kCNuyz5LmqYFXAEflm0pxW5Jm2/nKnJPQYHYBvs/gX+J6wp7/ohLFbsTwlzTdfsA5jN8IrAPOBX6bdp7sN6gTiL/tXE/5HUbNYhHwRuAG5v4Cvwk8r1CNGzP8Jc1lL+ADDHeacyUh9N8B7Ja/5Gp8l/jbz2YuAJwoXUBCC4BnES5ueyywPXAr8G+Ex/3+slxpv3YI8BVg84yfuQp4BeHCGEndsh3wVGAfYPeN/m4NcCNhx+ffgcvxffUADxEevxzThdRxwbg6zKv9JSmdFG8AnAT+KOck1B7DX5LSupD429H15D1iq8YY/pKU1gLSPP73lpyTUFu84E+S0nsTabann845CbXDPX9JyuM60mxTn5lzEmqD4S9Jefwmabap9+SchNrgYX9JyuebpNmunp5zEuo+w1+S8nksaR6hPEl4row0kBKH/R8k3PsqSX10Lmm2rc08/U/pHYx7/pKU066E9x6k2L6eknEe6jD3/CUpv0tIs31dD2ybcR7qKPf8JSm/g0i3jb083zTUVe75S1IZt5JuO3tIxnmogwx/SSrjvaTbzt6ccR7qIA/7S1IZS0nzzP8N4035pqKuMfwlqZxrSbetXZFxHuoYD/tLUjl/Tdrt7TvyTUVdYvhLUjkHke6Jf+79a1Ye9pekcrYA7iftNvft2WajzjD8JamsK0m7zb0j31TUFR72l6SyTif9dveobLNRJxxO2ltN3POXpLm9n/Tb3SuyzUad8EbSvWDC8Jek+b2d9NvddcCeuSak+r2JtFeaGv6SNLdjybMd/liuCal+z8Pwl6SS3k6e7fCdwESmOakDfoXhL0ml5Djnv2EcnGlO6oDjMfwlqZQvkG/7+8lMc1JHpHy+tOEvSTPbgvT3+W88bsVD/5pmLYa/JOV0MOmf8LfxWAfsnWVm6ow9MPwlKaePkP+i67dkmZk65fmkX/F8wp8kwfbA5eQN/kngzByTq92C0gVUaF2mz7g3w+dIUq3eC9wG7Jv5c2/Gx/1qFovJ04GuB/4OmzBJ/XIQ4eK73Hv9k4RTr49JPkN12gryrZB34+kASe3bFbiEMsE/Sbi4e7/ks1TnfY78K+dPgOfkmJwkZfRY4Bzyv1Nl47EeeFXqiaoNj6Pcyno58ML0U5SkpPYFvkn+q/tnGv8j8Vxuev2zAAADp0lEQVTVmE9SdoW9HfifwKLUE5WkSBYQXqJ2HeVDf8P486QzVpMWkP99ADONNcClhNcSe8GgpBq9DLgAWE35bebG429STlpt25ey562mj7WEx2R+CJ9gJamcLYETgO8CD1F+22j4K4n3Un5Fnm08CFwF/D3wWmDHRMtAUr/tSjiP/jXqODI63/Cw/wB8CcJgzgNeVLqIAa0B7gKuB24hnIv7BfBTwtGD5cUqk1SzHYH9gacRjjDuDexOeFrfJuXKGsokcCJwUulCusAGYDAThBBdVrqQCDZ0yBueeLhm6p8fKlaRpNw2ARZOjU1o4/qidcAxwL+ULqQrbAAGtw1hr3rbwnVIkh5pFfAC4LLShXSJDcBwdgJ+DmxVuhBJEhCe7f8swnsFNIQWDvvkdDvwFOC+0oVIkjgL2A3DfyQ2AMO7CdiTcCWsJCm/9cBbgSOn/rdG4CmA0W1GeEDPPqULkaQeuQM4hPD+FI3BIwCjexB4KvD50oVIUk98HtgZwz8KG4DxvQr4PcLtdJKk+O4BXkzY3nrIPxJPAcTzOOAi4PGlC5GkRqwnPOn0uNKFtMgjAPHcSHhq1p8RntkvSRrdVcBeGP7JeAQgjW2ALwCHli5EkjpmOfCHwBmlC2mdRwDSuBc4jNAAXFe4FknqghWEFw7tgOGfhUcA8ngZ8H/x+gBJmu4+4P3AB0sX0jc2AHm9Avgw4UFCktRntwAfIOwcqQAbgDL2AE4m3NbSlddsStK4JoErgLcBFxSupfdsAMpaSDjndSzh9IDfh6QW3QV8GngP4RopVcDAqccWwAnA6wm3vniBpqQuWwF8g3CY/9LCtWgGNgB1WgL8d+CVhHcN+PphSbWbJLyV70LgJOBHRavRvGwAuuE3CI8bPhLYF9gavztJZU0SDu3/mPDck9OAVUUr0lAMkW6aAA4gPGdgf8Ipg52BzUsWJalZ6wnP478euBL4MvAVfOppp9kAtOcphIZgH8KFhbsDS4EdCa8w3pTwvW+4+2DR1J+uC1J/TG705zrgIcLe+/2Ei/SuA64hhP338IFmkiRJkiRJkiRJkiRJkiRJkiRJkiRJkiRJkiRJkiRJkiRJkiRJkiRJkiRJkiRJkiRJkiRJkiRJkiRJkiRJkiRJkiRJkiRJkiRJkiRJkiRJkiRJkiRJkiRJkiRJkiRJkiRJkiRJkiRJkiRJkiRJkiRJkiRJkiRJkiRJkiRJkiRJkiRJkiRJkiRJkiRJkiRJkiT92n8AYuvGUq3zdfsAAAAASUVORK5CYII=;direction=west;" vertex="1" parent="1">
          <mxGeometry x="714.8000000000001" y="360" width="59.6" height="59.6" as="geometry" />
        </mxCell>
        <mxCell id="Kjv4vyTBPtws4vWYZQJM-34" style="edgeStyle=orthogonalEdgeStyle;rounded=0;orthogonalLoop=1;jettySize=auto;html=1;strokeWidth=2;endArrow=none;startFill=0;entryX=0.545;entryY=1.028;entryDx=0;entryDy=0;entryPerimeter=0;" edge="1" parent="1" target="Kjv4vyTBPtws4vWYZQJM-31">
          <mxGeometry relative="1" as="geometry">
            <mxPoint x="742" y="350" as="targetPoint" />
            <mxPoint x="742" y="304" as="sourcePoint" />
            <Array as="points">
              <mxPoint x="742" y="314" />
              <mxPoint x="742" y="314" />
            </Array>
          </mxGeometry>
        </mxCell>
        <mxCell id="Kjv4vyTBPtws4vWYZQJM-42" value="" style="endArrow=classic;html=1;rounded=0;strokeWidth=2;dashed=1;fillColor=#60a917;strokeColor=#2D7600;entryX=0;entryY=0.5;entryDx=0;entryDy=0;" edge="1" parent="1" target="Kjv4vyTBPtws4vWYZQJM-30">
          <mxGeometry width="50" height="50" relative="1" as="geometry">
            <mxPoint x="160" y="400" as="sourcePoint" />
            <mxPoint x="340" y="492" as="targetPoint" />
            <Array as="points">
              <mxPoint x="160" y="440" />
              <mxPoint x="160" y="492" />
              <mxPoint x="320" y="492" />
            </Array>
          </mxGeometry>
        </mxCell>
        <mxCell id="Kjv4vyTBPtws4vWYZQJM-44" value="" style="endArrow=classic;html=1;rounded=0;strokeWidth=2;dashed=1;fillColor=#60a917;strokeColor=#2D7600;entryX=0.5;entryY=0;entryDx=0;entryDy=0;" edge="1" parent="1" target="Kjv4vyTBPtws4vWYZQJM-29">
          <mxGeometry width="50" height="50" relative="1" as="geometry">
            <mxPoint x="650" y="120" as="sourcePoint" />
            <mxPoint x="630" y="175" as="targetPoint" />
            <Array as="points">
              <mxPoint x="600" y="120" />
              <mxPoint x="538" y="120" />
            </Array>
          </mxGeometry>
        </mxCell>
        <mxCell id="Kjv4vyTBPtws4vWYZQJM-45" value="" style="endArrow=classic;html=1;rounded=0;strokeWidth=2;dashed=1;fillColor=#60a917;strokeColor=#2D7600;entryX=1;entryY=0;entryDx=0;entryDy=0;" edge="1" parent="1" target="Kjv4vyTBPtws4vWYZQJM-29">
          <mxGeometry width="50" height="50" relative="1" as="geometry">
            <mxPoint x="900" y="320" as="sourcePoint" />
            <mxPoint x="670" y="450" as="targetPoint" />
            <Array as="points">
              <mxPoint x="732" y="320" />
              <mxPoint x="580" y="320" />
            </Array>
          </mxGeometry>
        </mxCell>
        <mxCell id="Kjv4vyTBPtws4vWYZQJM-47" value="" style="endArrow=classic;html=1;rounded=0;strokeWidth=2;dashed=1;fillColor=#60a917;strokeColor=#2D7600;entryX=1;entryY=0;entryDx=0;entryDy=0;" edge="1" parent="1">
          <mxGeometry width="50" height="50" relative="1" as="geometry">
            <mxPoint x="870" y="550" as="sourcePoint" />
            <mxPoint x="550" y="680" as="targetPoint" />
            <Array as="points">
              <mxPoint x="702" y="550" />
              <mxPoint x="550" y="550" />
            </Array>
          </mxGeometry>
        </mxCell>
      </root>
    </mxGraphModel>
  </diagram>
</mxfile>
